<?xml version="1.0" standalone="no"?>
<!DOCTYPE svg PUBLIC "-//W3C//DTD SVG 1.1//EN" "http://www.w3.org/Graphics/SVG/1.1/DTD/svg11.dtd" >
<svg xmlns="http://www.w3.org/2000/svg">
<metadata></metadata>
<defs>
<font id="whatever_it_takesbold" horiz-adv-x="845" >
<font-face units-per-em="2048" ascent="1638" descent="-410" />
<missing-glyph horiz-adv-x="446" />
<glyph horiz-adv-x="0" />
<glyph horiz-adv-x="682" />
<glyph unicode=" "  horiz-adv-x="446" />
<glyph unicode="&#x09;" horiz-adv-x="446" />
<glyph unicode="&#xa0;" horiz-adv-x="446" />
<glyph unicode="!" horiz-adv-x="233" d="M37 432q0 14 6 25.5t10 19.5v4q-6 4 -11 13.5t-5 19.5v717q0 16 11 27.5t28 11.5q39 0 75.5 -26.5t36.5 -67.5v-289q0 -4 -3 -12.5t-5 -12.5q4 -23 6 -42t3 -40.5t1 -48v-61.5v-66q0 -31 -1 -59.5t-1 -50.5v-33q16 -23 17 -39q0 -2 -2 -5t-4 -7q2 -4 4 -11.5t2 -11.5v-16 q0 2 4 2q6 -10 11 -21.5t1 -29.5q-4 -10 -14 -19.5t-23 -9.5q-16 0 -40.5 6t-48 21.5t-41 42t-17.5 69.5zM137 209q23 0 47.5 -26.5t24.5 -71.5q0 -16 -11.5 -27.5t-27.5 -11.5q-8 0 -20 -9q-25 -14 -48 -14q-16 0 -27.5 11.5t-11.5 27.5t12.5 44t26.5 54z" />
<glyph unicode="&#x22;" horiz-adv-x="444" d="M10 1186q0 45 16.5 62.5t57.5 17.5q31 0 45 -9.5t29 -27.5l4 -19q2 -31 -2 -40t-8 -19q-4 -4 -5.5 -8t-1.5 -17q0 -23 5 -26q4 -10 8 -19.5t4 -21.5v-15q0 -8 -1 -19t-1 -19q0 -16 8 -29q6 -14 10 -30.5t4 -43.5q0 -16 -11 -27.5t-28 -11.5q-10 0 -34.5 3t-34.5 7 q-12 10 -21.5 32t-15.5 43.5t-10 39t-4 21.5v37q0 14 1 26t1 23q0 10 -3.5 32.5t-11.5 40.5v17zM250 985q-4 2 -6 4l-6 6q-14 39 -18.5 107.5t-4.5 130.5q0 16 10.5 27.5t26.5 11.5q37 0 67.5 -15.5t55.5 -52.5q-4 -18 -4 -40.5v-45.5q0 -55 2 -79.5t12 -59.5 q6 -29 -2 -46.5t-26.5 -26.5t-42 -11t-44.5 -2q-16 0 -27.5 11t-11.5 28q0 16 5.5 26.5t9.5 20.5z" />
<glyph unicode="#" horiz-adv-x="892" d="M590 133q0 10 1 20.5t1 24.5q0 39 -4 53.5t-10 24.5q-8 16 -14.5 37.5t-6.5 71.5v14q-14 -4 -30.5 -10.5t-45.5 -16.5q-12 -10 -26.5 -14t-34.5 -12q8 0 -4.5 -3.5t-18.5 -7.5v-110q0 -16 -11 -27.5t-28 -11.5q-12 0 -31.5 10t-38 23.5t-31.5 29t-13 25.5v4h-4 q-4 0 -15.5 -6t-21.5 -10q-10 -6 -19.5 -11.5t-23.5 -5.5q-16 0 -27.5 11.5t-11.5 27.5q0 6 5 22.5t12 35t14.5 36t11.5 23.5q16 18 25.5 20t19.5 7q6 2 12 2t8 -4v108h-28q-16 2 -44 10t-48 21h-21q-6 0 -17.5 2t-23.5 5t-22.5 6t-14.5 5q-8 4 -14 14.5t-6 20.5 q0 33 12 53.5t31.5 32.5t44 18.5t49.5 10.5q18 2 30.5 -9.5t12.5 -29.5q0 -14 -2 -23q14 2 16 10.5t2 26.5q0 23 -5 53.5t-9 53.5q-6 25 -6 43q0 16 11 27.5t28 11.5h59q16 0 26.5 -11.5t10.5 -27.5q0 -4 1 -12.5t1 -18.5q2 -12 2 -26.5v-18.5q0 2 6 -10q4 -10 7.5 -18.5 t3.5 -16.5l4 -23v6l6 -18q27 16 65.5 28.5t65.5 22.5l22 8q6 2 13.5 -1t15.5 -7l10 8l2 2q4 2 8.5 5.5t10.5 7.5q4 14 6 24.5t6 28.5q-2 0 -2 2q-4 4 -8 14.5t-4 16.5l14 104q-12 10 -20.5 23.5t-8.5 42.5t9 47q4 10 8 22.5t4 30.5q0 16 11 26.5t28 10.5q2 0 13 -5 t26.5 -14.5t31 -19.5t25.5 -23q-4 -29 -4 -64.5v-72.5v-35v-90t4 -49q27 10 54.5 12.5t58.5 2.5q39 0 39 -39q0 -6 -3.5 -19.5t-5.5 -17.5q-23 -43 -49 -52.5t-53 -13.5q-12 -2 -20.5 -9t-8.5 -50v-31q2 0 19 8q6 4 14 11q25 0 45 -17q4 -2 13.5 -5t19.5 -3q39 0 39 -39v-22 q0 -10 -8.5 -21.5t-16.5 -15.5q-43 -16 -66.5 -26.5t-33.5 -20t-11 -22.5t-1 -38v-41v-11t-4 -13q23 -37 31.5 -87.5t8.5 -97.5q0 -16 -11 -27.5t-27 -11.5q-27 0 -42.5 4.5t-35.5 12.5l6 -2q-2 0 -4 2q-2 0 -2 2q-39 0 -39 39v16zM559 582q0 2 -1 7t-1 11q-10 -2 -17.5 -6 t-15.5 -8q-23 -10 -44 -19.5t-40 -9.5q-4 0 -8 1t-8 1q-20 -4 -29 -6q-8 -2 -14 -2v-78l31 10q14 6 32.5 10.5t28.5 8.5q4 0 16.5 -1t20.5 -1l2 2q4 4 6 8q4 6 14.5 16.5t26.5 16.5l10 4q-4 8 -7 18.5t-3 16.5z" />
<glyph unicode="$" horiz-adv-x="700" d="M502 864l22 21q53 0 75 -36t22 -77q0 -16 -11.5 -27.5t-27.5 -11.5h-60q-12 0 -18 2q-8 -4 -17 -4q-8 0 -10 2q-6 -4 -18 -4q-16 0 -26.5 5t-20.5 14h10l-14 6v-9q0 -12 2 -19t6 -13q6 -18 6 -45v-21q0 -16 1 -36.5t17 -53.5q0 -31 9.5 -38t25.5 -11l47 -16q2 -4 13 -9 q35 -16 62.5 -29.5t46 -34t28.5 -50t10 -74.5q0 -53 -28.5 -99t-59.5 -69q-10 -16 -25.5 -23.5t-36.5 -17.5q-14 -4 -29.5 -11t-33.5 -26v-10q0 -10 -1 -19.5t-1 -13.5q0 -39 4 -62.5t10 -52.5l4 -20q0 -4 -4 -13.5t-8 -13.5q-12 -12 -41 -23t-55 -5q-10 4 -19.5 12 t-17.5 16t-18 21l-5 78v69q-70 0 -125 8.5t-94 29t-60.5 56t-21.5 95.5q0 16 11.5 27.5t27.5 11.5h15q6 0 16 -5.5t14 -11.5q20 -29 47 -51t43 -22h74q25 2 28 3t13 1q-2 18 -3 36.5t-1 32.5q0 12 1 29.5t1 38v39t-2 32.5q-4 27 -9 34t-11 7q-2 -2 -14.5 -3t-22.5 -3 q-20 -4 -41 -8t-17 0l-80 14q-4 0 -7 -1t-7 -1q-29 0 -49 33h-12q-16 0 -27.5 11.5t-11.5 27.5q0 43 10 97.5t45 80.5q8 6 19 8q10 27 27.5 51.5t39.5 24.5h21q-2 2 8 15.5t20 23.5l15 14q16 8 30.5 16.5t14.5 12.5q2 8 -1 21.5t-8 29.5q-4 12 -6 24.5t-2 29.5q0 10 -3 26.5 t-6 31.5t-6 26.5t-5 11.5q-23 0 -34 17.5t-1 39.5l31 60q6 10 19 16t28 2q29 -10 54.5 -54t47.5 -93q0 -4 4 -23.5t10.5 -43.5t13.5 -46.5t11 -30.5q0 2 26.5 2h43.5q4 0 8 -2q12 8 20 8h2zM557 332q0 18 -35 33.5t-69 21.5q2 -43 2 -83t6 -93q2 10 11 7t15 1 q47 27 58.5 56.5t11.5 56.5zM188 573q-4 -10 -9 -18t-9 -12q10 -2 31 -2h55q10 0 17.5 -4.5t15.5 -8.5v19q0 20 -2 28.5t-6 16.5q-4 10 -7.5 20.5t-3.5 30.5v8q-10 -10 -23.5 -25.5t-23.5 -27.5q-14 -16 -33 -16q0 -2 -1 -3.5t-1 -5.5z" />
<glyph unicode="%" horiz-adv-x="1263" d="M573 750q2 10 10.5 19t16.5 11h4v15l14 90q16 47 22.5 80.5t10.5 62.5t9.5 59.5t21.5 75.5l-2 -4q4 18 10 30.5t12 22.5q4 6 8.5 15.5t4.5 32.5q0 20 16 32q4 2 23.5 -9t40 -27.5t37 -32t16.5 -19.5q0 -14 -4 -20t-8 -13q0 -2 -2 -2q16 -16 11 -37.5t-26 -25.5 q0 -2 -1 -8t-1 -11l-2 -2q-4 -14 -12 -22v-4q0 -2 -1 -5t-1 -7q-2 -12 -4 -29t-11 -39v-27q0 -27 -14 -41q-2 -10 -5 -20t-5 -21q-4 -10 -5 -18t-1 -27q-2 -4 -7.5 -14t-10.5 -20.5t-9 -19.5t-4 -11v-33q0 -33 -16 -47q-6 -39 -17.5 -76t-23.5 -72q-12 -39 -22.5 -71.5 t-10.5 -61.5q0 -14 -9.5 -37.5t-19.5 -50.5q-6 -16 -11 -26.5t-5 -12.5v-36q-2 -12 -6 -21q-4 -10 -7.5 -18.5t-7.5 -12.5l-4 -10q-8 -25 -14 -47.5t-6 -24.5q0 -6 1 -12t1 -10v-21q-16 -43 -37 -59t-64 -16h-20t-27 4q-14 8 -19 23.5t5 31.5q4 10 13.5 27.5t9.5 19.5v43 q6 16 14 31q6 12 11 23.5t9 19.5l4 35q4 27 8.5 59.5t14.5 60.5q4 23 20 44q2 4 5.5 8t3.5 2v51q8 31 16 57.5t31 55.5zM715 301q0 27 4 38t12 17v4v64q8 18 20.5 38.5t24.5 35.5q8 10 18.5 25.5t18.5 31.5q16 16 27.5 26.5t24 17.5t27.5 11t40 6q47 4 61.5 -14t14.5 -59 q0 -70 -45 -90q-16 -8 -37 6l-13 -15q-12 -20 -23 -43.5t-16 -40.5q-2 -4 -2 -10q0 -2 -2 -2v-43q0 -18 -6 -33h58q8 0 20 -8l49 49q4 8 11.5 28.5t14.5 44.5t12 42t5 23q0 10 -5 37.5t-9 50.5q-4 14 2 28.5t22 18.5l17 8l-6 -2q12 6 24.5 10t32.5 4q18 0 48 -14t38 -47 q4 -20 -8 -33q4 -8 8 -14t4 -17q0 -14 -6 -22q4 -8 4 -15q0 -6 -6 -26.5t-15.5 -45t-20.5 -49t-19 -38.5v-21q0 -23 -20.5 -44t-49.5 -38h-6q4 -4 -2 -10l-10 -10q-16 -16 -33 -29.5t-29 -13.5q-4 0 -12 4t-19 8q-10 -10 -25 -19.5t-42 -9.5q-25 0 -36 5.5t-21 11.5 q-35 4 -47.5 26.5t-14.5 51.5q-18 -2 -29.5 10t-11.5 31v8q-16 12 -16 55zM186 602q-14 4 -28 16q-14 -4 -28.5 -6t-27.5 -2q-16 0 -27.5 10.5t-11.5 26.5v21q-12 10 -26 31.5t-19 39.5q-23 10 -22 35q0 16 2 30.5t8 26.5q-6 20 -6 48q0 23 9 50t18 50q0 8 2 10q0 2 2 4v27 q16 49 29.5 81t27.5 53.5t30.5 34.5t37.5 23q8 10 25.5 23.5t37.5 24.5q10 4 23.5 2t19.5 -11q8 -6 22.5 -19t16.5 -13h21q16 0 24 -5.5t14 -13.5h7q16 0 27.5 -11t11.5 -28q0 -6 6 -12q8 -6 11 -13.5t3 -23.5q0 -2 -1 -8t-1 -10l25 -64l8 -24v-18.5t-4 -14.5 q14 -31 -13 -51q-2 -6 -5 -14.5t-7 -14.5q-2 0 -4 2v-33l-16 -43q0 -31 -3.5 -47t-7.5 -23.5t-6 -8.5l-2 -1q-10 -12 -24 -18v-12q0 -20 -6.5 -31.5t-22.5 -24.5q-16 -10 -41 -6q-12 -29 -43 -37t-66 -8zM154 848q0 -4 2 -19.5t6 -32t11 -29.5t20 -13l16 8l16 8q-2 0 -4 -2 h-2q2 10 6 22.5t15 26.5l26 17l8 24q-12 14 -12 35q0 33 25 45v4q0 6 1 14.5t1 16.5v6l-15 63v-4q-4 12 -4 19q-8 -14 -25.5 -17.5t-29.5 4.5q-8 -4 -10 -6t-4 -2h-15q16 -2 13 -12q0 -23 -4.5 -24t-12.5 -5q2 -6 2 -16q-2 -18 -8 -36.5t-12 -35.5q-4 -16 -7 -29.5t-3 -29.5 z" />
<glyph unicode="&#x26;" horiz-adv-x="796" d="M14 135q0 4 1 7t1 5q10 45 23.5 74t30.5 51l-2 -2l26 56q23 31 26 45t11 28l6 13v12q0 16 5 23.5t14 15.5q10 10 10 12q0 4 4 13.5t8 13.5q0 2 8.5 9t17.5 16.5t16 17.5l7 8v22q0 27 8.5 30t18.5 13l2 3q14 20 16 29t2 42q0 29 -7 49.5t-21 44.5q-10 16 -28.5 44 t-18.5 49q-2 14 -5.5 37.5t-6.5 47t-5 41t-2 21.5v8t2 13q0 8 2 16l115 115q16 16 41 16t66 10q53 -6 81.5 -18t41 -34t14.5 -53.5t2 -76.5v-23q0 -23 -3 -41t-7 -34t-5 -15q0 -4 -4 -14t-8 -14q-4 -2 -9 -17.5t-10 -34t-9.5 -35t-4.5 -20.5q0 -35 -9 -49t-23 -25 q0 -23 4 -53.5t30 -56.5q23 -18 9 -43q8 -10 13 -21.5t13 -21.5q10 -18 18.5 -34.5t10.5 -16.5q20 0 31.5 -14.5t7.5 -30.5h6q6 0 36 14t50 27q23 10 41 -0.5t18 -34.5v-4q0 -2 1 -5.5t1 -5.5v-8q0 -20 -9 -43.5t-21 -34.5q-16 -20 -39 -30l-4 -4q4 -8 13 -17.5t15 -13.5 q35 -37 40 -83t5 -99q0 -20 -16 -33q-10 -6 -27.5 -4t-35 12t-30.5 29.5t-16 48.5q-20 35 -35.5 50t-45.5 38q-20 -18 -39 -30.5t-35 -22.5l-17 -4l13 2q-33 -10 -53.5 -18.5t-35 -18t-24.5 -18.5t-24 -23q-16 -18 -37 -13l-19 -18q-16 -16 -33 -14q-23 -23 -49 -9 q-4 -4 -8 -4q-37 0 -53.5 2t-26.5 7q-18 -16 -40.5 -7t-22.5 35v8q0 4 1 8.5t1 8.5h2q-10 8 -16.5 19.5t-6.5 31.5v6zM264 346q-12 -23 -27.5 -49.5t-29.5 -53t-24.5 -48t-12.5 -33.5q0 4 6 4q8 0 12 4q10 10 17.5 16.5t17.5 10.5q10 6 21.5 10t27.5 10t33 14.5t43 20.5 l51 37q23 16 44.5 32.5t25.5 26.5q-2 0 -4 4l-5 5t-5 8q-10 14 -20.5 27.5t-12.5 35.5l-45 43q4 -2 7 8t-15 58l-37 -62q-6 -16 -20.5 -47t-32.5 -49l6 2zM377 889q25 51 29 85t4 91q-20 4 -27 4q-12 0 -25.5 -7t-24.5 -17.5t-19.5 -20.5t-8.5 -16q0 -20 14 -35 q10 -12 16.5 -24.5t10.5 -28.5q10 -10 15.5 -25.5t7.5 -32.5l8 6v21zM86 31l2 -2q0 2 -2 2z" />
<glyph unicode="'" horiz-adv-x="223" d="M27 1190q0 41 16 60.5t57 19.5q29 0 41.5 -8.5t34.5 -30.5q4 -41 0 -55.5t-12 -26.5q-2 -2 -2 -19q0 -23 4 -26q12 -23 12 -41v-10q0 -8 -1 -20.5t-1 -22.5q0 -6 2 -14.5t4 -12.5q4 -12 10.5 -28.5t6.5 -47.5q0 -16 -11.5 -27.5t-27.5 -11.5q-10 0 -35 3t-35 8 q-12 12 -21.5 33.5t-15.5 43t-9 40t-3 24.5v86q0 4 -3 28.5t-11 41.5v14v0z" />
<glyph unicode="(" horiz-adv-x="380" d="M12 248q0 8 -1 28.5t-1 42.5v72v99t2 75t5 62.5t10 64.5q0 10 3 16.5t7 14.5l4 8v43q0 31 22 66v-2q4 6 7.5 11t3.5 1v14q0 10 -1 23.5t-1 25.5q0 45 11 74t23 49q2 4 4.5 5t4.5 6q2 2 2 6v43q0 29 20 47q16 72 34.5 119t55.5 88l11 24v-2q16 35 35.5 62.5t64.5 27.5 q16 0 27.5 -11t11.5 -28q0 -16 -5 -41.5t-13.5 -51t-19.5 -49.5t-24 -38q2 2 3 1t-1 -5q-4 -23 -12 -49.5t-22 -46.5l-13 -53l-20 -78l-10 -23q-6 -8 -11.5 -16t-5.5 -6v-58q0 -10 -5 -22.5t-13 -28.5h2q-4 -10 -10.5 -16t-12.5 -2q4 -4 7.5 -13.5t1.5 -13.5l-15 -76 l-10 -45t-4 -22v-78v-23.5t-14 -33.5v-306q10 -18 20 -44.5t10 -34.5v-54l31 -49l29 -45q14 -6 23 -17.5t18 -25.5l6 -12q20 -20 11 -43t-38 -23h-100q-16 0 -26.5 10.5t-12.5 24.5q-10 4 -12 10q-29 45 -41.5 84t-12.5 45q0 8 1 16.5t1 14.5v14q0 -4 -8 13q-2 6 -5 17 t-3 15q0 20 -7 45t-18 37z" />
<glyph unicode=")" horiz-adv-x="462" d="M98 1432q10 4 19.5 6t19.5 2q16 0 27.5 -11.5t11.5 -27.5q0 -4 4 -8h-4q10 -4 18.5 -6.5t18.5 -12.5q10 -12 24.5 -40.5t18.5 -45.5q0 2 4 -2v2q10 -16 22.5 -35.5t16.5 -42.5l6 -12q0 -4 -4 -6t-8 -2q23 -4 32 -22.5t-1 -34.5q16 -23 39.5 -52.5t27.5 -44.5q0 -8 6 -32 q0 -8 1 -13.5t1 -9.5q0 -6 2 -8l5 -15q6 -10 10 -20t4 -33v-47q6 -27 10 -59.5t4 -50.5v-64q0 -10 8 -33q4 -10 6.5 -23.5t2.5 -54.5q0 -55 -17 -94v-35q0 -12 -6 -29.5t-12 -35.5q-4 -8 -8 -21q-2 -6 -5 -10v-45q0 -16 -8 -28.5t-18 -22.5l-8 -6q-2 -4 -2 -10 q-2 -4 -2 -9.5t-3 -9.5l3 2q-4 -18 -10.5 -33.5t-20.5 -25.5q-31 -61 -60.5 -104.5t-46.5 -59.5l-6 -6q-23 -20 -28 -39q-4 -10 -15.5 -18.5t-21.5 -8.5h-76q-10 0 -21.5 8.5t-15.5 18.5l-12 31l37 51q2 0 21.5 15t39.5 34q6 10 23.5 36.5t29.5 55.5l-2 -4q10 29 16.5 42 t12.5 28h-2q4 8 10 19t15.5 31.5t21.5 51.5t29 78v4q0 10 -1 21.5t-1 21.5q0 18 5 37.5t13 40.5q0 2 -1 4t-1 6t3 14.5t9 20.5l-2 4q-4 10 -7 18.5t-3 24.5q0 6 1 13t1 16q-6 55 -15.5 117.5t-15.5 103.5q0 23 -12 52.5t-25 59.5q-16 35 -27 65t-11 52q0 8 1 15.5t1 13.5v6 l-13 8l-10 8q-10 10 -10 25l-6 6q-16 14 -27.5 33.5t-11.5 25.5v13q0 -2 -29 13t-53 28q-14 6 -20.5 20.5t-0.5 28.5q-4 8 -4 22v9q0 20 16.5 43.5t41.5 23.5z" />
<glyph unicode="*" horiz-adv-x="780" d="M248 221q10 16 25.5 40t31.5 58q-10 -4 -20 0h-9q-2 0 -4 3q-4 2 -16 -3.5t-25 -11.5h-176q-23 0 -39 24.5t-16 43.5q0 27 13.5 42t35 21t47 6h51.5h23l2 5q8 4 17.5 7t15.5 3q2 0 4 -1t6 -1q-55 35 -98 75.5t-43 69.5q8 35 27.5 44t52.5 9q41 0 52 -13t21 -46q0 -2 -2 1 t-2 1q8 -8 14.5 -1t28.5 1l33 -8l33 -23q0 -2 2 -2v6q0 53 -7.5 102.5t-23.5 102.5q0 10 13.5 18.5t33 14.5t43 9t43.5 3q0 -8 4 -36.5t2 -41.5l-4 -16l4 -4q10 -18 18.5 -42t8.5 -34v-18l49 84l6 8q6 12 15.5 31.5t20.5 38t25.5 32t32.5 13.5t31 -10.5t20 -26t10 -31.5 t3 -29q0 -16 -10 -27.5t-27 -11.5l-10 -41q-8 -35 -19.5 -67.5t-46.5 -71.5l-10 -18q2 0 3 1t3 1q4 0 8.5 -1t10.5 -1q-4 0 -1 5t7 9q6 0 20.5 2t30.5 3t30.5 2t18.5 1q16 0 27.5 -11t11.5 -28q0 -23 -16.5 -59.5t-36.5 -44.5l8 2l-59 -21q6 -10 12 -18t16 -18 q18 -18 10 -42t-36 -24q-4 0 -9.5 -1t-11.5 -1h-16q-35 0 -68 12q12 -115 13 -227q0 -16 -11.5 -27.5t-27.5 -11.5q-23 0 -35 2t-31 10q-8 2 -15 7.5t-12 9.5q-2 4 -6 13t-4 13v31v70t2 57q-10 -18 -20 -37.5t-10 -29.5q0 -4 -4.5 -13.5t-8.5 -13.5q-16 -12 -16 -39 q-4 -16 -10.5 -30.5t-17.5 -26t-31.5 -17.5t-55.5 -6q-4 0 -11 1t-13 1h-23q-23 0 -33 16.5t-2 36.5q10 23 22.5 39.5t24.5 26.5q16 35 30.5 55.5t31.5 42.5v-2zM256 444l2 2z" />
<glyph unicode="+" horiz-adv-x="673" d="M281 145q-16 0 -27.5 10.5t-11.5 26.5v267q-16 0 -35 1t-35 3l-59 6q2 -2 -7.5 -4t-13.5 -4q-8 -2 -15 -5.5t-18 -3.5q-10 0 -22 9q-23 -18 -46.5 -5t-17.5 41l21 93l14 18q4 6 15.5 11t17.5 5h10q4 0 9.5 1t9.5 1q2 0 5 -1t7 -1h10q23 0 47.5 -15t46.5 -19l27 12 q4 0 12 -1t13 -1l2 -2q0 -2 2 -4v188l-11 19q-14 20 -2.5 38.5t35.5 18.5h96q10 0 32 -19.5t22 -33.5q0 -20 -17 -33q-10 -6 -14 -6q10 0 14 4q0 -10 1 -18.5t1 -16.5v-10q0 -18 -5 -25.5t-11 -15.5q-4 -8 -4 -19v-16q-4 -18 -12 -18q2 -2 10 -3h82q-2 0 3 4.5t7 6.5 q20 14 39 4q20 4 40.5 6t41.5 2q16 0 27.5 -11.5t11.5 -27.5q0 -4 -1 -20.5t-5 -34.5l-27 -45q-6 -2 -27.5 -8.5t-49 -12.5t-59.5 -11t-61 -5l-34 -12q-2 -4 -3 -7l13 -262q2 -16 -9.5 -27.5t-27.5 -11.5h-57v0z" />
<glyph unicode="," horiz-adv-x="206" d="M49 39q-10 4 -17 15.5t-7 21.5v74q0 6 10 15t24.5 18.5t25.5 15.5t15 6t17 -4q6 -2 12 -2q20 -16 32.5 -28.5t19.5 -25t9.5 -28t2.5 -37.5q0 -6 -1.5 -19.5t-1.5 -21.5v-14l-8 -41q-6 -37 -13 -78t-21.5 -77t-36 -59.5t-54.5 -23.5q-16 0 -27.5 11.5t-11.5 27.5 q0 10 1 42t6 46q0 16 4 40t8 50q6 29 11 43t3 31z" />
<glyph unicode="-" horiz-adv-x="604" d="M-2 643q0 47 29.5 74.5t70.5 27.5q45 0 86 -12l-2 2q4 0 6 -2q4 6 13.5 10.5t17.5 4.5h100q8 8 19 8h10q8 0 20.5 -1t22.5 -1h6l2 2q10 8 24.5 13t49.5 5q4 0 11.5 -1t13.5 -1h22q16 0 26.5 -11t10.5 -28q0 -16 -8 -36.5t-22.5 -38t-32 -30t-35.5 -12.5q-4 0 -20.5 -2 t-36 -4t-37 -4t-23.5 -2h-8q-12 0 -19 2q-10 -10 -23 -15t-32 -5q-29 0 -57.5 4t-50.5 8q-20 4 -40 6t-30 2t-17.5 -1t-15.5 -1h-12z" />
<glyph unicode="." horiz-adv-x="256" d="M47 168q10 10 28.5 19.5t28.5 9.5q8 0 24.5 -10.5t33 -23.5t28 -26.5t11.5 -17.5q0 -41 -12.5 -52.5t-26.5 -19.5h2q-8 -4 -8 -6q-4 -4 -11.5 -9t-15.5 -7h4q-12 -6 -27 -7q-16 0 -30.5 11.5t-23.5 26t-14 27.5t-5 19q0 10 2 26.5t8 29.5q0 6 2 8l6 8zM141 29 q-4 -4 -8 -4z" />
<glyph unicode="/" horiz-adv-x="604" d="M152 2q0 -4 1 -6t1 -6v-17q0 -14 -9.5 -36.5t-19.5 -41t-20.5 -25.5t-12.5 7q0 -37 -2 -45t-4 -4t-3 13t1 9l-12 -32q-8 -16 -25.5 -20.5t-32.5 7.5q-14 10 -22 24.5t-8 45.5q0 35 3 44t7 32q2 16 3 28.5t1 14.5l16 59l17 64q4 12 10 28.5t14 27.5t14.5 15.5t10.5 -6.5 q-4 20 3 27.5t7 11.5v29l10 26q-2 10 3.5 19.5t11.5 19.5h-2q2 0 3 9.5t3 5.5q2 29 10 43t25 30l10 17q0 4 1 9t3 13q4 20 8 45t4 33q4 10 8.5 21.5t6.5 17.5q0 10 1 18.5t1 14.5l14 29l31 67q0 4 2 14.5t4 28.5q4 16 7 32.5t5 20.5q2 6 7 13.5t9 11.5q2 2 4.5 6t4.5 2v19 v28l32 74q12 29 24.5 56.5t12.5 45.5q0 12 6 25v27q0 18 7.5 29.5t17.5 21.5q2 2 6 0v49q2 6 5 21.5t10 29.5q4 31 10 58.5t20.5 50t38 36t64.5 13.5q16 0 27.5 -11.5t11.5 -27.5q0 -10 -3.5 -37t-9.5 -39q-2 0 -2 -2q-2 -2 -2 -4q-2 -2 -2 -4v-4q-2 -8 -4 -35t-2 -33 q0 -16 -11.5 -27.5t-27.5 -11.5h-8q12 -4 9 -29.5t-9 -50.5q-8 -29 -14.5 -53t-12.5 -37l-20 -57l-131 -397q0 2 -1 -12.5t-5 -28.5v2q-2 -4 -2.5 -9.5t-0.5 -9.5q0 -6 -2 -8q-23 -49 -35 -86t-22 -72q-10 -43 -23.5 -83.5t-41.5 -90.5q0 -20 -10.5 -57t-32.5 -82v-2v2 q-4 -4 -5 -8z" />
<glyph unicode="0" horiz-adv-x="688" d="M-18 537q0 23 3 40t7 33q4 12 4 19v92l31 145q4 4 12 14.5t17.5 19.5t15.5 15.5t8 6.5l8 43q0 2 2 2q4 14 12 22q2 2 8.5 20.5t8.5 28.5q8 6 19.5 18.5t22.5 26t19 26.5t8 19q6 10 15.5 22.5t9.5 8.5q0 20 16 33q10 6 18.5 14t18.5 19q16 16 29.5 31.5t36.5 15.5 q12 0 18 -6q20 6 60 6q35 0 63.5 -10.5t38.5 -40.5q2 -33 -8 -43q0 -8 4 -13l2 -4q-2 -4 2 -8t0 -6q25 -25 41 -62l6 -14q10 -8 16.5 -20.5t14.5 -28.5l-2 2l24 -41v-20q0 2 3 -14.5t8 -33.5v3q8 -25 12 -46.5t4 -25.5v-35q10 -53 12 -126t2 -140q0 -23 -3 -32t-5 -21 q-2 -8 -4 -14.5t-2 -4.5q0 -14 4 -18q16 -18 9 -41t-34 -25l-6 -47q-2 -8 -3 -4l-1 4l-2 -10t-8 -47q-4 -20 -9 -37t-19.5 -39.5t-43 -57t-77.5 -92.5q-2 -4 -12.5 -8t-16.5 -4h-8q-25 -29 -62 -29q-18 0 -26.5 -1t-14.5 3q-4 -2 -12 -2q-35 0 -49.5 4.5t-22.5 8.5h-12l8 10 q-10 -4 -21.5 -4t-25.5 12q-8 4 -17.5 12.5t-4.5 12.5q-18 -4 -30.5 7t-12.5 32q0 10 -7.5 20t-17.5 17q-14 14 -25.5 30.5t-11.5 34.5q0 8 1 16.5t1 16.5v6q-2 -2 -4 2l-22 43q-4 14 -7 27q-4 10 -5 22t-3 21q-2 6 -4 15t-4 17l-4 21q-2 14 -4 25.5t-6 25.5t-4 27.5v36.5z M125 559q0 -43 5 -81t13 -42q16 -41 23.5 -67.5t11.5 -49.5t6 -31.5t6 -19.5q4 -16 21.5 -39.5t21.5 -27.5q2 -4 6.5 -11.5t6.5 -13.5q0 4 14 -2l-4 2l12 -8q16 2 23.5 3t15.5 5h-2q10 4 18.5 5t20.5 1l14 17l48 34l28 66l-2 -12l8 16t15 21q6 6 12 11t8 13q4 4 6 15.5 t3 24.5t1 24v10q0 20 8.5 35.5t16.5 27.5q0 2 2 4v3q-6 12 -11 24t-5 16q0 6 3 31t6 52.5t6 53t3 33.5q2 16 17.5 49t25.5 56q-10 -6 -24.5 4t-29 29.5t-25.5 45t-17 52.5h6q-16 4 -23 10q-16 16 -22 26.5t-16 33.5v18q-23 18 -33 45h2q2 0 6 2q-20 4 -25 17l-6 -5 q-12 -8 -24.5 -19t-12.5 -22q0 -35 -32 -38q6 -2 2 -7q-4 -14 -9.5 -23t-19.5 -20q-2 -23 -6 -27.5t-15 -21.5h-2q-8 -12 -23 -38.5t-44 -98.5q-2 -29 -17 -70q-8 -29 -15 -63.5t-7 -77.5zM496 1169l4 5q0 -1 -4 -5z" />
<glyph unicode="1" horiz-adv-x="311" d="M100 76q0 20 9 30l-9 21q-2 8 -3 18.5t-13 26.5q0 14 1 43t1 65.5v78.5v83v152t-2 100q0 4 -1 21.5t-5 40.5q-10 8 -10 24v107q0 4 1 11t5 11l8 6l-6 39q-4 29 -6 64t-2 59q0 78 28.5 111t46.5 37q8 2 19.5 -1t17.5 -10l23 -18q8 -33 9 -60.5t1 -52.5v-41q0 -8 -1 -16 t-1 -14v-45q0 -4 1 -8.5t1 -8.5t2 -28.5t6 -53.5q2 -14 3 -30.5t3 -29.5t3 -21.5t1 -6.5v-84q0 -47 1 -108.5t1 -122.5q0 -63 -1 -123.5t-1 -108.5v-73q14 -33 22.5 -73t8.5 -71q0 -16 -11 -27.5t-28 -11.5q-2 0 -6 1.5t-6 1.5q-16 4 -34.5 12t-36 19.5t-29 26.5t-11.5 38z " />
<glyph unicode="2" horiz-adv-x="661" d="M182 51q-23 6 -40 27.5t-29.5 47.5t-19.5 51.5t-9 43.5q-33 -20 -28 9.5t63 117.5l4 6l10 11q14 14 29 8q0 10 -2 19t-4 14q27 37 60.5 99t59.5 130v-4q12 47 31 87t35 75l23 53q12 41 21 74.5t9 44.5v63q0 4 4 13.5t9 13.5h2q-4 10 -17.5 11t-30.5 1h-12q-29 0 -50 -2 t-39.5 -8t-37 -16.5t-43.5 -26.5q-10 -6 -19 -18.5t-18 -24.5q-16 -23 -29.5 -39.5t-33.5 -16.5q-4 0 -7 1.5t-7 1.5l-29 -13q-25 -10 -42.5 7.5t-8.5 41.5q4 10 7 25.5t7 32.5q6 29 14.5 55.5t26.5 34.5l125 90h285q8 0 23 -13.5t31.5 -34t32 -46t21.5 -49.5q2 -23 -4 -34 t-14 -22v-41q-2 -27 -12.5 -61.5t-23.5 -72.5t-30.5 -78t-36.5 -76l-6 -19q-10 -29 -26.5 -76t-38.5 -88l-23 33q4 -20 3 -49t-11 -51q-6 -29 -21 -58q-4 -8 -14 -15t-20 -7q2 -2 0 -13.5t-8.5 -28t-13.5 -35.5t-13 -34q-10 -20 -10 -25t-3 -10v-4q12 12 23 15 q10 0 39 -10.5t57 -26.5q4 8 14.5 13t16.5 5h121q6 0 17 -6t16 -14v-2l2 2q4 8 14 14t18 6q25 0 37.5 -13t18.5 -31.5t7 -40t1 -36.5q0 -16 -11.5 -27.5t-27.5 -11.5q-4 0 -8 -1t-15 -1q-8 -2 -19 -2h-15t-7 -2q-10 -6 -25 -12t-36 -6q-35 0 -50 7t-20 13q-68 2 -127 10.5 t-98 26.5l6 -2v0z" />
<glyph unicode="3" horiz-adv-x="696" d="M209 164q4 0 7 1t5 1q25 0 41.5 -9.5t32.5 -19.5q4 -4 8 -6t12 -2q2 0 28 3t48 9l68 107q4 4 7 9t5 9l25 23l10 10q6 16 8 35.5t2 58.5q0 59 -8 75.5t-27 16.5q-25 0 -52.5 -10t-49.5 -33q-4 -4 -14.5 -8t-14.5 -4q-12 0 -26.5 -3t-24.5 -7q-12 -4 -20.5 -5t-14.5 -1 q-16 0 -27.5 10t-11.5 27v86q0 8 7.5 19t15.5 15q20 10 37.5 25.5t38.5 36.5q35 51 56 92t33.5 79t16.5 74.5t4 77.5q0 6 -1 20.5t-1 31.5v30q-16 16 -24 35q-10 16 -21.5 29.5t-28.5 21.5q-8 14 -46 14.5t-64 -1.5h-10q-10 -6 -27.5 -19.5t-36 -29t-36 -31t-27.5 -23.5 q-8 -29 -20.5 -55.5t-41.5 -32.5q-49 0 -57 26.5t-8 74.5v12q0 51 27.5 90t68.5 64.5t89 39t89 13.5q10 0 27.5 -1t31.5 -1h17q4 0 30.5 -10.5t58.5 -26t59.5 -34.5t37.5 -40q23 -53 31 -87t14 -81q4 -16 6 -36.5t7 -43.5q4 -45 -3.5 -65.5t-17.5 -40.5q-4 -8 -8 -18.5 t-8 -37.5l-4 -8q-4 -12 -5 -18l-14 -45l2 4q-8 -14 -24 -29q-4 -4 -4 4q-2 -4 -6.5 -12t-4.5 -10v-2q0 -2 -1 -3t-1 -3q10 4 18.5 6t14.5 2q29 -10 53.5 -23.5t44 -37t31.5 -59.5t18 -89q2 -68 -10 -109t-24 -63q-4 -6 -8.5 -15.5t-8.5 -15.5q-10 -12 -20 -29.5t-19 -37.5 q-10 -6 -23.5 -21.5t-25.5 -31t-21.5 -29t-11.5 -15.5q-4 -4 -12 -11t-14 -9l-49 -15q-29 -8 -53.5 -14t-51.5 -6q-4 0 -15 1t-20 1h-8q-29 0 -41 18.5t-26 40.5q-8 12 -12.5 21.5t-6.5 9.5q-14 6 -19 18.5t-2 24.5t12 21.5t26 9.5h14z" />
<glyph unicode="4" horiz-adv-x="696" d="M180 905q-2 -4 -2 -8v-2q0 -6 1 -12t1 -13v-22l-4 -17q-2 -6 -4 -14t-4 -14q-6 -16 -6 -23v-67q0 -16 -4 -25.5t-8 -17.5q-2 -2 -3 -4q0 -2 -2 -2v-27q2 -10 5.5 -33.5t7.5 -30.5h6q10 4 16 6.5t13 6.5l-15 -25q10 12 26.5 29.5t20.5 17.5h13q8 0 17 -1t19 -1q0 2 2 2 l5 2q12 6 33.5 13.5t56.5 7.5q6 0 18 -4l60 4q8 0 15 1t13 1q8 2 21 -2q-6 20 -9.5 45.5t-3.5 32.5v14q0 6 5.5 15.5t11.5 17.5v125q-10 10 -14.5 28.5t-4.5 34.5q0 8 1 17.5t1 17.5v2q-6 18 -14 44t-8 32v112q0 4 4 13.5t8 13.5q23 23 44.5 37t68.5 14q16 0 26.5 -10 t10.5 -27v-82t2 -81q0 -37 1 -73t1 -71q0 -43 -1 -89t-1 -85v-67q27 -23 50 -55t23 -46q0 -35 -17 -48t-40 -21v-463q0 -18 -13.5 -30.5t-31.5 -8.5h-4q-2 0 -4 1t0 1q-4 0 -14.5 4t-14.5 8t-13 20.5t-19.5 37t-18.5 39t-8 28.5v348l-152 4q-29 -12 -51 -16l4 2l-119 -31 l9 6q-16 -10 -33 -17t-19 -7h-2q-10 -18 -33 -19h-16q-10 0 -20.5 7.5t-14.5 13.5l-22 43q0 2 -4 14t-9 23l-2 2q-10 10 -23 30.5t-13 36.5q0 4 4 13.5t6 13.5l18 16l-18 27l22 55q-2 6 0 28.5t5.5 54.5t7.5 68t6 66v31q-6 4 -6 25q0 -2 1 6t3 18q-4 8 -4 43v31q0 14 7 23.5 t17 19.5q-8 12 -8 39q0 16 2 24q-14 2 -24.5 12.5t-10.5 26.5q0 23 13.5 35t34 18.5t44 7.5t41.5 1h9q16 0 27 -11.5t11 -27.5v-240v-2q4 -4 9 -18q10 -14 10 -27q0 -2 -1 -5t-1 -7q-2 -4 -2 -8zM150 428q-4 0 -5 2q0 -2 -2 -4z" />
<glyph unicode="5" horiz-adv-x="675" d="M88 1100q2 14 12.5 23.5t22.5 9.5q12 23 43 16q10 16 28.5 17t28.5 -13q14 10 28.5 17.5t35.5 7.5q16 0 24 2t17 6q10 4 21 7t32 3h63q4 0 11 2q4 2 10 3t14 5q20 6 35 6q82 0 113.5 -10t31.5 -67q0 -29 -17 -54.5t-58 -25.5q-10 0 -18.5 4t-18.5 8q-4 -4 -17 -8 q-6 -2 -10 -4q-6 0 -14 2q-6 2 -14.5 3t-12.5 5q-6 2 -13 4t-9 2l-6 -6q-2 -2 -4.5 -3t-4.5 -3q-4 -2 -6 -4h-37q-4 0 -10 -4t-12 -9q-12 -10 -23.5 -15t-29.5 -5q-8 0 -17.5 1t-19.5 1q-47 -12 -75 -26.5t-42 -35t-18.5 -52t-4.5 -79.5v-55q27 -10 61 -24.5t56 -32.5 q6 12 12 18q18 18 36 23.5t18 -23.5l6 -6q35 -6 70.5 -22.5t52.5 -26.5q0 -2 4 -2q2 0 2 -2v-2h-4q2 -4 12 -9t21 -16q20 -16 39.5 -34.5t19.5 -36.5q10 -20 14 -36t4 -55q0 -61 -3 -101t-12 -69.5t-23.5 -57.5t-38.5 -64q-41 -41 -62 -74q-16 -23 -34.5 -44.5t-49.5 -31.5 q-10 -18 -27.5 -26.5t-39.5 -16.5q-23 -8 -21 -6q-4 -4 -13 -8t-14 -4q-61 0 -98 11t-56.5 34.5t-24.5 59.5t-5 85l37 39q43 0 55.5 -19.5t18.5 -45.5h-2q2 -6 4 -15.5t10 -17.5q2 -2 8 -2t15 -2q8 -2 20 -2q4 0 28.5 15t47.5 38q39 27 50 44t19 36v-2l11 18q2 4 8 13.5 t10 9.5q18 8 27.5 59t19.5 104l4 11q0 20 -2 35.5t-9 30t-21.5 28.5t-38.5 33q-8 4 -18.5 5t-20.5 3q-20 2 -39 4t-29 12l-14 -16q-55 -2 -85 9t-46 22h-2q-23 0 -34 14t-18 31h-2l-12 4t-10 4l-12 4l-11 27q-10 18 -16 31.5t-10 29.5t-6 37.5t-2 56.5v23.5t2 27.5t2 23.5 v13.5q0 20 16 31v25q10 27 26.5 51t49.5 41q2 0 4 1t6 1l-2 -13q0 2 1 3.5t1 3.5v6zM557 561l-4 6v13zM119 625l10 -4q-2 0 -2 1t-2 1t-2 2h-4z" />
<glyph unicode="6" horiz-adv-x="794" d="M199 358q-14 -2 -19 -6v62q0 72 43 102v16q0 41 10.5 58.5t22.5 27.5q2 4 2 31q6 6 22.5 24.5t38 40t41 40t31.5 26.5q33 16 72 29.5t74 26.5l32 10q14 0 33 -7.5t34 -17.5t25.5 -19t10.5 -14v-16q2 10 8 10t10 -2q4 0 12.5 -7t12.5 -11q2 -12 6 -21l4 -16t4 -14 q0 -6 2 -11l6 -8q4 -4 8.5 -13t4.5 -13q0 -37 -2.5 -61.5t-5.5 -44t-10 -38t-15 -43.5v2l-6 -22q-6 -20 -11.5 -40t-13.5 -36q12 -16 12 -35q0 -16 -13 -33.5t-38 -17.5h-12q-8 -20 -17.5 -35.5t-13.5 -25.5q-27 -41 -41 -50.5t-35 -17.5q-20 -6 -49 -23l-16 -18 q-16 -16 -31.5 -30.5t-46.5 -18.5q-16 -20 -55 -27q-10 -2 -19.5 -4t-9.5 -12q0 -16 -11 -27.5t-28 -11.5h-26q-6 0 -16.5 6t-14.5 10l-86 86q-10 4 -25.5 12.5t-19.5 16.5l-11 14q-6 8 -11 14.5t-11 17.5t-16.5 31.5t-28.5 57.5v53v10.5t2 6.5q-6 4 -12 14t-6 19v237 q0 4 4 13.5t8 13.5t12 49t19 94l18 92q2 6 5 14.5t7 16.5v-2q8 16 17.5 42t15.5 58q14 23 13 24t1 7q4 16 11.5 36.5t25.5 45.5q2 16 8.5 39.5t12.5 32.5l20 24v-2q0 -2 1 -4t1 -4q0 8 6 18q4 6 7.5 14.5t13.5 18.5q14 14 30.5 13t28.5 -15q8 -12 15.5 -27.5t11.5 -31 t7 -27.5t3 -16q0 -8 -4 -32t-25 -42q-6 -10 -18 -12q-4 -10 -9 -20.5t-9 -20.5t-8.5 -19.5t-4.5 -13.5q0 -8 1 -18.5t1 -16.5v-10l-55 -35q29 -14 33 -18q-2 -10 -4 -25.5t-11 -32.5l-28 -22q6 2 6 -14.5t-4 -32.5v-27q0 -18 -5 -26.5t-9 -16.5q-2 -2 -3 -4v-78 q0 -16 -6 -29.5t-12 -27.5q-10 -20 -10 -27q-4 -10 1 -25.5t11 -31.5q4 -18 10 -38t6 -42q0 -4 -3 -11.5t-7 -13.5l10 -18q0 -4 -1 -9t-1 -10q6 -6 12.5 -14t6.5 -22v36q0 25 16 31v2zM319 207q12 6 29 15t32 18.5t26.5 16.5t15.5 11q6 6 18 11q-4 2 0 4t9 6l18 22 q6 8 15.5 15.5t19.5 13.5v20q0 35 20.5 56.5t42.5 32.5q2 4 3 10t5 12v-2q2 4 4.5 7t2.5 1v6q0 6 -1 13.5t-1 15.5q0 16 1 24.5t11 18.5q-4 18 -7 37.5t-3 25.5v48q0 8 -25 22l-6 -6q-10 -4 -21.5 -13.5t-21.5 -13.5l2 2q-37 -23 -56.5 -35t-30.5 -23t-16.5 -23.5 t-11.5 -32.5q-47 -82 -60.5 -151.5t-13.5 -143.5v-41z" />
<glyph unicode="7" horiz-adv-x="692" d="M-25 1139q0 16 35 31.5t89.5 26.5t118 17.5t120.5 6.5q8 0 18 -7q14 23 35 23q86 0 141.5 -33t96.5 -110q12 -41 18 -83t6 -77q0 -20 -7 -35.5t-15 -32.5q-8 -16 -8 -26q-4 -10 -9 -41q-4 -18 -6 -37t-8 -31l-43 -20q20 -8 23 -9q0 -6 -2.5 -14t-2.5 -12t-3 -14.5 t-7 -14.5l-18 -26q-16 -16 -21.5 -41t-9.5 -54q-2 -10 -1 -15t-5 -30q-4 -43 -24.5 -79.5t-32.5 -55.5l2 2l-4 -8q-4 -8 -5.5 -16.5t-1.5 -16.5q-2 -23 -7 -40t-21 -25q-8 -35 -23.5 -84t-27.5 -74l16 14l-6 -41q-10 -41 -24.5 -69.5t-49.5 -28.5q-14 0 -27.5 10.5 t-23.5 24.5t-16.5 30.5t-6.5 28.5q0 2 3 23.5t8 44.5q-6 14 -5 29q4 16 9.5 29.5t13.5 29.5v-2q8 16 14 33.5t6 40.5q0 16 19 38l4 5l14 57q4 37 13.5 79t31.5 77q8 12 29 16q-12 2 -8 25q2 18 3 35.5t15 35.5l2 2l15 33q0 23 8 39q6 12 15 17t20 5q-12 18 -13 48 q4 8 15.5 34.5t23 57t20.5 60.5t13 44q0 4 1 14.5t5 20.5q-2 12 -8 24.5t-20.5 23.5t-41 19.5t-67.5 14.5q-6 0 -14.5 -3t-16.5 -7t-14 -6.5t-8 4.5q-29 -16 -62.5 -13.5t-56.5 -3.5l2 2l-14 -4l-47 -20q-68 0 -123.5 17.5t-55.5 66.5z" />
<glyph unicode="8" horiz-adv-x="763" d="M86 178q0 -14 -4 -9t-8 9q-14 14 -27.5 29.5t-13.5 34.5q0 12 1 55t1 74v28q0 20 15.5 57.5t37 74t45 63.5t37.5 27h6l21 26l4 4q4 8 16 25q4 4 6 8t6 6l-10 6h-33l-26 17q-16 10 -35 24.5t-23 32.5q-10 10 -22 29q-12 16 -26.5 31.5t-22.5 15.5q-12 0 -23.5 9t-15.5 24 l-19 84q-4 18 8.5 32.5t30.5 14.5v20q2 -2 4 -2h4q-29 10 -28.5 37t28.5 37q10 4 16.5 10t10.5 10q10 14 16.5 22.5t32.5 8.5v-2q6 12 15.5 23.5t31.5 15.5q6 0 17.5 -1t19.5 -1q4 0 5 1t5 1q12 2 37 10t51.5 17.5t48 16.5t27.5 9q27 2 36 -4t20 -14h114q10 0 21.5 -8.5 t15.5 -16.5q-2 4 8.5 -2t22.5 -14l-2 2q33 -16 62.5 -39t29.5 -55q0 -16 -11.5 -27.5t-27.5 -11.5q-8 0 -27.5 1t-40.5 3q-16 2 -31.5 2h-19.5q-16 0 -39 18h-59q-29 0 -54.5 -5t-60.5 -15l-53 -13h4q-49 -16 -85 -33.5t-36 -31.5h4q10 -10 13.5 -16.5t3.5 -22.5 q0 -4 -1 -11t-1 -11v-3l12 -4q20 -10 42 -26.5t44 -32.5q23 -16 46.5 -32.5t39.5 -24.5l8 12l13 20q10 10 34.5 22.5t53 23t55.5 17.5t43 7t26.5 -11.5t10.5 -27.5q0 -4 -1 -21.5t-5 -31.5q-2 -27 -28 -43.5t-54 -30.5h2l-19 -10q39 -18 75 -45t65 -49l22 -19q4 -4 7 -14 t3 -14q0 -8 15 -37l-2 2q10 -23 17 -42.5t7 -41.5q0 -4 2 -10q0 -4 4 -25q2 -8 3 -17.5t4 -17.5q2 -8 2 -18q-12 -100 -34 -149.5t-50 -73.5q-6 -6 -14.5 -11.5t-16.5 -9.5q-20 -10 -44 -28.5t-38 -39.5q-6 -2 -17.5 -7t-15.5 -7q-33 -35 -64.5 -42t-97.5 -7q-31 0 -50 1 t-33.5 6t-29 15.5t-34.5 28.5l-2 4l-8 6q-18 12 -25.5 26.5t-9.5 31.5l2 -4q-2 6 -6 15t-19 19zM248 164q12 -12 24.5 -22.5t22.5 -10.5q14 -4 44 6t65.5 29.5t69.5 47.5t56 58q4 4 8.5 27t8.5 51.5t7 59t3 49.5q0 25 -5 34t-15 13q-20 10 -43 33q-10 14 -19.5 18t-17.5 6 q-12 4 -25.5 8t-30.5 21q-6 6 -9 12t-7 8q-14 -4 -23 -12l-4 -2q-4 -27 -21.5 -41t-37.5 -25q-10 -4 -27 -18q0 -2 -2 -2q-2 -2 -4 -2t-4 -2q-8 -6 -20.5 -12.5t-10.5 -1.5v2l-14 -39q-10 -23 -21.5 -51.5t-11.5 -40.5v-148q0 4 11 0q6 -6 13 -14t13 -15.5t10.5 -11.5t1.5 2 z" />
<glyph unicode="9" horiz-adv-x="786" d="M641 -45q-14 0 -40 18.5t-26 40.5l7 750q-6 -4 -7 -10q-10 -14 -29.5 -40t-70.5 -61q-23 -29 -46 -42t-44 -21h-2q-8 -4 -10 -4q-10 -10 -29.5 -28.5t-24.5 -22.5l-34 -5q8 -4 10 -4t4 2q-4 -10 -9 -18t-16 -18q-12 -12 -28.5 -11.5t-26.5 11.5q-14 -6 -32.5 -10.5 t-57.5 -4.5q-10 0 -23.5 1t-23.5 3q-14 8 -24.5 10.5t-20.5 7.5t-20.5 20.5t-24.5 49.5q-4 12 -10.5 27.5t12.5 19.5q-12 2 -22.5 14.5t-8.5 28.5l10 64q2 4 3 10t6 10q-14 16 -5 40t35 24h17q6 0 12 2v43q0 6 13.5 28.5t30.5 49t34.5 49t27.5 27.5q6 4 32 17t36 19l12 21 q0 6 2 8l4 4q10 12 24.5 24.5t29 23t25 16.5t12.5 6h20q4 10 13.5 19.5t29.5 11.5q29 27 63.5 39t69.5 12q2 0 4 2l13 4q8 2 17 3t17 3t19 4q10 0 32.5 -12t46 -28.5t41 -33t17.5 -24.5l-16 -82q-6 -31 -39 -31q-29 0 -39 14.5t-21 30.5q-4 8 -8 15.5t-6 7.5q-10 0 -25.5 -3 t-25.5 -7h-2l-21 -7q-20 -23 -47.5 -37t-52.5 -24l-31 -12q-2 -4 -12 -8.5t-14 -4.5t-6.5 -7t-6.5 -13q-14 -27 -28 -37l-27 -37q-10 -23 -23.5 -30t-25.5 -11q-29 -6 -31 -16q-12 -25 -28.5 -53.5t-36.5 -49.5q0 -4 1 -9t1 -9q0 -10 -5.5 -18.5t-9.5 -16.5q-6 -6 -6 -2 q0 -25 4 -36t31 -11l25 10l71 33l6 2l37 29q4 4 6 7t7 5q14 33 38.5 52.5t57.5 41.5v-2q10 8 21.5 15.5t21.5 17.5q6 18 25.5 35.5t39.5 32.5q16 14 36 28.5t30 28.5q8 10 22.5 14t26.5 -4q23 -12 41 -52t29 -93v-559q0 -18 -8.5 -72.5t-20.5 -111t-23.5 -100.5t-17.5 -44z " />
<glyph unicode=":" horiz-adv-x="256" d="M47 672q12 10 29.5 20t27.5 10q8 0 24.5 -11t33 -24.5t28 -26.5t11.5 -17q0 -41 -30 -71t-65 -30q-16 0 -29.5 11.5t-22.5 26.5t-15 28.5t-6 19.5q0 16 4 38t14 32zM47 168q10 10 28.5 19.5t28.5 9.5q8 0 24.5 -10.5t33 -23.5t28 -26.5t11.5 -17.5q0 -41 -12.5 -52.5 t-26.5 -19.5h2q-8 -4 -8 -6q-4 -4 -11.5 -9t-15.5 -7h4q-12 -6 -27 -7q-16 0 -30.5 11.5t-23.5 26t-14 27.5t-5 19q0 10 2 26.5t8 29.5q0 6 2 8l6 8zM141 29q-4 -4 -8 -4z" />
<glyph unicode=";" horiz-adv-x="206" d="M49 39q-8 4 -16 15.5t-8 21.5v74q0 6 10 15t24.5 18.5t25.5 15.5t15 6t17 -4q6 -2 12 -2q20 -16 32.5 -28.5t19.5 -25t9.5 -28t2.5 -37.5q0 -6 -1.5 -19.5t-1.5 -21.5v-14l-8 -41q-6 -37 -13 -78t-21.5 -77t-36 -59.5t-54.5 -23.5q-16 0 -27.5 11.5t-11.5 27.5q0 10 1 42 t6 46q0 16 4 40t10 50q4 29 9 43t3 31zM47 672q12 10 29.5 20t27.5 10q8 0 24.5 -11t33 -24.5t28 -26.5t11.5 -17q0 -41 -30 -71t-65 -30q-16 0 -29.5 11.5t-22.5 26.5t-15 28.5t-6 19.5q0 16 4 38t14 32z" />
<glyph unicode="&#x3c;" horiz-adv-x="686" d="M117 225q-20 4 -37 21.5t-27 36.5q-33 25 -51 64.5t-18 60.5q0 25 10 39t20 24v-2q0 2 2 4q12 16 27 45l29 57q8 10 25.5 24.5t33.5 25.5l2 4q6 12 11.5 25.5t15.5 23.5q10 12 27.5 28.5t36 35t38 34t31.5 25.5v30q0 16 11 27.5t28 11.5q14 0 35 17q35 6 53 -1 t25.5 -21.5t8.5 -33t-1 -34.5v-17q-2 -2 -13.5 -14t-26 -25.5t-27.5 -23.5t-19 -10h-11q-2 0 -14 -28t-23 -44l-6 -12q-10 -25 -37 -21q0 -4 -1 -9t-5 -15q-4 -8 -15 -15.5t-19 -7.5h-7q8 -4 9 -4q-10 -12 -14.5 -23.5t-24.5 -15.5q-16 -39 -45 -68v-90q2 10 16 7t31 -9 q35 -12 68.5 -29.5t33.5 -43.5q0 -8 7 -12.5t14.5 -6.5t11.5 -2t-2 -2q41 -8 94 -35.5t111 -56.5q4 -4 11 -12.5t9 -18.5v6l2 2l-6 6l20 -16q35 -23 48.5 -37t13.5 -47q0 -16 -11.5 -27.5t-27.5 -11.5q-12 0 -29 4h2q-10 2 -17 3t-11 1q-16 4 -42 14.5t-54.5 24t-55 28.5 t-41.5 28z" />
<glyph unicode="=" horiz-adv-x="749" d="M49 381q-23 0 -33 18l-22 41q-4 6 -4 19.5t4 21.5l10 17q4 6 15.5 11t17.5 5h426q10 2 24.5 6t29.5 7l27.5 5.5t18.5 2.5q20 0 39 -19q-2 -2 -4 -2h18q8 0 15.5 1t13.5 1q27 0 53.5 -16.5t26.5 -59.5q0 -6 -5 -21.5t-13.5 -32.5t-20.5 -29.5t-24 -12.5h-134l-36 25 q0 -2 2 -4q-8 4 -16.5 8t-12.5 8h-416zM29 633q0 51 28.5 76.5t71.5 25.5q27 0 46.5 -3t41.5 -9q12 16 35 16l211 -18q8 8 16 8h10q8 0 20.5 -1t22.5 -1h7l2 2q10 8 23.5 12t49.5 4h11q29 0 54.5 -7t25.5 -52q0 -33 -31 -54.5t-71 -33.5t-75.5 -16t-46.5 -4q-18 0 -26 12 q-31 -6 -74 -6q-10 -2 -20.5 -2h-18.5h-16q-6 -2 -15 -2h-22q-35 0 -59.5 2t-51.5 6q-23 4 -40 6t-27 2h-33z" />
<glyph unicode="&#x3e;" horiz-adv-x="780" d="M446 414h8.5t12.5 4q4 10 13 23.5t38 29.5h2q-2 0 -1 -1t3 -1l2 2h-4q2 0 2 1t2 1q4 6 11.5 14.5t13.5 12.5q16 10 39.5 21t38.5 20q0 2 1 1t1 1l-160 80q-6 0 -14.5 2t-12.5 4q-6 2 -11 4t-11 6q-8 4 -21.5 9t-23.5 11l2 -2q-20 10 -15 11l-24 10q-6 -4 -16.5 -1 t-18.5 6t-10 4t10 -5q-16 6 -36.5 14.5t-33.5 18.5q-23 4 -50 9t-52 9q-29 6 -59 10q-10 0 -20.5 6.5t-14.5 14.5q-10 23 -15.5 56.5t-5.5 35.5q0 16 10.5 27.5t26.5 11.5q10 0 39 -24.5t51 -49.5q0 16 7.5 29.5t25.5 13.5q14 0 39 -10t53 -20q12 -6 24.5 -11.5t10.5 -5.5 q4 0 15.5 1t17.5 1q31 -16 78 -26q18 -4 39.5 -10.5t50.5 -18.5l10 -10q18 -4 44 -15.5t52.5 -26t50 -27.5t33.5 -23q41 -31 52.5 -53.5t11.5 -76.5q0 -4 -2 -28.5t-4 -32.5q-2 -6 -9.5 -14t-13.5 -13l-14 -7t-20.5 -12t-20.5 -13t-12 -9v-6q0 -4 -2.5 -6t-4.5 -6l-18 -29 l-12 -4q-12 -4 -15 -4q-14 0 -14 -2q-6 -4 -20.5 -14t-30 -23.5t-28.5 -25t-15 -15.5l-43 -24l-10 -8q4 2 -1.5 -5.5t-9.5 -11.5q-18 -23 -45.5 -48.5t-52.5 -31.5l-123 -123q-2 -2 -12 -6t-15 -4h-40q-16 0 -26.5 11.5t-10.5 27.5q0 41 15 61.5t38 43.5l8 8q0 2 2 4t2 4 l10 18q4 6 26 24.5t36 29.5l-2 -5l6 5q10 8 33.5 31.5t50.5 49t49.5 49t32.5 33.5z" />
<glyph unicode="?" horiz-adv-x="550" d="M39 369q0 2 7 8t7 10t-1 9t-1 10q0 25 8.5 35t24.5 14q-2 4 -2 12v8q0 23 16.5 34t36.5 3l43 -23q-10 18 -1 28.5t20 19.5l22 16l-2 -2q31 23 56.5 42t48 47t44 72t48.5 115v4q-2 18 -4 39t-9 41l-47 23h2l-8 4q-20 -20 -48 -25.5t-71 -9.5q-23 0 -38 -12t-35 -31 l-19 -18q-29 -2 -51.5 3t-42.5 9q-8 2 -16.5 4t-10.5 2q-16 0 -27.5 11.5t-11.5 27.5v51q0 39 39 39q12 0 21.5 3t21.5 7l23 9q57 10 112.5 24.5t106.5 48.5q29 4 41 -1t23 -15q-8 4 -11 4q4 -4 11 -4q2 -4 4 -5t4 -3l-6 8q6 -2 18 -2q18 -4 43 -10t33 -11h2 q12 -12 25.5 -33.5t24.5 -47t17.5 -55t6.5 -56.5q0 -4 -6.5 -16.5t-12.5 -22.5q-4 -63 -30.5 -132t-81.5 -126l-19.5 -19.5t-28 -27.5t-27 -26.5t-16.5 -18.5q-4 -4 -14 -8t-14 -4q-6 0 -17.5 -8.5t-25 -19.5t-25.5 -24.5t-16 -23.5q0 -12 3 -24.5t7 -16.5q8 -10 15.5 -16.5 t7.5 -28.5q0 -16 -12.5 -39t-41.5 -23q-37 0 -58.5 3t-31.5 10.5t-14 18.5t-6 28v14q-14 16 -23.5 38t-9.5 32zM203 170q4 0 9 -1t13 -1q27 0 37 -20.5t-6 -41.5q-25 -35 -56.5 -57t-66.5 -22q-16 0 -27.5 11t-11.5 28q0 59 36 81.5t73 22.5z" />
<glyph unicode="@" horiz-adv-x="1335" d="M164 -119l-10 19q-2 0 -13.5 17t-25.5 40q-16 25 -39 55l-17 58q-31 31 -42 50t-11 28.5t5 10.5t3 -5q-6 27 -6 59v51q0 -2 -4 10q-10 16 -10 43q0 6 2 28l4 44q2 14 3 29.5t3 29t2 20.5t0 3v6q0 8 2 15q2 23 7.5 59.5t5.5 46.5q10 16 13 31.5t7 27.5q8 35 23.5 85.5 t54.5 127.5l29 17l4 2l6 10l4 4q12 29 33.5 54.5t44.5 46.5l12 12l20 28l-2 -2l13 19q16 16 27.5 19t21.5 7q4 0 4 -4q0 23 19.5 33t35.5 0q8 16 20.5 26.5t37.5 10.5q2 0 6 2l12 6q16 8 35.5 14.5t36.5 6.5q4 0 10 -2t10 -4l6 2l-2 -2q16 8 36 16t24 8q16 0 32.5 -9 t28.5 -20q4 -4 2 -4q8 0 14.5 1t12.5 1h8q14 0 42 -15t50 -32h6l74 -20q14 -16 25.5 -20.5t27.5 -10.5q10 -4 17.5 -14t7.5 -21q0 -2 -1 -4t-1 -4h6l-2 2q23 -10 36 -21.5t25 -25.5q8 -12 13 -12q10 -4 18 -13.5t10 -19.5q0 6 -2 8l31 -26l2 -5q2 -4 3 -10t-1 -4l45 -57.5 t43 -81.5q2 -6 -2 -14q10 -4 20.5 -15.5t10.5 -27.5q14 -27 14 -56v-31q0 -20 14 -55q4 -16 10.5 -33.5t6.5 -23.5q0 -4 -6 -14.5t-15 -16.5q6 -18 6 -43q0 -31 -7 -45t-17 -33q-8 -10 -20.5 -29.5t-22.5 -39.5q-4 -6 -12.5 -12.5t-18.5 -8.5q4 -4 1 -7t-5 -7l-8 -10 q-8 -14 -23 -21l11 -24l-21 14q10 -18 9 -48t-11 -52q-2 0 -20.5 -15.5t-41 -35t-44 -39t-31.5 -29.5l-17 -6h5q-10 -6 -18.5 -11.5t-14.5 -11.5q-6 -4 -22.5 -16.5t-35 -26.5t-36 -27.5t-25.5 -15.5l-10 -12q-8 -4 -24.5 -15.5t-36 -22.5t-40 -19.5t-36.5 -8.5h-33 q-4 0 -14.5 -6t-16.5 -10q-4 -4 -13 -8t-14 -4q-6 0 -18 -1t-25 -1h-41q-61 0 -91.5 8t-63.5 24q-18 10 -50 24.5t-100 37.5zM418 967q-41 -41 -79 -82t-58 -70v-2q-10 -4 -19 -8q-8 -4 -18.5 -9t-20.5 -10q12 -12 13 -22l2 -16q-6 -10 -11 -19l-7 -14l-5 -10l-6 -11 q-6 -12 -13.5 -24.5l-13.5 -22.5l-6 -10v-47q0 -8 -7 -26.5t-13 -33.5q-8 -39 -10.5 -84t-2.5 -75v-43q2 -10 0 -20.5t-10 -18.5q2 -4 5 -9.5t5 -11.5v2q10 -23 13.5 -43t3.5 -26v-25q0 -8 -1 -15t-1 -11q2 0 4 -3q4 -4 6 -4q12 -12 24.5 -27.5t12.5 -33.5v-14 q10 -27 35.5 -56.5t54.5 -56.5q0 4 12 2l12 -6q27 -4 32 -8t16 -9q16 -8 33.5 -12t50.5 -4q8 0 41.5 1t71.5 5t70 10.5t34 16.5t11 18t19 11q8 2 27.5 13t44.5 27.5t50.5 37t45.5 38.5q59 29 88 63t39 54l13 4h-9q-16 8 -32.5 14.5t-20.5 6.5q-25 0 -35 20q-2 10 -20.5 14 t-30.5 21q-25 14 -24 47v10l-7 12q-8 14 -15 30t-5 22q-12 -23 -26.5 -37.5t-35.5 -30.5l-20 -20l-4 -11l-12 -18q-51 -51 -172 -80q-4 -2 -13 -2q-14 -18 -41 -10q-6 -10 -18 -14.5t-23 -0.5q-16 4 -32.5 19.5t-28.5 32.5h-39q-16 0 -26.5 11t-10.5 28q0 14 -2 14 q-20 0 -31.5 13.5t-7.5 29.5q-16 18 -23.5 40.5t-7.5 35.5q0 10 6.5 31.5t15.5 46t22.5 48t25.5 40.5l-24 -7q0 20 9 35t25 31q10 10 21.5 24.5t17.5 38.5q4 12 15.5 19.5t23.5 7.5l-10 -8l18 8q12 6 15.5 7t5.5 3t5 5.5t13 13.5q18 16 34.5 26.5t33.5 10.5h8q10 10 20.5 15 t24.5 11l29 17q23 8 45 -9q23 10 49.5 10.5t50.5 0.5h19q20 0 27 -4.5t10.5 -9.5t4.5 -10t7 -7q10 -10 20 -21.5t15 -21.5l36 -23q18 -14 37 -27.5t31 -39.5q4 -25 -3 -43.5t-17 -32.5q-12 -16 -13 -20q0 -6 8.5 -36t18.5 -65q6 -6 11 -14t9 -16q2 -10 11 -17q2 -4 11 -13 t19 -20q10 -12 25 -26l6 -11l47 23q0 16 10.5 26.5t24.5 12.5q-2 2 -2 14v39q0 39 -1 64.5t-5 48t-12.5 46t-24.5 56.5l18 -12q-12 10 -28.5 30.5t-28.5 55.5q-14 4 -16 14.5t-2 26.5q-2 4 -13.5 17.5t-46.5 37.5q-2 2 -6 4t-12 11l-15 8l-4 4q-14 8 -35 33l-15 15t-7 9 l-8 4t-8 6q-20 12 -46 28.5t-30 16.5h-31q-16 8 -41.5 16.5t-38.5 12.5h-51q2 0 -9 3t-18 5q-2 0 -10 4q-6 -6 -12 -11t-12 -9q-8 -6 -13 -8h-8q-4 0 -6 1t-6 1l-12 -10q-12 -14 -26.5 -25.5t-43.5 -11.5q-2 0 -2 -2v2zM496 356q6 0 8 -2q10 10 24 11q6 0 32 15t50 34 q-4 14 2 26q4 10 30 29.5t48 22.5q-2 0 4 10q2 4 4 7t7 7q4 4 6 10q4 4 6 7.5t6 5.5q4 4 10 13t8 21l-2 5q-2 2 -6 12t-4 14v80h-72q-18 -8 -43.5 -16.5t-48.5 -12.5q-16 -10 -51 -20l-22 -10h-21l-5 -11q-5 -10 -12.5 -24.5t-14.5 -30.5t-13 -31q-4 -10 -11 -14l-14 -8 q-2 -8 -2 -15.5v-13.5v-28.5t1 -32t3.5 -25.5t4.5 -10q29 0 34 -25h54z" />
<glyph unicode="A" d="M57 201q-10 0 -16 -5.5t-8 -9.5v21q0 12 4 16q2 4 5 8.5t5 4.5v122q0 16 10.5 26.5t26.5 12.5q-2 2 -3 8.5t-1 10.5h-2h-4q-2 2 -3 5t-3 7l-5 8q0 16 1.5 24.5t5.5 16.5q2 4 7 23.5t15 74.5v3q0 6 1 17t8.5 47t22.5 103.5t44 184.5q2 6 7 22.5t9 26.5q2 35 8.5 60.5 t16.5 43.5q8 16 14 38t6 61v45t-4 41q16 25 43 43t37 18q18 0 37 -18q8 2 24.5 4l33 4t30.5 4t19 2q31 0 50 -3t33.5 -9t25.5 -17.5t26 -25.5h-2l12 -15q18 -16 22.5 -33.5t12.5 -37.5l-2 2q4 -10 8 -17.5t-21 -23.5q18 8 35 -2t17 -33q0 -4 -3.5 -16.5t-7.5 -20.5l6.5 -13 t4.5 -13q0 -6 4 -19.5t8 -30.5q6 -25 12 -47t6 -39v-8q0 -8 -1 -13t-1 -11q2 -8 7.5 -24.5t9.5 -35l8 -37t6 -30.5l-2 4q2 -14 4 -31q2 -14 3 -29.5t3 -29.5q2 -29 4 -52.5t4 -29.5v-9q4 -20 9.5 -37.5t5.5 -37.5v-94q0 2 1 -4.5t5 -12.5v2q2 -4 3 -10t3 -10l4 -13 q0 -47 3 -84.5t7 -74.5q4 -35 5 -66t1 -67q0 -16 -10 -27.5t-26 -11.5q-4 0 -23.5 2t-32.5 4q-10 6 -23.5 25.5t-24.5 43t-19 46t-8 34.5q0 4 2 22.5t6 39.5q2 10 3 18t1 6q0 10 8 21.5t18 15.5q-25 -10 -26 -10l-4 -2q-8 23 -8 45v49q-4 0 -5 6q-4 10 -8 18.5t-4 20.5 q0 16 3 22.5t9 16.5q2 4 4.5 11t2.5 32t-9 49q-23 -16 -58.5 -29.5t-74.5 -25.5q-59 -20 -112.5 -42t-71.5 -44q-8 -12 -21.5 -15.5t-23.5 3.5q-6 -10 -11 -23.5t-14 -38.5l2 2q-18 -102 -30.5 -183t-12.5 -116q-27 -78 -30.5 -137t-3.5 -117q0 -16 -11.5 -27.5t-27.5 -11.5 q-6 0 -21.5 12.5t-32 28t-29 29.5t-12.5 20v314zM469 643q25 8 53.5 16.5t67.5 12.5q-6 33 -14.5 80t-18.5 108q0 16 -2 33q-4 33 -12 53l-27 109q-8 23 -13 36t-5 29q-6 18 -17.5 47t-21.5 39q-16 -10 -37 -26.5t-31 -32.5q-10 -14 -31 -19q16 -2 20.5 -6t2.5 -12t-8 -17.5 t-10 -21.5v2q-6 -29 -12.5 -45t-14.5 -45q8 -10 3 -22.5t-15 -28.5l2 6q-4 -8 -5 -16.5t-1 -10.5v-41q0 -20 -6.5 -31.5t-12.5 -17.5q0 -6 1 -19.5t1 -21.5q-10 -16 -12 -28.5t-2 -22.5q-2 -14 -3 -27.5t-12 -33.5q0 -25 -3 -46.5t-7 -41.5q14 6 25.5 10t23.5 8q8 4 16.5 6 t12.5 6t13.5 7.5t13.5 3.5q31 0 53 6t47 16h-2z" />
<glyph unicode="B" horiz-adv-x="909" d="M248 -72q-47 8 -75 15.5t-45 14.5t-24.5 15.5t-13.5 18.5l-4 -4q-14 -4 -40 4t-42 43v74q0 37 1 87t1 101v76v137t-2 106.5t-5 96.5t-9 106q0 18 10 29q-2 6 -5 12l-5 10v312q0 18 9 34.5t22.5 27.5t29 18.5t25.5 7.5q43 0 55 -37t14 -96q8 16 18.5 32.5t26.5 34.5l46 74 q2 2 21 12t43 22.5t45.5 21.5t27.5 9h18q47 0 70.5 -3t40.5 -29q41 -12 52 -64.5t11 -124.5t-7 -112.5t-30 -87.5q-10 -10 -26.5 -29t-24.5 -29q66 -25 130.5 -72t111.5 -112l-2 2q-4 4 10 -13.5t23 -25.5q4 -8 7 -12t5 -6q4 -4 8 -13.5t4 -13.5q0 -35 10 -51l13.5 -45 t7.5 -68q0 -31 -4 -75t-15.5 -89t-31 -82.5t-52.5 -56.5q-14 -27 -43.5 -56.5t-87.5 -51.5q-20 -14 -36 -19h2q-8 -4 -11 -4q-2 -2 -4 -2l-55 2q-4 -8 -15.5 -16.5t-26.5 -16.5t-32.5 -14t-32.5 -8h7l-70 -13q-6 -2 -18 -2q-6 0 -11 -2h-20zM156 461q0 -23 1 -69t1 -83v-57 q0 -18 2 -44t3 -50.5t3 -43t2 -22.5l29 -31h43q10 0 29.5 1t35.5 1h10l54 19q31 12 68.5 25.5t72.5 29.5l-6 -2q76 51 104.5 92t46.5 82l-2 -2l15 29q0 37 -2 64.5t-6.5 53t-10.5 52t-14 61.5q0 4 -10.5 22.5t-18.5 22.5q-6 4 -18.5 16.5t-26.5 26t-26.5 26.5t-16.5 19l-2 2 q-20 8 -54 20.5t-56 16.5q-16 -12 -42 -28.5t-51 -16.5q-35 0 -60.5 15.5t-25.5 52.5q0 23 24.5 49.5t55.5 48.5l-2 -2q12 10 25.5 20.5t23.5 20.5q4 12 14.5 27.5t20.5 27.5q8 10 16.5 18.5t12.5 18.5l-2 -2q14 31 20 74t6 59q0 35 -9 66t-36 47q-23 -6 -45 -35t-41 -53 q-12 -16 -24 -29q-8 -29 -18.5 -55.5t-18.5 -48.5v2q-12 -35 -24.5 -68t-24.5 -69v-9q0 -10 1 -24.5t1 -28.5q0 -41 -15 -61v-101q0 -4 -4 -12q10 -25 -8 -43l-18 -18v-2q0 -23 -1 -59.5t-1 -59.5z" />
<glyph unicode="C" horiz-adv-x="823" d="M-6 551q0 25 5 65.5t11 73.5q0 25 6 55v-2q4 20 6.5 40t2.5 32q0 8 2 24.5t7 36t11 39t14 33.5q4 16 14.5 22.5t22.5 10.5v8q0 35 33 39q-6 43 6 67.5t27.5 37t29 17.5t13.5 9t6 14.5t15.5 21.5t18.5 21.5t15 14.5q10 0 14.5 -1t8.5 -1h4q2 10 5 19t10 15.5t20.5 10.5 t35.5 4h9.5t11.5 -2q8 14 21.5 23.5t48.5 9.5t47 -10.5t16 -24.5q6 0 8 1l6 3l17 8q18 10 34.5 1t20.5 -30v-8q0 -4 1 -6t1 -6v-10q20 -8 28.5 -22.5t12.5 -33.5q16 -10 23.5 -20t11.5 -21h2q16 -4 28.5 -16t12.5 -33v-14q4 -8 9 -19.5t5 -35.5q0 -53 -22.5 -68.5 t-53.5 -15.5q-33 0 -42 15t-21 42q-8 14 -15.5 29.5t-23.5 38.5q-10 10 -22.5 25.5t-12.5 31.5v8q0 4 1 6t1 6q0 -2 -17.5 2.5t-29.5 8.5q-8 0 -16 -1t-19 -1h-11t-13 2q-47 -49 -99 -68l-12 -22q-6 -16 -9 -21.5t-6 -4.5t-7 3t-11 0q-6 -4 -12 -11t-6 -36q0 -4 -4 -13.5 t-8 -13.5l-11 -12q-14 -20 -33.5 -49t-19.5 -51q-16 -45 -25.5 -80t-13.5 -64.5t-6 -57.5t-2 -58q0 -35 4 -76t25 -78q6 -20 11 -36.5t7 -26.5q4 -14 3 -15.5t3 -11.5q16 -8 18.5 -22.5t6.5 -32.5q0 -2 -2 -2l2 -2q25 -16 40 -41t23 -39q41 -25 85 -45.5t69 -20.5h29 q35 0 57.5 1t44 6t46 17.5t63.5 35.5l22 16q16 14 31.5 24.5t40.5 10.5q16 0 26.5 -11.5t10.5 -27.5q0 -29 -6.5 -57.5t-19.5 -52t-33.5 -38t-47.5 -14.5h-22q-10 -4 -19 -10q-8 -4 -16 -9.5t-12 -7.5q-4 0 -9.5 -1t-9.5 -1l-2 -4q-4 -4 -13 -8t-14 -4h-233q-4 2 -14.5 9 t-14.5 11q-16 6 -42.5 16.5t-30.5 14.5l-27 27l-23 10l-49 27l-18 41q-8 16 -17.5 34.5t-27.5 36.5l-19 35l-18 35q0 16 -5 41.5t-14 58.5l3 -2q-12 43 -20.5 86t-8.5 72z" />
<glyph unicode="D" horiz-adv-x="964" d="M55 1284q35 0 42 -35t12 -82q2 -25 4 -49t6 -43q0 2 1 4t1 6q0 14 6 21.5t14 13.5q10 29 25.5 63t26.5 44q31 37 55 62.5t50 41t59.5 22.5t82.5 7q8 0 33 -7t50.5 -15.5t46 -15.5t24.5 -9q6 -4 26.5 -19.5t34 -26t8 -6t-48.5 38.5l-2 3q14 -10 40 -29t51.5 -44.5t48 -55 t32.5 -62.5q0 -2 -1 -10t-1 -12q2 2 12.5 -4.5t14.5 -10.5q12 -33 18.5 -45t9.5 -16t6 -5t7 -10l24 -43q0 -12 -10 -28q10 -16 18.5 -32.5t8.5 -23.5v-59q12 -12 13 -30.5t-11 -30.5q12 -16 12 -35q-2 8 -6 9t-8 -12.5t-7 -46t-3 -92.5q0 -12 1 -34.5t3 -43t4 -36t2 -12.5 v-23q0 -16 -8.5 -30.5t-16.5 -24.5q-4 -8 -4 -2q-4 -10 -10 -18.5t-12 -12.5q4 2 4 -1t-2 -7q-4 -14 -7.5 -27.5t-11.5 -23.5q-14 -25 -35.5 -53.5t-45 -54.5t-49 -46.5t-50.5 -26.5q-47 -45 -92 -62.5t-68 -17.5q-25 0 -36 6.5t-17 12.5h-33q-31 4 -60.5 12t-51.5 31 q-25 25 0 53l14 17q6 6 19.5 8t23.5 -2h35h26.5t18.5 4q8 0 29.5 6t44 15t40 18.5t21.5 13.5q31 6 52.5 18.5t38 32t30.5 48t35 69.5q23 25 37 71t20 80q2 14 -3 59.5t-15 108.5v66l-2 4q-4 8 -7.5 19.5t-3.5 21.5v41v12t-4 10t-8 13.5t-4 13.5q0 10 -4 24.5t-8 24.5l-17 64 l6 -2q-12 12 -18 20t-6 25q-20 25 -46 49t-50.5 46t-48 37t-37.5 21h2l-41 13q-33 14 -54 16q-10 -10 -25.5 -24.5t-31.5 -30t-28.5 -28.5t-16.5 -19q-10 -14 -21.5 -39t-22.5 -49.5t-18.5 -44t-7.5 -25.5v-16q10 -10 13.5 -16.5t3.5 -22.5q0 -4 -1 -6.5t-1 -6.5 q-2 -4 -2 -6q-2 -10 -12.5 -18t-20.5 -8q10 -2 11 -3.5t-1 -5.5q-6 -12 -4 -15t-6 -3q12 -12 16 -21q10 -16 6 -31.5t-18 -21.5q2 -10 7 -23.5t11 -27.5q0 -29 -2 -45t-6 -29q-4 -14 -7 -32.5t-3 -40.5q0 -47 4 -71t8 -38q2 -10 4 -16t2 -29q-2 -4 -9 -21.5t-7 -21.5 t1 -17.5t15 -39.5q0 -47 -3 -62.5t-13 -25.5q4 -16 6 -32l4 -32q4 -18 5 -38.5t1 -29.5q0 -16 -2 -46.5t-4 -58.5t-5 -44t-5 -4q0 -6 -9 -10t-21.5 -7.5t-22.5 -4.5t-12 -1q-35 18 -52.5 31.5t-26 28t-9.5 32t-1 46.5q0 18 1 39.5t1 37.5v19q0 31 -3 93t-7 122 q-4 39 -5 72.5t-1 44.5q0 23 -12 82l2 -3q-10 35 -18.5 80t-16.5 105v276q0 12 -5 42t-11 63q-6 29 -10.5 55.5t-4.5 48.5q0 39 39 39h45zM887 813q-4 4 -15 6zM207 774q-2 -2 -4 -2q2 0 4 2z" />
<glyph unicode="E" horiz-adv-x="786" d="M532 608q0 -23 -12 -46t-27.5 -42.5t-33 -32t-25.5 -12.5h-41q-4 0 -8 -1t-10 -3h2q-14 -6 -30.5 -10t-41.5 -4q-10 0 -14 2q-12 -10 -27.5 -12.5t-30.5 -2.5h-12q-10 -12 -22 -16l-17 -4v-176q0 -4 -4 -12q4 -16 4 -29v-25q4 -16 8.5 -40.5t4.5 -26.5q4 4 16 5t16 1h4 l5 6q4 4 13 7t13 5t10 2q12 0 21 2h-2q10 2 21.5 2t21.5 2q10 0 22 3l11 2q-2 0 2 4q6 4 14 8t20 4h18.5t10.5 2q4 4 14.5 8t16.5 4h18q12 0 19 -8q23 20 51.5 39.5t56.5 32.5q16 -4 23.5 -1t15.5 7q10 6 20.5 10t24.5 8q20 6 33.5 -5t13.5 -32q0 -29 -5 -56t-36 -58 q-23 -2 -46 -13.5t-46 -23.5h2q-16 -10 -33.5 -20.5t-39.5 -14.5q-4 0 -41 -8t-83 -19.5t-88 -21.5t-55 -14q-14 -4 -29.5 1t-33 10t-36.5 8t-44 -3q-20 0 -35.5 12.5t-26 28.5t-15.5 32.5t-5 26.5q0 8 1 15.5t1 15.5v14q0 2 -2 7.5t-4 13.5t-4 18l-2 13q0 14 2 20 q-8 18 0 33q-8 35 -8 88q-2 16 -3 31.5t-6 29.5q2 -2 7 -2q-2 0 -3.5 1t-3.5 1q0 10 -4 15q0 -6 4 -15q-12 10 -29.5 28.5t-17.5 64.5q0 16 11.5 27t27.5 11q4 0 8.5 6.5t8.5 10.5l6 10q0 4 -1 9t-1 9q0 20 4 31q-4 10 -5 21.5t-1 27.5q0 39 10 64l-2 26v93q-10 16 -2 39 q0 2 -1 5t-1 5v117l-4 4q-23 16 -41.5 34.5t-18.5 40.5q0 29 17 45v5q0 4 -1 8t-1 8q0 33 14 43t35 18v11q0 16 10 27.5t27 11.5q18 0 43.5 -24t42.5 -54h161q-6 0 2 4l33 12q2 0 7.5 -1t9.5 -1q6 6 17 11t30 5h43q12 0 37 7l26 6l-12 -8q8 4 33.5 14t53.5 19.5t50.5 16.5 t26.5 7q33 -10 53.5 -42t20.5 -67q0 -16 -11.5 -27.5t-27.5 -11.5q-10 0 -37 -2t-41 -4q6 0 2 -2q-12 -8 -30.5 -18t-39.5 -10q-8 0 -17 1t-16 1h-6q-23 -8 -51.5 -19.5t-32.5 -15.5q-16 -16 -29.5 -13t-33.5 13l2 -2q-2 0 -6 2l-35 -17h2q-18 -10 -38.5 -18t-37.5 -8 q-6 0 -34.5 4t-47.5 8v-4q0 -18 -5 -28.5t-9 -14.5q4 -8 9 -20.5t5 -34.5v-52q12 -12 13.5 -29.5t-13.5 -29.5q2 -8 2 -16.5v-18.5q0 -35 -6 -59q10 -16 16.5 -35.5t2.5 -42.5q-2 -6 -6.5 -21.5t-12.5 -31.5q2 -4 3 -7t1 -8q0 -18 -16 -30q8 6 17.5 15t6.5 9q2 0 7 2 q8 4 14 9q16 6 24.5 10t22.5 8q8 2 21.5 3t17.5 1q8 0 16 -4q35 27 82 39t99 12z" />
<glyph unicode="F" horiz-adv-x="765" d="M49 248l4 4q-4 12 -4 16v281q0 8 8 24q-23 8 -22 43q0 14 11 36t28 42l-13 51q-2 16 -5 28.5t-7 29.5q0 2 1 17.5t16 31.5v285q-6 0 -11 -4q-10 -4 -19 -9.5t-30 -5.5q-45 0 -61.5 17.5t-16.5 62.5q0 27 4.5 35t18.5 22l6 7q4 4 14.5 8t16.5 4q14 -2 52 -2h79 q49 0 81.5 1t58.5 3t50.5 5t59.5 7q37 0 73.5 3t69.5 7q29 4 59.5 6.5t59.5 2.5q16 0 26.5 -11.5t10.5 -27.5q0 -6 -9.5 -34t-15.5 -38q-16 -14 -42 -24.5t-40 -16.5l-4 -2q-4 -2 -14.5 -3t-14.5 1q-2 0 -6 2t-6 2t-4 2q-6 0 -10 2q-10 -10 -23 -10h-262q2 -8 2 -29 q0 -33 -6 -51q8 -16 -2 -35q6 -23 7 -51.5t1 -56.5v-23q0 -35 -4 -47t-12 -22q6 -10 11 -23.5t5 -42.5q0 -45 -10 -61h16q35 0 74 14q14 4 18.5 7t12.5 3q8 14 24.5 19.5t36.5 9.5q8 2 16.5 4t16.5 6q8 0 13 2t12 6q14 6 29.5 13.5t29.5 7.5h8q4 0 11.5 -1t13.5 -1l4 2 q4 0 12 4l-2 -2q12 6 26.5 11t36.5 5q16 0 27.5 -10t11.5 -27q0 -39 -16 -68.5t-37 -47.5q-16 -6 -54 -16.5l-76 -21t-68 -17.5l-29 -7h-51q-10 0 -15 -4q-14 -14 -26 -14l-43 -27q-12 -8 -21.5 -12t-11.5 0v-166l-6 -17v-47q0 -33 3 -56t7 -42q2 -10 3 -16t1 -29l-12 -57 q12 -12 12 -31q-4 -37 -12 -67.5t-55 -30.5q-4 0 -13.5 4t-13.5 8l-14 12q-10 10 -24.5 25.5t-18.5 25.5v37v-2v2v2q-16 10 -17 31v117z" />
<glyph unicode="G" horiz-adv-x="964" d="M266 18q-16 0 -26 11q-23 -4 -39.5 1t-30.5 11q-20 8 -31 8q-16 0 -27.5 10.5t-11.5 26.5q0 4 -12 12q-12 6 -24.5 14.5t-22.5 21.5t-17.5 33.5t-7.5 55.5q-4 10 -6 17.5t-6 13.5q-14 27 -24.5 53.5t-10.5 42.5q0 8 1 14.5t1 14.5q-2 8 -4 23.5t-5 29.5t-5 26.5t-2 14.5 q0 14 4 28.5t8 28.5q2 8 3 13.5t1 9.5v119q0 2 1 17.5t2 37t4.5 46t7.5 46.5q4 4 9 16.5t5 16.5q31 92 55.5 160.5t50 118t56.5 83t71 60.5q23 10 46 -4q-2 4 -4.5 5t-2.5 3h7q2 0 19 6t38.5 13.5t39 14.5t21.5 9l176 -27q25 -2 48.5 -17t42 -36.5t30 -47.5t11.5 -48 q0 -16 -11.5 -26.5t-27.5 -10.5q-6 0 -19.5 2t-21.5 2q-23 2 -44.5 16.5t-41.5 30.5h2q-16 10 -27.5 18.5t-15.5 8.5t-18.5 -6t-18.5 -9h-39l-2 -2q-6 -8 -12.5 -11t-20.5 -3h-12q-10 -10 -20.5 -19.5t-30.5 -9.5h-21q2 -2 2 -6l-16 -30q-10 -27 -30.5 -50.5t-43.5 -46.5v2 l-18 -16q-4 -10 -8.5 -30.5t-8.5 -43.5q-4 -25 -8 -46t-6 -25q-4 -12 -11.5 -19.5t-15.5 -17.5v-19q0 -20 -5 -29.5t-13 -13.5q0 -12 1 -23.5t1 -19.5v-16q-4 -23 -9 -51.5t-9.5 -55t-7.5 -49t-3 -35.5q0 -29 6 -58.5t13.5 -56t16.5 -45t15 -24.5q2 -4 7.5 -15.5t13.5 -33.5 l4 -16q16 -23 51 -42.5t64 -29.5q12 -10 28.5 -12t32.5 -2q41 0 53.5 5t18.5 13q10 10 20.5 15t24.5 12l-4 -5l37 17l6 2l51 51q6 6 12 9t10 7q6 4 15.5 13.5t19.5 32.5q20 12 26.5 30.5t8.5 30.5q2 18 9.5 39.5t23.5 52.5q8 2 14 6t14.5 17.5t22.5 41t39 76.5q2 20 18 37 q2 2 3.5 5.5t3.5 5.5l4 4q0 10 -16.5 16t-37.5 6h-14t-20 -2q-6 0 -13.5 -1t-9.5 -1q-6 0 -34.5 -4t-61.5 -8q-47 -8 -101.5 -16.5t-99.5 -12.5q-16 -6 -30.5 -11t-18.5 -5l8 8q-23 -4 -50.5 11.5t-39.5 49.5q-4 12 1 27.5t20 19.5l20 15q25 23 76 37q4 0 15 -1t22 -1 q-6 -4 -6 -17q2 10 9 18.5t17 12.5q86 29 173 33t171 4q27 0 33 -27q37 -6 57.5 -12t32.5 -15.5t19.5 -22.5t17.5 -36q0 -68 -14.5 -109.5t-36.5 -66.5q-14 -45 -29.5 -92t-28.5 -92q-6 -23 -32 -27q10 -2 9 -8t-5 -10q-10 -16 -19.5 -34t-25.5 -30l14 27q-4 -6 -13.5 -18.5 t-19.5 -20.5q4 4 4 20q-4 -6 -8 -14t-8 -10q-2 0 -9 -12.5t-15.5 -25.5t-16.5 -26.5t-10 -17.5l-29 -25v2q-14 -10 -34.5 -26.5t-47.5 -42.5q-18 -18 -39 -13q-16 -16 -33.5 -30.5t-44.5 -14.5q-6 0 -14 4q-10 -4 -20.5 -4h-24.5q-2 0 -4 -2q-4 -4 -12 -4q-35 -10 -45 -10 q-14 0 -23.5 4t-19.5 8q-11 6 -15 6z" />
<glyph unicode="H" horiz-adv-x="860" d="M625 356v35q0 27 1 61.5t1 65.5l6 14h-17q-4 0 -20 -2t-35.5 -5t-36 -6t-20.5 -3h-23q-4 0 -16 1t-25 5q-6 0 -15 2t-9 4q-10 -10 -23.5 -19t-38.5 -9q-29 0 -57.5 4t-52.5 8q-16 2 -30.5 4t-27.5 2q-2 0 -3 -1t-3 -1q4 -20 8.5 -48t4.5 -32v-43q4 -18 10 -52t6 -42v-41 l14 -156q-2 -6 -11 -15t-19.5 -17.5t-19.5 -14.5t-13 -6q-10 4 -19 10q-8 4 -15 8.5t-11 8.5l-27 28l-16 68v31q-16 47 -17 110q0 20 1 44t1 40v17q-4 6 -9 16t-5 21v20l-16 43l-7 10q-4 10 0 13q-20 -6 -33.5 5t-13.5 31q0 10 2 34t5 32v-2q6 18 30 39l-4 -4q2 2 4 2 q4 4 9.5 14t10.5 20.5t9 18.5t4 10q0 -4 -2 21.5t-6 54.5q-2 16 -4 35.5t-3 36t-2 27t-1 8.5v268q0 31 26.5 56.5t65.5 25.5q16 0 27.5 -11.5t11.5 -27.5v-60q-2 -12 -3 -37.5t-2 -56t-2.5 -60.5t-1.5 -48q0 -35 4.5 -78t8.5 -82q6 -59 6 -96q0 -14 -1 -26.5t-1 -22.5l-2 -7 q6 2 8 1t6 -1h19q4 0 14 -1t20 -1h17l37 -8q4 4 14 9.5t16 5.5h164q10 8 21 8h10q8 0 20.5 -1t22.5 -1q16 0 10 -1t-2 3q8 6 20.5 10t43.5 6q2 8 2 16.5v14.5v10q-12 78 -14.5 142.5t-2.5 152.5v35q0 47 -1 83t1 52q-12 14 -12 22q0 39 20.5 70t61.5 31q29 0 37 -27l8 -16 l22 -51v-7q0 -2 3 -2q29 -25 8 -43l-2 -4q0 -23 -2 -49t-2 -45l-9 -16q12 -20 16.5 -46t4.5 -44q0 -14 -1 -27.5t-1 -24.5v-10q-2 4 -9.5 12.5t-11.5 8.5l37 -45q0 2 0 -6.5t-1 -22.5t-2 -29.5t-3 -29.5q-2 -23 -5 -45.5t-5 -45.5v-18q2 -8 5 -23.5t5 -31t4 -28.5t2 -17 v-136q0 -4 -5 -28.5t-11 -38.5q0 -8 1 -17.5t1 -17.5q0 -16 -4 -24.5t-8 -18.5l-5 -8q0 -20 4.5 -40t10.5 -40q8 -35 14 -71t6 -76q0 -16 -11 -27.5t-28 -11.5q-6 0 -34.5 3t-34.5 7l-31 35z" />
<glyph unicode="I" horiz-adv-x="376" d="M92 580v600q-12 18 -16 33.5t-4 31.5t11 27.5t28 11.5q61 0 77.5 -44t20.5 -107q0 -6 1 -14.5t1 -12.5q0 -27 2 -110t6 -181q2 -57 3 -111.5t2 -100.5t2 -78.5t1 -47.5q18 -35 29 -82v-14q0 -10 -6 -24.5t-12 -30.5q10 -16 21 -37t13 -35q0 -41 -18 -72q10 -14 14 -25.5 t4 -17.5q0 -18 -18 -36.5t-41 -32t-44.5 -21.5t-29.5 -8q-16 0 -26.5 11t-10.5 28v422z" />
<glyph unicode="J" horiz-adv-x="401" d="M104 162q43 23 66 67.5t51 122.5q0 10 1 26.5t1 35.5v63q0 18 -1 52t-1 57v18q0 23 -6 47.5t-10 46.5q-10 31 -19.5 67t-9.5 71q-2 6 -4 20t-4 29.5t-4 30t-2 18.5l4 16l6 31q0 4 2 6q-2 6 -5 13.5t-1 5.5q-8 4 -15.5 14t-7.5 20v105q0 10 7.5 19.5t17.5 13.5q-2 0 -2 12 v22q0 39 39 39q27 0 44 -12t28.5 -31.5t16.5 -41t5 -40.5q0 -20 -3 -32.5t-6 -22.5t-3 -23.5t4 -33.5q6 -8 5 -18.5t-5 -18.5q16 -23 33.5 -59.5t17.5 -88.5q0 -63 6 -115t17 -106l6 -47q4 -25 -1 -36t-16 -19q0 -6 1 -13.5t1 -11.5v-18l-14 -133q0 -8 -6 -16.5t-12 -12.5 v-8q0 -4 -1 -7t-1 -7q-4 -29 -15 -54q-14 -29 -41.5 -68.5t-65.5 -76.5t-86 -62.5t-104 -25.5q-16 0 -27.5 11t-11.5 28q0 59 36 89t95 42zM279 995v-2v2z" />
<glyph unicode="K" horiz-adv-x="759" d="M8 203q0 33 23 45q-8 20 -8 28q0 47 5 66.5t9 30.5l-14 28q0 16 -1.5 35t-11.5 41v37q-10 10 -14 16.5t-4 22.5q0 4 3 13t7 14q4 4 12.5 15t8.5 19q0 4 -3.5 20.5t-9.5 39.5q-4 29 2 36t11 17h2q0 10 -2.5 16.5t-4.5 14.5q-2 16 -6 31.5t-4 50.5v24q0 10 1 17.5t1 11.5 q0 16 10 27q-4 16 -8 33.5t-4 37.5q0 35 4 45.5t8 18.5q2 2 3.5 5t1.5 19t-1 18.5t-4 4.5l-8 16t-4 43q0 18 3 39t11.5 38t20.5 28.5t29 11.5q25 0 42 -19.5t28.5 -45t15.5 -50t4 -33.5v-86q0 -4 4 -35.5t12 -62.5q0 -6 -2 -13t-4 -13l-6 -15q23 -18 8 -45q4 -12 4 -14v-82 q27 37 72 63q16 10 29.5 19.5t17.5 13.5q14 35 39.5 59.5t50.5 45.5q12 10 22.5 17t16.5 13q16 12 34.5 39t33.5 56q12 20 34 20q-2 2 0 6q10 23 23.5 38t44.5 17q14 23 34.5 39.5t37.5 20.5q10 4 21 -1t22 -9h-2q4 -4 2 -4q14 -2 25.5 -12.5t11.5 -26.5v-91 q0 -16 -11.5 -26t-27 -16.5t-28.5 -9.5t-15 -3q-6 0 -6.5 1t-10.5 1l-39 -41l-14 -8v2l-2 -2l-4 -2v-2q0 -2 2 -2l-6 -8q-14 -16 -25.5 -28.5t-21.5 -27.5q-20 -27 -43 -50t-50 -36l-14 -18q-8 -16 -16 -25q0 -39 -20.5 -45t-45.5 -14l-8 -4t-8 -10q-12 -6 -15.5 -14.5 t-7.5 -16.5v2q-10 -35 -30 -49l2 2q-47 -37 -77 -60.5t-30 -29.5l2 -2q0 -2 4 -6q4 -6 9.5 -13.5t9.5 -17.5l20.5 -20.5t30.5 -28t33.5 -25.5t29.5 -16q23 -8 29 -35q4 10 29 2q23 -10 45 -20.5t37 -20.5q20 -2 31.5 -9t23.5 -20q8 -8 31.5 -26.5t95.5 -52.5q8 -4 14 -13.5 t6 -17.5q4 -45 -14 -59.5t-61 -14.5q-23 0 -48.5 9.5t-53 22.5t-54.5 29.5t-47 28.5q-8 4 -13.5 8t-15.5 9q-4 0 -6 -1t-4 -1q-4 4 -10 8q-12 8 -17 14l-5 5t7 3q-6 2 -14 5t-10 8q2 -2 -19.5 8t-44.5 22l-43 21h-2q-4 -51 -12 -88q10 -14 10 -27q0 -6 -1 -31.5t-7 -48.5 l-14 -43q-10 -25 -11 -26q0 -4 4.5 -22.5t8.5 -25.5q10 -20 -2.5 -35.5t-34.5 -15.5h-6v4q-23 4 -45.5 25.5t-32.5 46.5q0 18 -8 56t-15 65q-4 16 -6 26.5t-2 12.5z" />
<glyph unicode="L" horiz-adv-x="727" d="M362 16q-12 0 -20 7q-12 0 -18 -3q-8 -2 -23 -2q-6 0 -12 -2q-10 -2 -19 -4q-8 -2 -13 -2h-9t-10.5 -1t-14.5 3q-4 0 -6 1t-4 1t-2 2l-35 2q-33 4 -62.5 9.5t-53 19.5t-38 38t-14.5 65v8q-10 12 -20.5 30.5t-10.5 42.5q0 4 1.5 9.5t5.5 9.5q-6 14 -7 26q0 4 4.5 13.5 t8.5 13.5q0 4 -2 8q-10 25 -11 39q0 2 4.5 14.5t8.5 22.5q0 2 1 3t1 3v2v17q0 14 1 32.5t1 28.5q0 4 -1 14.5t-1 22.5v43v12t-2 21q-2 16 -3 29.5t-1 29.5q0 12 1 22.5t5 18.5v447q0 6 11 16t26.5 18.5t30 14.5t18.5 6q10 0 32.5 -7t39.5 -22q10 -10 10 -26.5t-10 -26.5 l-21 -21v-32.5t-2 -46.5q0 -35 -2 -75t-4 -78t-3 -71.5t-1 -56.5l14 -100q0 -6 -3 -16.5t-7 -14.5q-2 -2 -3 -8t-1 -8v-299l12 -41q6 -20 15.5 -44t15.5 -44q0 4 6 9t14 1q18 -6 38 -13.5t34 -13.5l84 10q20 4 45 5.5t49 1.5h27q16 14 40.5 18t53.5 10q16 2 29.5 4t21.5 8 q10 4 31.5 6.5t25.5 2.5q39 0 39 -39q0 -45 -11 -72t-32.5 -42t-53.5 -22.5t-75 -13.5l-69 -12q-4 -2 -11 -2h-16q-25 0 -36 5t-21 15h-11v0z" />
<glyph unicode="M" horiz-adv-x="1482" d="M0 881q8 20 10 45.5t2 34.5q-4 29 -12 59.5t-14 58.5q0 4 -1 11.5t-1 9.5q14 47 36.5 65.5t47.5 18.5q10 0 24 -5t27.5 -14.5t23 -19.5t9.5 -21v-6q35 -6 64.5 -28.5t51.5 -45.5q2 -6 12.5 -22t20.5 -33.5t17.5 -31t5.5 -13.5q8 0 18 -6t14 -12q10 -14 22.5 -44t24.5 -59 q4 -10 11.5 -27.5t23.5 -47.5q-2 2 -2 4t-1 2t-1 2l8 -6q2 -4 6.5 -13.5t4.5 -13.5q0 -6 6 -33l3 -12t1 -10q14 -18 25.5 -46t21.5 -53q4 -18 13 -38.5t20 -36.5v-17q16 -4 24 -16t6 -27q6 -10 11.5 -18t5.5 -17l24 -51q2 16 4.5 27.5t4.5 25.5q4 33 7 64t3 78q0 18 -1 34.5 t-1 30.5v37q4 6 9 21.5t9 37t7 45t3 42.5q4 16 10.5 32.5t12.5 32.5l6 12q2 4 2 6l-2 3q-4 4 -4 8v-2q-8 14 -8 28q-2 23 3 31t11 19q0 8 -1 15t-1 15q0 23 6 33t13 16v86q23 33 30.5 51.5t16.5 32.5q16 43 40.5 68t92.5 25q6 0 26.5 -11.5t41 -27t37 -34t16.5 -30.5v-10 q25 -29 48 -69t38 -64q6 -14 0 -33q0 -2 10 -6l18 -23l-6 11q6 -6 15.5 -20.5t19.5 -33t20.5 -39t16.5 -34.5q0 -10 -1 -22.5t-3 -22.5q10 -16 19 -35t14 -31l8 -16q0 -4 -8 -4q16 -4 25 -18.5t3 -31.5q25 -31 29 -67.5t4 -57.5q0 -23 5 -37t11 -22q14 -25 15 -43 q0 -8 -1 -13t-1 -12q12 -27 20 -68.5t12 -64.5q27 -70 42.5 -110.5t22.5 -68.5t9 -49.5t2 -53.5q0 -16 -11 -27.5t-28 -11.5q-16 0 -35.5 5t-38 15.5t-30.5 24.5t-12 35q0 4 1 6t1 6l-5 6q-4 4 -5 10t-3 11l-4 12v29q-2 8 -6 16q-6 14 -12 37v-2q-6 16 -13.5 36.5t-9.5 32.5 q0 2 -2 8.5t-2 16.5v10q-16 20 -20 46t-9 48v37q-6 6 -12 25q-4 10 -10 23.5t-8 19.5v12q-6 16 -13.5 42t-14.5 50.5t-11 44t-4 23.5t4 4q-23 14 -23 37q-2 4 -9 19.5t-20.5 46t-35 80.5t-53.5 124q0 2 1 7t1 10q-4 0 -5 6q-12 12 -14 32q-4 12 -20.5 39t-53.5 62 q-12 -16 -20 -37t-8 -39q0 -2 4 -10q4 -10 8 -21.5t4 -13.5q-4 -6 -8 -14q-6 -12 -14 -25q-4 -4 -5.5 -4t-3.5 -2t-4 -2v2q-4 -10 -7 -37t-7 -57q-4 -31 -9 -68t-18 -72l-10 -77q-8 -49 -13 -96.5t-5 -88.5v-12q0 -23 1 -60.5t11 -66.5q6 -23 -5 -51.5t-26 -52.5l2 2 l-10 -21q10 -10 10 -22q0 -10 -7 -26.5t-18.5 -33t-22.5 -29t-19 -12.5q-39 0 -60.5 3t-33 9.5t-15.5 17.5t-8 28v-4l-6 16l-29 63l-10 23q-25 14 -35 59q-4 10 -10 25.5t-29 38.5q0 29 -9 45t-15 27q-8 8 -14.5 12t-6.5 26v23q-4 4 -8 6t-4 10q-20 27 -32.5 55.5 t-22.5 59.5q-8 20 -15.5 38.5t-17.5 37.5q-10 6 -13 16q-4 4 -13 21.5t-19 44.5v-2q-18 37 -32.5 67.5t-21.5 40.5q-12 10 -22 21.5t-23 27.5q-8 -20 -8 -34q0 -4 2 -17.5t4 -28t5.5 -27.5t3.5 -16q0 -6 1 -26.5t3 -48t5 -59t7 -58.5q0 -4 -2 -21.5t-4 -29.5q-4 -18 -7 -42 t-3 -46q0 -8 8 -29v4q8 -16 8 -39v-37q6 -29 9 -61.5t3 -38.5v-96q0 -10 1 -14.5t3 -8.5h-2q6 -14 11.5 -33.5t5.5 -66.5q0 -6 -1 -17.5t-1 -23.5v-37q0 -27 -22.5 -36t-41.5 7q0 -2 -9 2.5t-13 8.5q-39 20 -52.5 49.5t-13.5 46.5v24q-4 4 -10 14.5t-6 18.5q0 39 -3 93.5 t-14 111.5v59v11.5t4 7.5l-10 15t-6 18v428zM1090 1018q4 4 4 6z" />
<glyph unicode="N" horiz-adv-x="1073" d="M-6 94q0 4 -1 15.5t-1 21.5v25q0 29 2 47t6 39q4 16 6 31.5t2 31.5v94q0 6 3 28t5 46.5t4.5 46t2.5 27.5l2 -8q-2 6 -2 14v22l4 25l-4 37v342l-4.5 9t-2.5 9q-4 10 -6 22.5t-2 22.5q0 4 3 13.5t7 13.5q6 6 13.5 15.5t13.5 19.5q16 23 32.5 38t57.5 15q37 0 55.5 -7 t28.5 -38q14 -4 23.5 -6t9.5 -37v-4q10 -14 17 -22.5t14 -18.5l32 -45q2 0 14.5 -14.5t12.5 -32.5q0 -4 -1 -8t-1 -9q2 4 9 -3t16 -13l16 -16q12 -29 22.5 -42.5t20.5 -23.5q14 -16 24.5 -29.5t20.5 -35.5q16 -4 26.5 -15.5t10.5 -27.5l2 -17q-2 0 -3 -1t-3 -1q10 -2 20 -9 t15 -17q4 -12 12 -20.5t18 -16.5l22.5 -22.5t20.5 -29.5l15 -30l-2 2q4 -8 8 -15.5t6 -9.5q18 -43 56 -91t63 -75q29 -6 41 -24q2 18 12 35l-2 -2q4 14 9 32.5t5 59.5q0 12 -1 23.5t-1 21.5v18q4 10 7 19.5t8 13.5v-2q14 20 14 41q-2 2 -2 6q-2 4 -2 14q-10 31 0 64q0 2 2 3 t2 3v43q0 14 3 24.5t7 22.5q2 6 4 11t2 10v59q6 31 9.5 76t6.5 98t4 110.5t1 110.5q0 16 11 27.5t28 11.5q23 0 43 -9t35.5 -31.5t23.5 -61.5t8 -99q0 -6 -1 -17t-1 -19q0 -4 -4 -13q-2 -4 -2 -8l-10 -16v-11q0 -16 1 -34.5t1 -36.5q0 -20 -1 -39t-1 -35v-25q0 -18 -10 -59 q-6 -23 -12.5 -46.5t-6.5 -45.5v-72v-6q0 -2 -4 -14l2 4q-4 -14 -8 -41t-4 -37v-57q0 -25 -17 -39q0 -6 1 -15.5t1 -15.5l-24 -72l-23 -67v-12q0 -2 -11 -12.5t-25.5 -23t-31 -21.5t-24.5 -9q-53 0 -66.5 -3t-7.5 -9l-14 12q-10 6 -14 18q-4 2 -9.5 4.5t-11.5 10.5 q-23 25 -47 57.5t-37 58.5l4 -4q-10 18 -19 27.5t-19 19.5q-20 23 -41 48.5t-43 72.5q-27 49 -56.5 86t-58.5 66q-37 37 -66.5 69.5t-44.5 79.5q-8 10 -21.5 30t-27.5 34l-41 55q-2 0 -2 2v-180q0 -16 -10 -26.5t-23 -12.5h17q0 -12 1 -26.5t1 -24.5v-21q-4 -20 -7 -43.5 t-4 -44t-2.5 -36t-1.5 -17.5v-139q0 -12 1.5 -29.5t1.5 -31t-3.5 -21.5t-11.5 -2q6 -14 6 -24.5t-2 -20.5t-5 -22.5t-3 -30.5q0 -6 -1 -20.5t-2 -32t-1 -32v-20.5q0 -39 -39 -39q-6 0 -17.5 7.5t-23.5 16.5t-23.5 19t-17.5 17z" />
<glyph unicode="O" horiz-adv-x="1247" d="M31 786l8 11q-8 -4 -8 -9v21q0 2 9 15.5t22.5 34t27.5 47t25 57.5q4 10 13 16t9 10q0 33 35 39q-10 0 -2 14q10 14 14 27.5t35 15.5q10 10 23.5 17.5t27.5 9.5q8 18 22.5 33.5t31.5 32.5l14 10l6 10l23 35q4 8 14 13t18 5q-2 0 14.5 8.5t41.5 18.5q27 12 55.5 26.5 t57 25.5t53 19.5t43.5 8.5q4 0 19 -2t35.5 -7.5t41 -12.5t37.5 -17q20 -12 17 -34.5t-19 -33.5q16 -2 26 -16t6 -31q2 -4 10.5 -4h10.5q16 0 27.5 -11t11.5 -28q10 -4 18 -12q8 -6 17.5 -13.5t19.5 -13.5l37 -26q18 -8 30.5 -14.5t22.5 -16.5q8 6 19.5 -4t23.5 -31.5 t25.5 -50.5t29.5 -57l41 -80q2 -12 3.5 -40t2.5 -62.5t1 -73.5v-72l-25 -19q-6 -29 -18.5 -58.5t-24.5 -55.5l2 2l-12 -31q-4 -6 -24.5 -25.5t-37.5 -35.5l-6 -6q-8 -12 -15 -25.5t-18 -24.5q-16 -18 -31.5 -39.5t-19.5 -3.5q-14 -41 -47 -72.5t-63 -60.5q-27 0 -35 4 q4 -4 5 -8t-9 -12l-27 -21q-4 -4 -15.5 -11t-34 -18.5t-57 -27.5t-85.5 -37q-10 -4 -23.5 -2t-21.5 12q-4 0 -21 -4q-27 -10 -37 -10l-12 4q-12 4 -19 10q-127 4 -191.5 33t-104.5 70l26 -10l-24 25q-23 24 -49.5 53.5t-50 55t-23.5 29.5l4 -4q-8 10 -12.5 27.5t-8.5 34.5 q-8 20 -13 41.5t-5 25.5v13q0 16 1 42.5t1 41.5q-10 20 -12 46.5t-2 45.5q0 10 1 17t1 11l34 156zM123 506q0 -16 4 -38t9 -42t11.5 -36.5t10.5 -20.5q12 -12 16 -24.5t8 -29.5q4 -10 8.5 -22t6.5 -17q0 6 4 3l20 -33l10 -8q18 -16 45 -34t37 -18q4 0 13.5 -3t13.5 -7 q10 -10 41 -16q16 -4 26.5 -7t22.5 -8l84 9q53 12 93 23t72 26.5t57.5 39t51.5 60.5q4 6 14.5 11t16.5 5q10 0 25 9l26 24q10 12 20.5 22.5t22.5 16.5q12 23 32 59.5t32 63.5v6q0 23 9 36t24 26q2 16 8 26t14 27q10 14 16.5 30.5t6.5 28.5q0 20 -5.5 63.5t-17.5 71.5 q-20 20 -48 52t-52 63l-10 12q-27 10 -43.5 24.5t-36.5 37.5h2l-47 45q-12 12 -33 24.5t-41.5 21.5t-34.5 15t-16 6q-4 0 -10.5 -1t-8.5 -3q-4 -4 -13 -8t-13 -4h-21q2 -2 -8 -8l-12 -8q-29 0 -42.5 8t-23.5 18q-2 0 -4 2q-2 -2 -6 -2l-57 -18l-9 -16l-9 -13.5t-16 -16.5 t-30.5 -21.5t-52.5 -28.5h-4q-2 -8 -15 -25q-2 -25 -19 -45t-40 -37l-31 -26q-4 -35 -18 -70t-31 -64v2q-10 -16 -17 -32.5t-7 -14.5q0 -16 -3.5 -32.5t-7.5 -38.5q-8 -35 -14 -69t-6 -52z" />
<glyph unicode="P" horiz-adv-x="897" d="M16 766q-4 27 -7 70t-4 91t-1 99v94q-10 25 -15 62t-5 59q0 16 11 26.5t28 10.5h12q25 0 45 -1t34.5 -10.5t22.5 -28.5t8 -56q0 -27 -5 -47.5t-9 -36.5q-2 -4 -3 -12.5t-1 -28.5q0 -23 1 -40.5t3 -31.5l4 6q0 -2 3 6.5t9 18.5l15 28q74 102 156.5 136t191.5 34 q6 0 16.5 -1t20.5 -1h24q29 -2 53.5 -14t41.5 -22q8 -8 6 -9h26q2 -2 19.5 -18t23.5 -27l11 -14h2q27 -27 45 -47.5t29.5 -38.5t16.5 -38.5t5 -49.5q0 -4 2 -10q4 -12 6 -17v4q4 -10 5 -21t1 -16q0 2 -1 -10t-3 -20q-6 -25 -13 -60.5t-18.5 -71.5t-26 -65t-32.5 -37l-4 -4 q-10 -16 -24.5 -32.5t-22.5 -24.5q-16 -23 -51 -56.5t-82 -64.5t-102.5 -52.5t-110.5 -21.5q-66 0 -106 11.5t-62 29.5q4 -57 11 -125.5t20 -173.5q0 -35 -5.5 -53t-15.5 -25.5t-23.5 -8.5t-27.5 -1q-6 0 -15.5 4t-13.5 8q-20 25 -32.5 41.5t-19.5 34t-10 41t-5 60.5 q0 104 -7 192q-2 37 -6 74t-8 68.5t-11 54t-16 30.5v16.5t-2 32t-4 34t-6 24.5q-10 25 8 43zM201 485q8 6 20 7h199l9 6t22.5 14t29 18.5t25.5 16.5l61 43q29 23 50.5 41t39.5 53l15 16q4 4 9 7.5t5 5.5q8 14 15.5 37.5t13.5 48t10 45t4 30.5q0 12 -4 31t-8 37v4 q-12 18 -32.5 43t-43.5 48.5t-45.5 39t-40.5 15.5h-39q-37 0 -61.5 -1t-43 -6.5t-36 -15.5t-37.5 -31q-27 -20 -44.5 -38.5t-31.5 -44t-28.5 -60.5t-32.5 -86q0 -6 6 -18q4 -14 8 -24.5t4 -33.5q0 -2 -3 -11t-6 -18.5t-6 -17.5l-3 -8v-193z" />
<glyph unicode="Q" horiz-adv-x="1099" d="M758 145q-18 -16 -35.5 -28.5t-20.5 -12.5h-2q-4 -4 -10 -5t-12 -5q-6 -6 -19 -6q-12 -10 -27.5 -18.5t-31.5 -8.5q-12 0 -16 -4q-12 -12 -56 -12h-23t-20 4q-20 -14 -42.5 -23.5t-36.5 -9.5q-18 0 -27.5 9.5t-20.5 19.5h-6q-12 0 -31.5 5t-35.5 16q-8 4 -18.5 9t-12.5 5 q-27 0 -35 20q-53 20 -95 56.5t-71.5 76t-47 76.5t-21.5 58q-4 16 6 28l-6 23q0 20 -1 56t-1 44t1 22.5t1 26.5v13q0 14 5 31.5t11 37.5q-12 14 -12 35q0 18 10 33.5t31 19.5v8q0 2 13 17.5t28 25.5l-21 -12q4 8 6 16.5t6 18.5q10 25 16.5 49.5t18.5 42.5l10.5 10.5 t14.5 16.5l8 8t6 0v16q0 4 15.5 21.5t27.5 28.5l-22 -15q14 23 33.5 51.5t41 57t43 52.5t37.5 34q18 41 41 69.5t49 12.5h9l16 8q6 4 14.5 7t12.5 7q16 12 32.5 7t24.5 -21q4 2 9 2h7l-16 -8v-2q18 4 43 2t37 -8l-29 30q10 0 28.5 -7t37.5 -11l39 -15q35 -35 44 -62.5 t15 -51.5q2 -14 4 -23.5t10 -13.5l-2 2q4 -4 7.5 -6t9.5 -6q41 -27 73.5 -49.5t36.5 -49.5l27 -28q2 -2 6 -4t6 -4.5t4 -2.5q16 -8 29.5 -22t17.5 -49q4 -4 7 -17q4 -10 6 -18t4 -14q2 -8 4 -15q10 -4 18 -15t8 -22q0 -10 2.5 -20t6.5 -21q8 -18 15 -38.5t7 -44.5 q0 -70 -10 -104t-25 -62q-2 -4 -6 -10.5t0 1.5l-18 -22q2 2 -1 -13.5t-7 -33.5q-8 -33 -19.5 -66t-38.5 -59l-26 -21l-17 -14q2 -8 19 -25q18 -23 6 -49q12 -23 29.5 -54.5t32 -61t24.5 -51t10 -23.5v-51q0 -39 -39 -39q-55 0 -81.5 38t-55.5 99l-37 78q0 6 -1 8l-3 6z M481 174q10 8 24.5 15.5t33.5 7.5h30q12 4 26.5 12t29.5 18l-2 -2q4 4 9 6t9 7l-2 -2l27 18q10 8 22 16.5t10 5.5q-2 14 -3 34t-5 20q-16 0 -27.5 11t-11.5 28v12q0 -2 -18.5 12.5t-26.5 20.5q-10 8 -17 20t-14 25l-18 28q-10 12 -26.5 33t-16.5 33v6q0 2 4 14 q4 10 15.5 18.5t21.5 8.5q23 0 40 7t23 11q27 27 56 0q6 -6 16 -18t10 -29v-16h5l4 -4q35 -8 49 -49t18 -82q4 -4 11.5 -12.5t11.5 -18.5q10 25 22.5 51.5t20.5 40.5q18 37 33.5 72t15.5 61q0 6 -8.5 23.5t-16.5 36.5q-10 16 -16 30.5t-6 26.5q0 4 1 10.5t1 14.5l-6 20 q-4 4 -5 13.5t-1 13.5v16q-2 -2 -5 -2q-10 4 -20 12.5t-21 16.5q-6 4 -10 10t-8 14l-10 17q-14 16 -28.5 33.5t-24.5 37.5l-99 76q-4 0 -8 -1t-6 -1q-16 0 -29.5 8.5t-25.5 18.5q-10 10 -23.5 17t-34.5 7q-27 0 -38 -4t-25 -8q-6 -4 -8 -5t-15 -5l-100 -143 q-14 -14 -39 -53.5t-48.5 -82.5t-40.5 -79.5t-17 -49.5q0 -6 1 -14t1 -16v-21q-6 -16 -8.5 -30.5t-4.5 -30t-2 -35v-45.5q0 -43 4 -47q16 -16 15.5 -38t9.5 -50q18 -23 34.5 -43.5t30.5 -38.5q29 -4 43.5 -15.5t28.5 -23.5q6 -6 4 -5t4 -3q29 0 74 -3.5t88 -11.5zM782 377 q0 -2 2 -6q0 -4 1 -7.5t1 -5.5q0 2 5 11z" />
<glyph unicode="R" horiz-adv-x="997" d="M147 -109q-16 0 -36.5 6.5t-37 16.5t-27.5 24.5t-11 30.5v480q-16 20 -17 32q0 4 2 13q2 4 3.5 11t3.5 11q4 8 6 19.5t2 7.5v80q-12 37 -15.5 78.5t-3.5 82.5q0 18 1 35t1 33v53q-4 8 -10 16.5t-6 24.5v45l-29 142q0 4 -1 18t-2 30.5t-2 31t-1 18.5q0 16 11.5 27.5 t27.5 11.5q45 0 64.5 -19.5t42.5 -72.5v-19q0 -10 -1 -21.5t-1 -21.5l6 -26l-2 2q2 -10 5 -23.5t7 -27t8 -23.5t6 -12l11 -17l14 15q20 35 20 63q0 20 17 31q10 47 37.5 90t76.5 88q43 43 82 65.5t99 22.5q6 0 19 -1t27.5 -4t27 -6t18.5 -5l-6 8q66 -33 119 -103.5 t69 -140.5q0 -18 3 -27.5t7 -19.5q8 -16 14.5 -35.5t6.5 -50.5q0 -35 -5 -73t-14 -72v-17q0 -2 -7 -20.5t-18 -42t-22.5 -48t-17.5 -36.5l-2 -2q-4 -4 -4 -9q-16 -18 -45 -57t-62 -61q-16 -16 -33.5 -30.5t-33.5 -25.5q-12 -6 -24.5 -14t-29.5 -22q39 -8 101 -41l55 -23 q31 -12 62.5 -25.5t52.5 -29.5q10 -4 37.5 -17.5t91.5 -36.5q41 -31 51 -59.5t10 -58.5q0 -16 -11 -27.5t-28 -11.5q-35 0 -57.5 9t-38.5 22q-4 0 -10 3t-10 7q-27 12 -59 28.5t-61.5 33t-55 31.5t-42.5 26q-4 -2 -14 -3q-12 0 -16 5h-4h4q-10 6 -20.5 8t-17.5 4t-8 3t11 3 q-6 0 -19.5 7t-25.5 13.5t-16.5 7.5t10.5 -12l-19 9l4 -2q-4 0 -9 -1.5t-9 -1.5t-21.5 3.5t-27.5 25.5q-16 10 -34.5 12t-35.5 7q-43 4 -70.5 19t-27.5 75q0 16 11 27.5t28 11.5q4 0 22.5 1t24.5 3q0 2 22 14v-2q16 12 38 25.5t46 23.5q4 0 12.5 -1t12.5 -1t15.5 10.5 t29.5 26.5q78 70 129 130.5t51 94.5v9q0 8 2 12q4 10 9.5 20.5t5.5 7.5q0 4 2 19.5t2 36.5q0 31 -7.5 68.5t-25.5 78.5q-4 12 -14.5 41t-27.5 59.5t-41 53t-50 22.5l10 2q-10 -2 -33.5 -8t-29.5 -22q-33 -31 -55.5 -58.5t-43 -63.5t-42 -86t-52.5 -130l-12 -27q-4 -6 -6 -10 l-4 -8t-5 -6q-6 -18 -13 -53l-15 -75t-13.5 -77t-5.5 -60v-641q0 -16 -10.5 -27.5t-26.5 -11.5z" />
<glyph unicode="S" horiz-adv-x="970" d="M6 193q0 25 4 38t10 23l5 10q4 18 21 24.5t36 -3.5q10 -6 29.5 -34t19.5 -44v-10q0 -8 -1 -16.5t-1 -16.5q10 0 23 -2q10 -2 27.5 -4t39.5 -4q47 0 79 6t56 14q23 4 39.5 8t30.5 4l-10 -2q2 0 20.5 3t34.5 8q23 4 44.5 7t27.5 7q12 0 34 14l41 25q20 27 50 43t51 22 q2 0 4 -1t6 -1q37 39 50.5 79t13.5 85l-13 14l-12 17h-21q-2 0 -11 4t-17 8h-219q-4 0 -13.5 4t-13.5 8q-8 0 -16 2t-15.5 3.5t-17.5 5.5l-43 10h-12q-8 0 -15.5 -1t-17.5 -1q-25 0 -37 10t-23 21q-2 2 -10 2q-4 0 -9 -1t-11 -1q-4 0 -14.5 4t-12.5 8l-63 63h-25 q-16 0 -26.5 10.5t-12.5 24.5q-2 -6 -6 -2q-10 6 -19.5 10t-25.5 27v25l2 -2q-4 8 -15.5 26.5t-27.5 50.5q-10 20 4 43q-4 8 -7 17.5t-3 25.5q0 41 14 64.5t27 40.5q4 4 6 4v24q4 16 17.5 34t29.5 26v8q0 25 23.5 42t58.5 34l27 14q18 20 56 42t66 30h9q4 0 11 -1t15 -1 q4 14 13.5 24.5t35.5 10.5q23 0 26 -5.5t7 -11.5q14 6 33.5 11.5t52.5 5.5q4 0 14.5 -1t20.5 -1q12 -2 21.5 -2h11.5q20 0 30 -15h35q16 0 24.5 -6t14.5 -10q-2 0 -3 1t-3 1l16 -12l-4 6q10 -4 15.5 -7.5t13.5 -3.5q43 -10 84 -32.5t41 -73.5q0 -45 -21 -74q-4 -4 -13 -10 t-15 -8q-41 -6 -58 18q-29 4 -28 37q0 16 -19.5 23.5t-66.5 11.5q-10 0 -24.5 1t-28.5 5q-27 4 -56.5 7t-52.5 3q-10 -16 -27.5 -17t-27.5 9l-29 -12l-61 -33q-41 -29 -66 -50.5t-37 -33.5l-2 -4q-6 -16 -18.5 -26.5t-26.5 -16.5q4 -4 4 -8q0 -23 -8 -39t-16 -33 q-4 -8 -6.5 -14t-2.5 -13q0 -4 1 -9t1 -11v-10q0 2 8.5 -7.5t18.5 -21.5q4 -6 12.5 -17.5t15.5 -20.5t11 -13t2 2q10 -6 18.5 -13.5t20.5 -11.5l57 -32l6 -7h19q14 0 26.5 -5t22.5 -11l-14 4q4 -4 8 -4h31q12 0 23 -9t16 -24q0 2 14 3t32.5 1h35h20.5h117q16 0 31.5 -4 t29.5 -6q14 -6 29 -6q12 0 23.5 1t21.5 1l10 -39q51 0 70.5 -5t19.5 -15l6 -9l-18 -53q18 8 25.5 9t7.5 -2t-3 -8t-3 -9q4 -18 6 -38.5t2 -35.5q0 -2 -6.5 -26.5t-14.5 -54t-15 -55.5t-9 -28q-14 -6 -20.5 -15t-10.5 -17q-20 -37 -49 -37q-2 0 -5 1t-8 1q-23 -16 -51 -38 t-58 -40t-53.5 -30.5t-31.5 -12.5q-6 0 -19 6q-6 -8 -15 -13t-19 -3q-10 -6 -32 -15.5t-44.5 -17.5t-45 -15.5t-34.5 -9.5q-16 -2 -46 -2h-44q-37 0 -66.5 3.5t-54.5 13.5q-23 2 -64.5 9t-64.5 19l-14 35l2 -6q-8 18 -13.5 29.5t-8.5 23t-4 23t-1 27.5z" />
<glyph unicode="T" horiz-adv-x="958" d="M-6 1122q0 51 24.5 79t79.5 28h105q12 12 16 14l31 14q14 6 25.5 1t19.5 -15q14 10 29.5 13.5t25.5 3.5h33l43 14h16l11 -2q4 -2 19 -7t13 -5q8 0 21 4q10 4 23.5 7t35.5 3h86q4 0 21.5 2t38.5 4q16 4 33.5 6t27.5 2h39l4 2q8 4 19.5 8.5t15.5 4.5h12q23 0 35 -14.5 t17.5 -35t6.5 -44t1 -40.5q0 -39 -39 -39q-10 0 -22.5 5.5t-22.5 11.5q-20 -10 -27 -10q-16 0 -23.5 5l-13.5 9q-4 0 -4 4q0 -2 -2 -3t2 -1h-8q-10 0 -30.5 -2t-43 -4t-41 -4t-24.5 -2h-131l4 -15v-1042q0 -12 -12.5 -26.5t-28 -26t-30.5 -18.5t-22 -7q-16 0 -27 11.5 t-11 27.5v63v101.5t-1.5 126t-2.5 139.5t-1 141q0 49 -1 100.5t-2 95.5t-1 79v53q0 14 -2 58t-6 79h-14q-27 0 -37 27h-21h-12q-14 -14 -33 -14q-4 0 -13 3t-19 7q-20 -4 -70.5 -11.5t-95.5 -7.5q-16 0 -27.5 11.5t-11.5 27.5z" />
<glyph unicode="U" horiz-adv-x="983" d="M727 137q0 8 4 13l-4 6v22q0 8 -1 20.5t-1 18.5q0 8 1 24.5t1 30.5v17q0 14 2 26.5t-10 8.5q0 -2 -2 -5q-4 -4 -13.5 -7t-13.5 -3h-8q6 -2 7 -9t-7 -13q-10 -8 -14 -20.5t-21 -30.5q-16 -33 -33.5 -46.5t-58.5 -25.5q-18 -18 -49 -34.5t-57 -27.5l-15 -4q-10 0 -14 2 q-18 -6 -39 -6q-12 0 -21 6q-10 0 -39.5 4.5t-46.5 8.5h2q-2 0 -2 2q-29 0 -36 26l-7 17q-4 0 -6 2l4 -4l-43 26l-16 29l-12 14q-6 2 -6 8q-23 10 -42.5 25.5t-23.5 52.5q-12 16 -10 26.5t12 18.5v2q-6 10 -11 19.5t-5 19.5v21q0 27 28 31q-27 23 -51 48t-24 48q0 4 6 14 q-6 23 -8.5 52.5t-4.5 68.5l-6 129l2 -2l-2 4q0 2 -1 3t-1 5q-6 -6 0 -6q-2 2 -3 4t-3 4l-4 4l-8 33q-6 20 -10.5 40t-4.5 46q0 27 5.5 40t13.5 26v2q-4 12 -8 22t-6 17.5t-2 11.5v14q0 2 -1.5 6t3.5 13q2 18 8 43.5t18 48t32.5 36t51.5 5.5q18 -4 31.5 -15.5t21.5 -21.5 l7 -6q4 -4 8 -13.5t4 -13.5t-2 -17.5t-8 -27.5v4q-6 -18 -12.5 -41.5t-6.5 -36.5q0 -4 2 -22.5t4 -38.5q4 -18 5 -36.5t1 -22.5q0 -8 -2 -31t-4 -45q-4 -23 -5 -40.5t-1 -21.5v-14l2 -14q2 -13 4 -29t5.5 -31.5t3.5 -19.5q-2 -4 2 -18.5t10 -30.5q6 -18 14 -39v-21 q10 -25 20.5 -62.5t10.5 -64.5q0 -14 -2 -16q18 0 27.5 -9.5t9.5 -50.5l92 -92q4 -4 7 -13t3 -13q0 -14 33 -19q39 35 62.5 47.5t45.5 22.5l-2 -2q14 6 22.5 8t24.5 16v9q0 16 10.5 30.5t24.5 24.5l13 14l10 17q10 14 20 33.5t23 31.5q4 4 8 15.5t12 21.5q-8 14 4 33l6.5 13 t6.5 15q4 12 7 24.5t13 27.5q6 8 13.5 24.5t13.5 36t9 37.5t3 29q2 6 4 14q2 6 4 13t4 12q0 2 2 2q0 37 3.5 76.5t3.5 74.5l8 17v2q4 20 4 28q0 23 -3 36t-7 24q-8 23 -9 45q0 16 3.5 24t9.5 19v-2q2 4 4 10t2 27q0 16 -2 26t-6 19v-2q-4 10 -7.5 18t-3.5 20q0 8 -1 22.5 t-1 29v26v15.5q0 16 10.5 27.5t26.5 11.5t37 -6.5t38 -18.5t29.5 -29.5t12.5 -40.5v-856q0 -4 -4 -14t-8 -12l-4 -4q0 -8 1 -17.5t1 -19.5q0 -33 -4.5 -48.5t-8.5 -25.5q6 -14 16.5 -43t10.5 -53q0 -10 -7 -23.5t-18 -27.5q10 -12 9.5 -31t-15.5 -29q6 -23 7 -48.5t1 -45.5 q0 -16 -11 -27.5t-28 -11.5q-33 0 -68.5 13.5t-35.5 45.5v121v0z" />
<glyph unicode="V" horiz-adv-x="989" d="M-16 1204q0 16 11 27.5t28 11.5h65q16 0 27.5 -11t11.5 -28q0 -23 16 -33l-2 3q20 -16 35 -41l-6 4q6 -10 17.5 -31t23.5 -45.5t24.5 -47t18.5 -34.5l22 -57q6 -12 11.5 -25.5t9.5 -24.5q18 -53 18 -75v-27q12 -12 15 -25q12 -4 21 -12t9 -26q4 -4 9.5 -12.5t5.5 -37.5 q-2 -2 -2 -6q-2 -4 -2 -6t-2 -6q16 -12 16 -29q16 -25 26.5 -47t14.5 -41q0 -4 1 -8t9 -20q0 -4 2 -5l5 -10l6 -12q2 -8 4 -14q0 -4 -3.5 -15.5t-7.5 -21.5l-2 -2q4 -4 11.5 -19.5t11.5 -19.5q4 -10 11 -38t18 -56l12 18l-2 -2l8 16q4 16 16 39v-2q4 10 8.5 21.5t4.5 21.5 q0 4 4 13.5t8 13.5t4 20l74 213l22 74q14 55 31.5 102.5t46.5 81.5q16 16 18.5 28.5t2.5 35.5q6 10 7 16t1 15q4 23 15 57.5t42 95.5q6 16 9 30.5t10 24.5q8 20 15 37t7 27q0 16 10.5 27.5t26.5 11.5h33q39 0 39 -39q0 -2 -1 -10t-1 -19v-28q0 -18 -9.5 -51t-19.5 -62v2 q-10 -23 -12 -37l-4 -16v-66q0 -25 -6.5 -35t-20.5 -18q-2 -4 -4 -10q-2 -4 -3 -11.5t-3 -11.5v2q-6 -23 -14.5 -43t-20.5 -33q-12 -12 -28.5 -44.5t-29 -66.5t-20.5 -62.5t-6 -34.5q4 -6 5 -17.5t-3 -19.5q-8 -16 -8 -27q-4 -10 -9.5 -27.5t-25.5 -56.5q0 -2 -6 -12 t-10 -14q-4 -6 -7.5 -9.5t-5.5 -11.5v-12l-6 -18q-6 -17 -13 -39.5t-15.5 -44t-14.5 -31.5l-18 -52q-8 -27 -14.5 -46t-16.5 -35q-4 -12 -7 -25.5t-7 -22.5q-6 -14 -10.5 -27.5t-4.5 -29.5q0 -39 -39 -39q-12 0 -40.5 6t-49.5 19l13 -2q-16 8 -34 41.5t-34 73.5t-26.5 77 t-10.5 53q0 6 -4 22.5t-8 18.5t-9.5 9.5t-7.5 11.5l-10 45q-4 12 -5 24.5t-1 16.5v24q0 -2 -3 5.5t-8 17.5t-11.5 22.5t-10.5 22.5q-4 6 -8 18q-2 6 -4 11q0 4 1 10t1 12l-6 17l-8 24t-6 15q-4 4 -7.5 13t-3.5 13v21q-2 -2 -5 3t-7 9q-12 12 -18 37q0 29 -4.5 41t-14.5 28 v-2q-8 12 -19.5 36t-35.5 81q-8 6 -16.5 16.5t-12.5 38.5v-2q-25 90 -69 90q-16 0 -27.5 11.5t-11.5 27.5v121z" />
<glyph unicode="W" horiz-adv-x="1390" d="M518 358q0 -2 -2 -2h2l-2 -2q-4 -6 -8 -23.5t-8 -34.5t-8.5 -32.5t-4.5 -19.5q-23 -76 -40 -116t-27 -56q-6 -12 -13.5 -24.5t-31.5 -29.5q-6 -2 -26.5 8.5t-43 23.5t-41 25.5t-20.5 14.5v12q-12 8 -20.5 18.5t-8.5 29.5v36l-16 58q-4 16 -9.5 34.5t-3.5 14.5l-8 37v-2 q-6 29 -13 62.5t-11 43.5q0 8 -7 15h3q-10 14 -15.5 25t0.5 26q-4 29 -12 56.5t-12 49.5l2 -2q-16 66 -17 74q-14 37 -16 59.5t-8 53.5q-6 41 -14.5 89t-22.5 97l-2 8q0 -4 -1 -2t-1 6q-10 14 -11 37v51h-2l-2 4q-4 10 -8 15.5t-4 21.5q0 8 6 19q-10 23 -11 48t-1 46 q0 16 11 27.5t28 11.5q25 0 61.5 -6.5t59.5 -42.5v-35q0 -20 -2 -31.5t-13 -21.5q0 -10 2 -28t13 -54q6 -41 14 -58q10 -18 17.5 -42.5t11.5 -67.5v-13q0 -8 -1 -15t-1 -13q8 -4 12 -9.5t6 -19.5q6 -16 10 -38.5t9 -45.5v2l12 -53v-4q6 -6 10 -13.5t4 -19.5t3 -30.5t7 -35.5 q2 -10 3 -14t1 -20v-54l-18 2q23 -14 43.5 -48.5t20.5 -100.5q0 -4 6 -13.5t10 -15.5l14 -22q0 4 2 6q20 39 26.5 63.5t14.5 53.5l-2 -9q2 4 2 11q0 18 11 39q4 8 4 16q2 4 11 35t20.5 67.5t19.5 70.5t8 44v45q0 10 8 21.5t19 15.5q4 0 4 6v12q0 8 -1 16.5t-1 14.5 q0 20 9 34.5t21 27.5v14q0 10 12.5 22.5t30 23.5t34 18.5t24.5 7.5q2 0 10 -2t19.5 -6.5t21.5 -8.5t16 -8q29 -12 42.5 -32.5t23.5 -41.5q4 -8 -6 -8q10 -4 18 -10t12 -14q4 -16 5.5 -21.5t5.5 -9.5q4 -6 11 -17.5t21.5 -37t35 -68.5t53.5 -111q10 -10 15 -19t5 -26v-10 l8 -14q16 -12 27.5 -31.5t25.5 -44.5q6 -10 12.5 -22.5t14.5 -22.5q2 37 8 77t19 79v2q-10 10 -12.5 24t8.5 25q10 14 16 30.5t6 20.5v65q0 10 4 29t10 37q4 18 9.5 37.5t5.5 40.5v63q0 8 7 26.5t11 29.5q2 59 13.5 100t21.5 70q4 12 6 20t2 12q0 8 -1 17.5t-1 17.5v15 l12 57q0 2 1.5 3t1.5 3t2 4q0 37 13 67.5t29.5 52t34 33t23.5 11.5q12 0 34.5 -16.5t32.5 -55.5q-2 -49 -11 -78.5t-13 -48.5q-4 -12 -4 -16q-4 -12 -7 -30.5t-8 -39.5q-4 -35 -10 -70.5t-22 -58.5q0 -41 -6.5 -70.5t-14.5 -54.5v2q-4 -16 -8 -29.5t-4 -27.5q0 -10 1 -23.5 t1 -23.5v-19q0 -18 -4 -49.5t-8 -56.5q-6 -29 -12.5 -65.5t-10.5 -59.5q-10 -10 -10 -12q0 -10 1 -21.5t1 -21.5v-15q0 -6 -5 -17t-11 -15v-35q0 -29 -21.5 -95.5t-64.5 -134.5q-10 -6 -31 -9t-29 -3q-51 0 -61 14.5t-13 40.5v3v2l-18 6q-6 2 -10 4l-31 51q-39 66 -66.5 128 t-39.5 91q-4 10 -6.5 19.5t-2.5 11.5v10q-39 20 -55 64q-12 18 -20.5 34.5t-14.5 30.5l-12 25l-2 8v-2l-43 78v-17q0 -20 -5 -25t-9 -10v-36q0 -16 -9 -29q-4 -6 -11 -22.5t-9 -39.5q-2 -10 -9 -39.5t-16.5 -63.5t-18.5 -62.5t-13 -34.5l-7 -8v-13q0 -16 -4 -25.5t-8 -15.5 v2v0z" />
<glyph unicode="X" horiz-adv-x="872" d="M162 88q0 37 7 67.5t36 45.5v12q0 27 3 41t9 29v-2q2 4 3 7t3 13q4 10 11.5 19.5t21.5 13.5q-10 0 -10 2t2 6q6 12 11 21.5t11 19.5q4 16 15.5 47t25 64.5t27.5 63.5t27 46l8 6v4q0 2 4 9q4 8 12 16v-8q4 20 -15.5 45.5t-39.5 46.5q-23 41 -48.5 73.5t-47.5 61.5 q-16 18 -28.5 36.5t-23.5 37.5q-39 37 -49 50t-22 30l-41 47l-4 2l-47 20q-4 2 -12.5 10.5t-8.5 12.5q-4 6 -8 19.5t-7 27.5t-6.5 26.5t-3.5 16.5q0 16 11.5 27.5t27.5 11.5h97q16 0 26.5 -11.5t12.5 -25.5q14 -10 18 -37l10 -8q16 -16 28.5 -31.5t14.5 -42.5q2 4 13.5 -6 t27.5 -24t35.5 -31t36.5 -37q10 -10 18 -24.5t15 -30.5l10 -19q20 -27 50 -62.5t42 -51.5l43 75q16 29 33.5 57.5t32.5 51.5l41 78v-2l26 55l-2 -2q8 16 24.5 38.5t32.5 51.5l35 51q0 4 4 21q6 23 11.5 41t42.5 18l-15 -4q12 2 38 -13.5t34 -29.5l-2 8l20 -55q-2 -8 -4 -17 l-4 -16t-4 -12q-8 -16 -17.5 -30.5t-11.5 -16.5q-6 -6 -16 -31q-10 -23 -26.5 -60.5t-57.5 -99.5l-27 -12q6 -8 1 -23.5t-14 -32t-16 -27.5t-5 -11l-2 -4l-25 -23l-6 -4l-17 -37q-18 -43 -34.5 -80t-16.5 -41t8.5 -25.5t21.5 -50t28.5 -60.5t29.5 -54l-4 -2q16 -23 37 -54.5 t41 -66.5l51 -104q0 -4 -1 -15.5t-1 -17.5t2 -10q16 -6 21.5 -20.5t9.5 -37.5q2 -10 3 -18t5 -13q10 -20 1 -38.5t-34 -18.5h-8q-4 0 -8 -1t-6 -1q-43 0 -53.5 9t-16.5 32l-22 31q0 20 -2 26.5t-6 12.5q-10 12 -22.5 30.5t-29.5 53.5q0 2 -3 17t-6 30.5t-7 28.5l-4 14 q-35 0 -39 32v-2q-4 8 -13.5 32t-18.5 46.5t-16 41t-9 18.5t-9.5 -5.5t-13.5 -9.5l-14 -30q-10 -18 -18.5 -36t-18.5 -30q-12 -12 -21.5 -28.5t-5.5 -30.5l-8 -15q-4 -18 -13 -43.5t-20.5 -52.5t-21.5 -52.5t-19 -41.5v-14q0 -8 -6 -23q-4 -12 -14 -31.5t-29 -50.5 q-8 -12 -20.5 -14t-23.5 2t-19 13t-8 22q-16 10 -23.5 23t-7.5 38z" />
<glyph unicode="Y" horiz-adv-x="901" d="M428 -317q12 -4 18 -5q14 12 43 23l3 2q8 4 12 0q8 29 25.5 50.5t29.5 31.5q2 8 6 15t8 18l-2 -2q10 27 21.5 57.5t11.5 34.5v31.5t1 30t4 16.5t12 -9q-4 8 -3.5 25.5t4 37t6.5 38t3 28.5q0 35 -10 66v145l-37 -79l-23 -31l2 2l-10 -19l-39 -36q-4 -2 -11 -12.5 t-14 -22.5v2q-12 -23 -26 -37t-37 -16l-4 -9q-33 -20 -75 -28t-62 -8h-56q-23 0 -49 2q-12 2 -25.5 11t-23.5 17q-10 2 -22.5 11.5t-22.5 19.5q-12 12 -27 29l2 -2q0 8 -2 16t-3 15.5t1 17.5q-8 10 -15 19t-7 32v12q-6 6 -10.5 16.5t-4.5 16.5v57q0 4 -4 13q-12 18 -12 36 q0 12 12 25q-4 18 -8 38.5t-4 27.5v335q-12 12 -12 21l-17 80v82q0 16 2.5 36.5t6.5 41.5q4 23 8 49q2 12 13 21t24 9h61q14 0 24.5 -10t12.5 -24l16 -105q0 -6 -4 -16t-8 -15l-6 -6q4 -14 18 -34v-27l-16 -43q0 -8 -1 -26.5t-1 -39.5v-67v-63.5t2 -49t5 -45t7 -55.5l4 -33 l15 -70v-34l14 -74q0 -8 -2 -12q8 -4 13 -8.5t5 -16.5l31 -47q0 -4 -1 -9t-1 -12l-8 2q4 -4 6 -4h2v-4q0 2 2 4l21 -10q-4 6 5 7t19 -1q14 -2 25.5 -2t15.5 -2q10 10 23.5 19.5t27.5 13.5q2 0 8.5 -1t10.5 -1q12 0 24.5 11t22.5 28.5t18.5 36t12.5 32.5q4 20 20 27 q6 6 12.5 11t12.5 14l8 8q2 2 7 17.5t9 27.5q31 125 58 119l6 24l30 66q4 10 8.5 20t4.5 8q14 23 14 41.5t4 36.5q2 16 4 31.5t8 28.5l-12 96q0 6 3 16.5t7 14.5l11 10q0 2 4 6l4 4v223q0 6 2 11v2q-2 6 -2 12q-2 6 -2 20q0 25 9 35t19 23q4 4 13.5 7t13.5 3h43 q6 -4 14.5 -14.5t17.5 -22.5t16 -23.5t7 -15.5v-217q0 -8 -4 -29.5t-10 -37.5l-8 -302q-2 -41 -11.5 -64.5t-19.5 -37.5q0 -4 1 -11t1 -16q0 -8 -1 -23t-3 -30q12 -31 12 -82q2 -6 2 -17v-22q0 -20 -1 -42.5t-1 -34.5l-14 -76q0 -2 1 -3t1 -5q2 -4 2 -14.5v-16.5 q0 -14 -1 -39t-3 -43q-2 -10 -2 -15.5v-9.5v-8q0 -4 -6 -23.5t-14 -41.5q-8 -27 -21 -60q-2 -14 -7 -30.5t-13 -34.5q-8 -23 -19.5 -49.5t-11.5 -40.5l-37 -62q-18 -23 -29 -57l-88 -51q-4 -12 -15 -14.5t-28 -2.5q-10 0 -30.5 2t-38.5 4q-37 6 -56 6l4 5q-2 0 -6 -5h2h-2 q-12 -4 -18 -4q-8 0 -17.5 2t-19.5 7q-6 4 -14.5 7t-14.5 5q-8 -6 -20 -6q-27 0 -38 12t-26 23q-14 10 -12 12q-14 2 -21.5 9t-17.5 22l-31 43q-4 0 -34.5 7t-40.5 27q0 4 8 20.5t19.5 35t23.5 33t22 14.5q4 0 14.5 -3t18.5 -7t10 -7q2 -2 4 -2q6 0 29 -13t43 -28l4 -8 q0 -2 2 -2q12 0 25.5 -7t25.5 -15q8 -4 18.5 -8.5t6.5 -6.5q8 -4 26.5 -9t30.5 -11l13 -6q4 2 8 1t10 -1q6 -2 14 -2q6 0 13.5 -1t11.5 -1zM219 184q2 2 4 0h-4zM217 184v2l2 -2h-2z" />
<glyph unicode="Z" horiz-adv-x="1005" d="M33 68q2 4 2 8q0 8 2 10v4q4 18 4 22.5v6.5q0 10 2 17t14 26q6 8 18.5 25.5t33 49t52.5 80t77 119.5q8 16 21 31.5t26 26.5q4 6 14 15t14 19q66 82 131.5 146.5t108.5 107.5l35 33q16 23 38.5 45.5t45.5 42.5l39 37q6 4 14 10t18 17q12 8 28.5 20t31 23.5t24 20.5t9.5 16 q0 8 -41 16t-103 8q-84 0 -169 6t-161 17q-72 8 -144.5 13t-137.5 5q-16 0 -27.5 11.5t-11.5 27.5v74q0 16 11 27.5t28 11.5q41 0 85 -3.5t75 -17.5h34q25 -2 77 -8t114 -14q51 -6 92 -10.5t47 -4.5q33 0 60.5 -2t80.5 -12q82 -16 126 -31.5t64.5 -35t23 -45t-0.5 -62.5v-35 q-8 -23 -22 -33t-31 -18h2q-2 -2 -3 -2t-3 -2t-4 -2q-2 -4 -5 -12.5t-7 -12.5l-230 -229q-6 -29 -33.5 -49.5t-56.5 -42.5l4 4q-59 -51 -95 -86t-71.5 -78t-79.5 -107.5t-118 -177.5l31 6l55 11q23 0 43 5t41 11q23 6 48.5 11t43.5 5q6 0 12 -1t15 -1q14 14 47 15h32 q23 18 80 30h17q6 0 15 -1t17 -1q4 0 7.5 1t9.5 1q10 0 35.5 7.5t56.5 16.5t61.5 16t49.5 7q16 0 27.5 -11t11.5 -27v-21q0 -25 -1.5 -42t-16.5 -30.5t-49 -21.5t-95 -15q-25 0 -38 1.5t-24 3.5l-37 -21q-12 0 -24 -6q-29 -10 -73 -23.5t-95 -13.5q-20 0 -29 10 q-6 -6 -14 -13t-19 -15q-6 0 -9 -2t-7 -4q-20 -10 -36.5 -12.5t-31.5 26.5l-2 2l-16 -10q2 -2 -6 -7.5t-12 -5.5q-23 -4 -55.5 -10t-43.5 -6h-65q-10 0 -11 -2t-10 -6q-6 -4 -13 -6t-19 -2q-33 0 -37 30q-16 4 -27.5 12.5t-11.5 41.5z" />
<glyph unicode="[" horiz-adv-x="526" d="M0 522l-8 543q4 10 10 44t6 44q0 66 17.5 111t40.5 67q55 55 112.5 69.5t87.5 14.5h51q10 6 26.5 12.5t39.5 6.5q33 0 47 -6.5t25 -14.5q14 -2 24 -12t10 -25v-57q0 -23 -16 -33t-35 -4q-10 -4 -21 -4h-22q-14 0 -27.5 1t-23.5 1h-10q-10 -14 -26.5 -15t-28.5 9 q-10 -6 -13 -6l-16 -4q-25 0 -35 10q-6 -6 -11 -14.5t-9 -16.5v-2l-11 -14q-14 -43 -19 -64.5t-5 -34.5v-129q0 -16 -4 -43.5t-9 -50.5q0 -6 -2 -10l15 -16q0 -29 -1 -33t-3 -15l-13 -90v-8q0 -4 6.5 -32.5t10.5 -51.5v-606q2 4 10 5t16 1q35 -4 95.5 1t105.5 11h-2 q37 6 57 7q16 0 27.5 -11.5t11.5 -27.5q0 -45 -32.5 -87t-104.5 -42q4 0 -21.5 5t-41.5 9q-35 0 -74 2t-84 12h4q-4 0 -16 4q-6 2 -11 2q-10 10 -18 15.5t-16 11.5q-23 16 -40.5 33.5t-17.5 48.5l-8 420v59z" />
<glyph unicode="\" horiz-adv-x="577" d="M414 -4q0 4 -4 8q-23 45 -33 82t-10 57q-29 49 -42.5 90t-23.5 84q-10 35 -22.5 72t-34.5 86q-2 2 -2 8q0 4 -1 9.5t-1 9.5v-2q-4 14 -5.5 28.5t-1.5 12.5l-131 397l-20 57q-6 12 -12.5 37t-14.5 53q-6 25 -9 50.5t9 29.5h-8q-16 0 -27.5 11.5t-11.5 27.5q0 6 -2 33 t-4 35v4q0 2 -1 2t-1 2l-2 4l-2 2q-6 12 -9 39t-3 37q0 16 11 27.5t28 11.5q41 0 64.5 -13.5t37.5 -36t20.5 -50t10.5 -58.5q6 -14 9 -29.5t5 -21.5v-49q2 2 6 0q10 -10 17.5 -21.5t7.5 -29.5v-27q6 -12 6 -25q0 -18 12 -45.5t25 -56.5l32 -74v-28v-19q2 2 4.5 -2t4.5 -6 q4 -4 9 -11t7 -14q2 -4 5 -20t7 -33q2 -18 4 -28.5t2 -14.5l31 -67l15 -29q0 -6 1 -14.5t1 -18.5q2 -6 6 -17.5t8 -21.5q0 -8 4 -32.5t8 -45.5q2 -8 3 -13t1 -9l11 -17q16 -16 24 -30.5t10 -42.5q2 4 3 -5.5t4 -9.5h-3q6 -10 11.5 -19t3.5 -20l10 -26v-29q0 -4 7 -11t3 -28 q4 10 10.5 6t14.5 -15t14 -27.5t10 -28.5l17 -64l16 -59q0 -2 1 -14.5t3 -28.5q4 -23 7.5 -32t3.5 -44q0 -31 -8.5 -45t-22.5 -25q-14 -12 -31.5 -8t-26.5 21l-12 32q2 0 1 -9t-3 -13t-4 4t-2 45q-2 -14 -12.5 -7t-20.5 25.5t-19 41t-9 36.5v17q0 4 1 6t1 6z" />
<glyph unicode="]" horiz-adv-x="557" d="M20 10q25 0 54 -12q27 10 60.5 16t47.5 6q4 -4 18.5 -9t16.5 -5q29 0 53 10q-2 47 -2 144.5v212.5v205.5t2 140t4 106.5t9 107q0 8 8 33l-2 -2q2 6 3 18t3 21.5t3 11.5t1 -8v41q0 18 6 47.5t15.5 61.5t19.5 61.5t20 48.5q2 14 9.5 21t17.5 18q4 4 4 14q0 4 4 6h-348 l-16 -12q-20 -10 -38 1t-18 34v45q0 12 8.5 23t22.5 16l244 47q23 -10 66.5 -20.5t95.5 -10.5h32q51 0 59.5 -38t8.5 -110v-49q0 -10 -1 -22t-1 -17q0 -6 -5 -17t-11 -15q-10 -6 -14.5 -18.5t-8.5 -28.5v2q-4 -12 -4 -21q-2 -10 -8 -23.5t-13 -25.5q-10 -25 -10 -35t1 -20.5 t1 -20.5q0 -14 -18 -33v-6q0 -10 1 -23.5t1 -27.5v-18v-74t-16 -45v-795q0 -29 -15.5 -46t-44.5 -27.5t-68.5 -15.5t-89.5 -9h-4q-10 -10 -30.5 -14.5t-49.5 -4.5q-53 0 -87.5 31t-34.5 90z" />
<glyph unicode="^" horiz-adv-x="579" d="M342 1294q10 0 27.5 -16t29.5 -35q16 -4 21.5 -17.5t11.5 -33.5q4 -10 7 -19.5t10 -19.5q12 -37 29.5 -89t33.5 -104.5t27.5 -96.5t13.5 -62q0 -16 -11.5 -29.5t-27.5 -13.5q-2 0 -3 1t-3 1q-6 0 -10 2l-2 -2q-2 0 -7.5 -1t-7.5 -1q-43 0 -58 21.5t-30 62.5q-4 8 -4 16 h-2v6q-6 33 -10 52.5t-7 33t-8.5 25.5t-13.5 33l-59 133q-4 -4 -4 -6q-2 -2 -2 -5q-6 -10 -12.5 -23t-10.5 -28q-6 -16 -16.5 -36.5t-20.5 -28.5l-4 -19q-8 -27 -17 -52t-14 -32l2 9l-2 -7q-6 -23 -16 -34t-18 -23q-6 -6 -5 -2t-4 -6q0 -12 -9 -26.5t-22.5 -28t-32 -22.5 t-36.5 -9q-29 0 -49 18q-4 4 -7 14.5t-3 14.5t1 11t1 14q2 16 3 33.5t7 27.5q4 10 18 25l23 24l12 6q2 8 2 13.5t19 31.5q4 4 14 18.5t10 43.5q0 20 17 30q10 6 13 19.5t5 23.5q0 2 2 6.5t2 6.5q0 16 9.5 28.5t19.5 30.5l22 35q2 4 2 10v8q0 16 11.5 27.5t27.5 11.5h115z M498 762q-8 0 -15 8q5 -6 15 -8z" />
<glyph unicode="_" horiz-adv-x="989" d="M440 182q4 -2 9 -2q4 0 7 -1t7 -1q8 -4 17 -7t14 -3q4 0 7 1l9 3q10 4 23.5 7t37.5 3h88q23 0 52.5 3t56.5 8q16 2 28.5 3t22.5 1l2 4q4 4 12.5 7t16.5 5h-2q27 4 42 -5t24.5 -27.5t12.5 -44t3 -56.5q0 -39 -39 -39q-27 0 -43 14q-20 -10 -31 -10q-20 0 -26.5 5t-10.5 11 q-4 0 -4 5q0 -2 -2 -3.5t2 -1.5q-39 -2 -71.5 -3t-61.5 -5q-68 -6 -149 -6q2 0 -6.5 -5t-18.5 -9l2 2q-29 -18 -51 -19h-135h-15q-12 -16 -30 -16q-14 0 -31 12q-10 -4 -18.5 -7t-12.5 -5h4q-8 0 -28.5 -1t-44 -2t-44 -2t-26.5 -1q-16 0 -27.5 11t-11.5 28q0 41 15.5 63.5 t41 31.5t59.5 10t72 1h17l33 17l14 8q29 16 47 -12q27 16 57 16h33l2 2q6 2 12.5 3t4.5 -1q4 4 13 7t13 3h6v0z" />
<glyph unicode="`" horiz-adv-x="462" d="M418 1343q-6 0 -27.5 3.5t-46.5 12.5t-46.5 24.5t-27.5 39.5q-45 39 -85 75t-81 79q-12 6 -27.5 17.5t-29.5 24.5t-24.5 26.5t-10.5 25.5q0 6 9.5 20.5t22.5 28t26.5 24.5t19.5 11q14 0 25.5 -9t21.5 -20l15 -16q2 2 8 0t12 -6l-2 2q16 -10 34.5 -21.5t22.5 -15.5 q6 -6 10.5 -14t12.5 -19q6 -14 10 -14q0 -2 1 -2t1 -2q8 -16 8 -23v21l19 -8q25 -25 54.5 -60t54 -68.5t42 -60t17.5 -37.5q0 -16 -11.5 -27.5t-27.5 -11.5zM264 1618q4 0 4 2q0 -2 1 -2t1 -2q-2 0 -3 1t-3 1z" />
<glyph unicode="a" horiz-adv-x="716" d="M229 -14q-37 0 -55 16q-12 -4 -27 -4q-6 0 -25.5 14.5t-42 37t-39.5 50t-17 52.5v4q-4 4 -9.5 12t-5.5 18v27h-2q-2 0 -7 16.5t-9 38t-8.5 42t-4.5 30.5q0 23 7 35q-8 10 -9 26q0 25 29 25l4 2v80q0 20 23 33h-4q0 6 1 18t7 25.5t16 23.5t29 10q6 0 7 12.5t-1 25t-3 20.5 t-1 0l33 67l22 23l6 4q4 23 20.5 36t33.5 23q0 -4 2 -8v17q16 25 36.5 41t45.5 16q2 0 19 7t39.5 15.5t47.5 15.5t39 7q20 0 29 -18h20q6 0 28.5 -10.5t46 -26t42 -36t18.5 -38.5q0 -20 -16 -31v-4q0 -14 -12 -26q12 -25 12 -45h-12q12 -2 20 -13.5t8 -23.5l2 -90 q4 -2 8.5 -11.5t4.5 -13.5v-47q14 -18 14 -39v-31q6 -8 9 -14t3 -19l-4 15q4 -16 9.5 -50t9.5 -63q4 -35 12 -49t8 -39v-31q4 -37 15.5 -54t11.5 -34q0 -43 -14.5 -62.5t-55.5 -19.5q-43 0 -67.5 17.5t-24.5 42.5q0 12 8 24q-2 10 -6 31t-7 42.5t-5 37.5t-2 20 q0 29 -9.5 51.5t-13.5 59.5q-4 -10 -9 -21.5t-9 -15.5q-10 -10 -19 -18q-6 -8 -11 -14.5t-5 -4.5l-2 -39q-6 -18 -12 -34q-4 -14 -11.5 -28.5t-11.5 -19.5q-18 -18 -47 -45.5t-58.5 -53t-55.5 -44t-36 -18.5zM158 201q0 -10 -15 -25l35 -26h17q31 0 36 4t11 14l2 2 q6 10 11 21.5t21 27.5q6 14 13.5 23.5t15.5 19.5t18.5 25.5t24.5 46.5l8 10q0 20 10.5 41l20.5 41t18.5 40.5t4.5 41.5l18 39q2 4 3 18.5t3 35t5 43t10 42.5q0 23 12 43.5t12 36.5q-8 27 -41 27q-8 0 -26.5 -9.5t-28.5 -9.5h-33l4 -4q-8 -10 -18.5 -20.5t-18.5 -14.5l-2 -2 q4 -12 4 -14q0 -20 -39 -35q-4 0 -11 1t-9 1q-20 -29 -37 -55q-14 -23 -25.5 -49.5t-11.5 -42.5l-10 -37q0 -20 -4 -21.5t-10 -5.5q0 -6 1 -11t1 -9q-16 -29 -15.5 -38t-5.5 -22q6 -10 6 -20q0 -16 -12 -25l-8 -8h2q0 -29 16.5 -64.5t16.5 -76.5z" />
<glyph unicode="b" horiz-adv-x="811" d="M399 -14q-68 0 -126 9t-89 36q-10 -12 -26 -13h-80q-20 0 -31.5 39t-17.5 96.5t-8.5 125t-2.5 124.5v46q0 94 -2 194t-5 191.5t-7 165t-10 114.5q39 57 88 57q23 0 40 -4t34 -30q2 -16 0 -31q2 -8 3 -16.5t-3 -14.5q2 -8 2 -18q-2 -10 -2 -36v-54v-53.5t2 -34.5 q0 -6 4 -19q4 -16 6 -22t4 -11q0 -4 -3 -15t-7 -19q-2 -4 -2 -7q0 -2 -2 -2l14 -39v-30q-2 -4 -8 -17.5t-6 -15.5q0 -10 3 -29.5t7 -36.5q4 -20 4 -26q6 16 16.5 28.5t20.5 22.5q8 8 13 18.5t5 34.5q6 8 24.5 26.5l39 39l39 39l28.5 28.5q18 16 39 20.5t54 4.5h12 q47 0 67.5 -9t36.5 -22q8 -6 39 -18q12 -10 31.5 -34t40 -51.5t35 -54t14.5 -40.5v-275q0 -10 -6 -19.5t-12 -13.5q-4 -16 -7.5 -31.5t-5.5 -29.5q-2 -10 -10 -31.5t-12 -32.5l2 3l-31 -43q-10 -12 -19.5 -29t-15.5 -29t-7 -16t5 8q8 -8 -2 -18.5t-25.5 -19.5t-27.5 -16 t-6 -7l-88 -23q-20 -8 -37 -11t-23 -3zM205 203q-4 -6 -6 -35t-2 -64l16 13q2 -2 20.5 -2h28.5q2 0 19.5 2t44.5 2q20 2 43.5 5t42 6t30 3t4.5 -6q35 10 51.5 28.5t22.5 39.5q6 35 17 53q2 4 11 13t19 18l13 22q10 33 12 59.5t2 69.5v51q0 14 -1 41t-1 43v15q0 16 -9.5 41.5 t-21.5 50t-25.5 42t-21.5 17.5h-102l-56 -84l-49 -82v-2l-4 -10q-4 -10 -9 -25.5t-7 -25.5q0 -6 -4 -15.5t-9 -17.5q-4 -16 -7 -32.5t-7 -35.5v-28q0 -29 -16 -41q0 -4 1 -5t1 -3q0 -12 -8.5 -32t-16.5 -36v2q-4 -14 -6 -14q2 -2 2 -8v-9q0 -4 -4 -12t-8 -12z" />
<glyph unicode="c" horiz-adv-x="671" d="M571 659q-10 0 -23 3.5t-24 17.5q-23 4 -36 16.5t-23 26.5q-6 4 -10 9t-9 7q-2 2 -17 3t-33.5 3.5t-35 3.5t-20.5 1h-4q-10 -10 -22.5 -17.5t-24.5 -11.5l-19 -10v-4q0 -2 -4 -11l-10 -16q-49 -49 -73.5 -104.5t-37.5 -153.5v2q-4 -8 -4 -14q-8 -12 -10 -21.5t-2 -30.5 q0 -16 1 -24t5 -15q4 -8 8 -17t4 -23q0 -16 -4 -29q16 -39 37 -60.5t53.5 -33t79.5 -13.5t119 -2h62q23 16 52 30.5t40 14.5q23 0 37 -22.5t20 -38.5q2 -66 -24.5 -91.5t-69.5 -25.5q-10 0 -23 6q-4 -4 -8 -4q-6 -6 -13 -11t-16 -5h-178q-2 0 -14 4q-8 -4 -12 -4 q-37 -4 -56.5 5t-35.5 26q-18 2 -42 9t-45.5 18t-36 28.5t-14.5 40.5q0 2 1 1t1 3l-14 18l6 -18q-20 29 -22 43t-2 25l-2 2q-6 6 -8.5 16t-0.5 20q-2 -2 -2 -4v-2h-2q-10 12 -19 25.5t-9 36.5v10l12 70v2q-12 10 -13 24.5t9 24.5q-10 20 -10 57q0 47 12 65.5t28 30.5l5 2 q2 0 2 2q0 4 -1 11.5t-1 13.5q0 4 1 10t1 8q16 43 36.5 85t51 79t72.5 63.5t104 39.5q8 2 20 -4q10 14 29 14q2 0 19.5 -2t38 -4t38 -4t21.5 -2q16 -4 24 -25l2 -4h9q2 0 14 -5t26.5 -12.5t30 -17.5t25.5 -20q23 -23 25.5 -44.5t2.5 -47.5v-7q0 -16 -14.5 -28.5t-30.5 -12.5 z" />
<glyph unicode="d" horiz-adv-x="772" d="M20 180q0 -6 19 -6q-18 4 -27 16q-16 23 -18 38.5t-2 62.5v32.5t2 21.5t6 19.5t12 26.5q10 10 16.5 30.5t10.5 41.5q4 23 10 42t17 32q12 33 26 61.5t49 63.5q4 25 17.5 32.5t29.5 18.5q6 4 12.5 11t6.5 24q33 41 56.5 51t39.5 14q6 0 10 4q14 14 22.5 18.5t31.5 4.5h14 q6 25 33.5 27.5t38.5 -19.5q16 14 36 0q12 6 15 6l10 -2l2 2q0 49 5 112.5t12.5 121t16.5 101.5t21 54l7 17q6 8 16 10t20 0q2 0 2 -2v2q16 -4 41 -13.5t25 -33.5l4 -9q2 -4 3 -9t5 -9q4 -20 8 -29q2 -8 7 -16v-14q0 -16 1 -41t1 -37t-1 -37t-1 -41v-16q0 -43 -8.5 -88.5 t-16.5 -85.5q-16 -76 -16 -109v-41q6 -27 -15 -41q-2 -27 1 -38t8 -21v2q8 -14 8 -43v-13q0 -14 -1 -33.5t-1 -35.5t1 -23.5t5 -17.5l10 -35v-2q0 -4 2 -4q6 -18 14.5 -58t8.5 -100v-19t-4 -20q4 -12 4 -14q0 -14 -13.5 -29.5t-17.5 -19.5q-27 -10 -44.5 -4t-29.5 25.5 t-20.5 48t-18.5 61.5l-12 76q-4 25 -8 44t-4 44l-25 -43q-14 -23 -24.5 -40.5t-12.5 -21.5l-16 -37q-8 -16 -15.5 -32.5t-17.5 -26.5l-33 -35l-12 -16l-8 -10l-23 -35q-6 -8 -18 -14.5t-23 -8.5q-2 0 -2 2l-18 -18q-10 -16 -26.5 -27.5t-41.5 -11.5q-20 0 -32 6 q-23 -12 -43 -12q-16 0 -27.5 11t-11.5 28q-2 0 -2 2v4v4q-6 6 -11 22q0 -20 2 -24q-12 6 -26.5 13t-25.5 18.5t-19.5 29t-8.5 43.5v39zM164 377q0 -41 -5 -76t-26 -57l6 -19l6 -12q4 -6 9.5 -16.5t9.5 -16.5l-2 2l18 -35h15q2 4 11 9.5t11 7.5q16 10 51 37.5t58 64.5 q4 12 13 23.5t19 25.5q10 12 21.5 28.5t11.5 27.5q0 4 4 13t8 13q6 4 15 31q4 16 12 36.5t25 43.5q6 10 22 24q6 10 8 7v18q0 23 22.5 29t39.5 -4q-6 18 -13.5 41.5t-7.5 40.5q0 35 -8 49t-41 14q-14 0 -36.5 -9t-39.5 -16q-16 -8 -30 -8v-4q-10 -33 -31 -43t-37 -14 q-4 0 0 6q-29 -29 -58.5 -61.5t-29.5 -47.5q0 -4 -3 -13t-7 -13q-2 0 -2 2v6l-37 -37q14 0 16 -4t0 -8q-4 -14 -8 -26.5t-12 -22.5q0 -10 1 -18.5t1 -18.5z" />
<glyph unicode="e" horiz-adv-x="765" d="M162 2q-25 6 -31 27q-10 2 -18.5 7t-12.5 15q0 -2 -8 -2q-16 0 -26.5 10.5t-10.5 26.5v2q-10 12 -20 27.5t-19.5 31t-14.5 25.5t-5 12l4 13q-10 18 4 36q-10 18 -15 36t-7 22v18q0 4 -1 11.5t-1 11.5q0 12 10 22q-8 16 -8 27q0 2 3 18.5t9 40t13 51t16 52.5 q-14 6 -18.5 19t-4.5 26q0 16 6 30.5t23 20.5q8 16 28 49q8 14 16.5 30.5t14.5 35.5l35 39l18 22q10 10 25 14q10 6 21.5 14.5t25.5 14.5h-2q16 8 31.5 17.5t31.5 21.5l5 4q8 6 16 12.5t24 6.5q4 0 13.5 -6.5t17.5 -12.5q27 16 49 17q10 0 26.5 -10.5t29.5 -20.5l14 -8 q8 -12 20 -15q4 -2 17.5 -6t3.5 0h6q27 0 36 -2t11 -37q4 -10 15.5 -35.5t46.5 -78.5q2 -41 -2.5 -59.5t-12.5 -27.5q0 -6 1 -12t1 -10l-10 -25q-2 -6 -5 -13t-5 -11q-10 -25 -33 -31q-4 -10 -12 -18l-23 -21l-39 -47q-12 -12 -20 -14v-2l-12 -15q-23 -23 -61 -42t-64 -29 l-58 -35q-12 -8 -24.5 -7t-20.5 7q-10 -4 -16 -6t-10 -2l-19 4l-14 10q-8 -4 -10 -6t-4 -2q-6 0 -7 10v-102q0 -2 10.5 -8.5t25 -13.5t26.5 -14t16 -9l4 -11q8 4 11 4q10 0 22 -8q10 4 17.5 6t17.5 2h22q16 8 27.5 11.5t30.5 9.5q33 10 62.5 22.5t39.5 22.5q6 4 15.5 13.5 l19.5 19.5l23 22q2 2 11 6.5t13 4.5h10q-4 0 -2 5t6 9q10 16 22.5 28.5t35.5 12.5l26 -10q33 -14 39 -22.5t6 -45.5t-16 -52.5t-39 -31.5l-18 -14q-4 -4 -4 -6q-4 -10 -12.5 -19.5t-37.5 -26.5q-25 -12 -43 -20t-37.5 -16.5t-43 -18.5t-56.5 -22l-33 -15q-4 0 -9 -4t-13 -8 l2 2q2 2 -10.5 4t-57.5 2q-4 0 -21 -1t-36.5 -3t-34 -4t-12.5 -2h-4q-2 0 -4 2zM129 434h6q6 0 12.5 -3t12.5 -7q23 4 61.5 16.5t73.5 22.5l4 -2q6 4 12 6t11 6q16 33 31.5 42t31.5 15h-2q4 2 8 4.5t8 6.5l17 14q10 10 18 19.5t25 33.5q0 23 1 41.5t3 40.5q-10 8 -14.5 15.5 t-8.5 17.5l-8 10q-16 16 -30.5 19.5t-41.5 3.5q-20 0 -22 -6q-10 -6 -23.5 -15.5t-35.5 -17.5q-8 -10 -21.5 -15.5t-28.5 -7.5h-4q-4 -4 -19.5 -30.5t-19.5 -42.5v2l-26 -60q-6 -10 -10.5 -20.5t-4.5 -7.5v-31q0 -4 -3 -15.5t-13 -21.5v-33z" />
<glyph unicode="f" horiz-adv-x="761" d="M205 502q0 53 -1 98t-7 64q-10 -4 -18.5 -6.5t-20.5 -6.5l-27 -8q-4 0 -12 1t-13 1q4 -2 -10 -11t-22 -13q-20 -14 -37 -6t-21 28v-8q0 -2 2 -2q-16 0 -27 10t-11 27q0 39 12 65.5t59 26.5h21q10 4 20 7t23 7l39 15q39 10 46 28.5t5 50.5v31q0 12 10 33q0 4 1 5t1 3t2 2 q0 4 3 18.5t6 32t6.5 31.5t3.5 16q4 18 24 25v4q0 20 10.5 29.5t20.5 19.5v19q12 41 39.5 66.5t62.5 25.5q18 0 23 -2q16 14 39.5 21t44.5 14q16 2 14 0q4 4 13.5 7t13.5 3q20 0 29.5 -8.5t19.5 -18.5t28.5 -21.5t59.5 -11.5q16 0 27.5 -10t11.5 -26q0 -25 -9.5 -38.5 t-22.5 -19.5t-27.5 -8t-22.5 -2t-12 2q-14 2 -44 5t-53 9l-14 -8l-12 -12q-2 -4 -11.5 -7t-13.5 -3v-2l-4 -2l-22 -7l-72 -71q-6 -29 -21.5 -77t-29.5 -79q4 -6 7 -15t7 -20l64 13l110 14h12q8 0 16.5 -1t18.5 -1q-2 0 6.5 2t22.5 5t31.5 7t33.5 8l31 9q18 4 31.5 -8.5 t13.5 -30.5v-19q0 -20 -9 -53t-38 -37q-16 -6 -22.5 -8t-28.5 -4q-18 -2 -58 -4t-126 -13q-12 -2 -22.5 4.5t-14.5 16.5q4 -25 0 -31t-8 -8l-21 -10q-16 0 -33 8v-248l17 -47q0 -4 -1 -9t-1 -9t-2.5 -8.5t-6.5 -4.5l15 -30q16 -35 20 -73t4 -46q0 -10 1 -18.5t-3 -16.5 l17 -33q2 -4 1 -14t-3 -14q2 2 3 -4.5t3 -12.5q4 -14 7 -23.5t3 -19.5q0 -16 -10 -27.5t-27 -11.5q-4 0 -29.5 3t-33.5 5q-25 27 -42.5 72t-19.5 70l-28 151v9q-14 45 -19 100q-2 16 -5 34.5t-7 45.5z" />
<glyph unicode="g" horiz-adv-x="802" d="M342 -197q0 6 4 23.5t6 23.5q8 27 36 27t36 -29q0 -2 14 -2q33 0 52.5 19.5t35.5 42.5l-2 -2l21 28v3l10 20q10 16 20.5 36.5t10.5 24.5q0 8 -6 43q-4 27 -7.5 56.5t-3.5 56.5v14q0 10 4.5 40t8.5 46q-10 -12 -21.5 -23t-25.5 -24l-19 -20q-20 -18 -37.5 -23.5 t-34.5 -5.5q-6 0 -8 -4l-11 -11t-11 -9q-23 -8 -49.5 -23.5t-36.5 -26.5q-4 -4 -13.5 -7t-13.5 -3h-20l2 -2q-8 -4 -15.5 -10t-31.5 -6q-27 0 -43 10q-12 -6 -23 -6q-10 0 -22.5 7t-22.5 17q-2 0 -2 1t4 4h-12q-10 0 -34 18t-42 35q-4 4 -7 12t-3 12q-4 -4 -9 11 q-10 18 -22 43.5t-12 66.5q0 12 4 17l12 14q-4 16 -4 24q0 4 5 17.5t12.5 31t15.5 35t14 29.5q0 16 3 32.5t22 43.5q4 4 12 19.5t18 33.5v-2q14 29 27.5 51.5t36.5 26.5l2 4q4 8 16.5 26.5t42.5 22.5q43 43 82 67.5t80 24.5h13.5t13.5 -2q20 14 43.5 22.5t48.5 8.5 q2 0 10 -4q12 6 21.5 5t23.5 -13q8 4 15.5 8t15.5 4q4 0 14 -5t12 -9v-2h-4q41 -2 70 -22.5t46.5 -50.5t25.5 -64.5t8 -63.5q0 -16 -10.5 -27.5t-26.5 -11.5h-16q10 -10 10 -23v-225q0 -135 -8 -257t-41 -189q-6 -20 -34 -53t-61.5 -64t-66.5 -52.5t-49 -21.5 q-57 0 -88 15.5t-31 74.5zM567 526q0 14 11.5 29.5t28 28t36 20.5t37.5 8q-31 14 -56.5 37t-25.5 39q-10 6 -19.5 11.5t-11.5 5.5h-41q-8 0 -16 4q-12 -6 -25.5 -12.5t-23.5 -6.5q-6 0 -9 1t-12 1l-39 -20q-23 -10 -47 -25.5t-53 -42.5h-29q-10 0 -6 -17.5t0 -11.5 q-12 -23 -28.5 -42t-30.5 -35.5t-24.5 -30.5t-8.5 -27q0 -8 1 -14t1 -10v-10q-10 -41 -20.5 -64t-18.5 -33q-6 -10 -6 -20q0 -8 2 -13q0 -4 2 -6q8 -10 21.5 -23.5t21.5 -19.5l29 15q23 0 39 4t45 10q4 0 11 -1t13 -1q0 2 2 4q0 2 5 6q10 8 16 13.5t20 7.5q16 16 37 16 q8 0 15 -2q4 8 9 13t5 10q0 4 3 13t7 13l96 96q4 4 8.5 12.5t8.5 18.5t9 19.5t11 17.5v14z" />
<glyph unicode="h" horiz-adv-x="909" d="M670 207q-6 12 -6 18q-10 35 -12.5 60.5t-6.5 46.5v-2q-4 16 -4 28.5t-8 28.5q0 29 -8.5 70t-34.5 116l2 -2q-4 10 -18.5 35t-30.5 33q-33 47 -51.5 57.5t-45.5 10.5q-33 0 -42 -7.5t-13 -21.5q-4 -6 -7 -13.5t-7 -15.5l-8 -16l-31 -31q-8 -8 -8 0l-17 -35l-14 -28 q-4 -6 -12 -14.5t-17 -10.5q4 0 -14 -61q-10 -31 -15 -50.5t-8.5 -35t-3.5 -32v-40.5l-45 -88q0 -29 1 -39t10 -23q4 -8 2 -19t-7 -20q-16 -23 -29.5 -44t-23.5 -37q-8 -16 -28 -21q-25 -4 -39.5 3t-21.5 20.5t-9 33t-2 39.5q0 14 1 32t1 30v8q-10 92 -12 192.5t-4 186.5 q0 96 -3.5 174t-13.5 127v94q0 41 -12 51q-20 14 -16 37t24 29q-4 0 -6 -2q0 10 -5 30.5t-11 43.5v8q0 41 17 62.5t60 21.5q33 0 48.5 -6.5t37.5 -44.5q-4 -14 -4 -30v-32q0 -29 2 -41t6 -20v2q6 -16 7 -43q0 -8 -2 -18.5t-7 -20.5q-2 -2 -2 -4t-2 -2q0 -10 1 -109.5 t8 -323.5q6 20 17 46t21 40q12 12 29 17q-2 0 -4 2t-2 4q0 4 3 12.5t7 12.5q14 14 22.5 24t16.5 21q31 41 68 76.5t96 35.5q31 0 64.5 -4t65.5 -17.5t59.5 -37t48.5 -62.5q0 -2 12 -14q20 -20 20 -39q0 -4 -2 -10t-4 -16q14 -25 32.5 -68t35 -87t29 -82t12.5 -52 q0 -41 3 -80t7 -76q4 -39 7 -75.5t3 -77.5q0 -16 -10 -26.5t-27 -10.5q-63 0 -86.5 21.5t-23.5 64.5v133v0z" />
<glyph unicode="i" horiz-adv-x="268" d="M37 174q0 23 10 53q6 18 6 37v4q-16 12 -16 37q-4 35 1 51.5t13 24.5l-14 47q-4 16 1 34.5t11 35.5q0 4 1 7t1 5q-6 4 -10 13t-4 16v102l-4 2q-16 16 -12 35.5t26 26.5q-4 2 -4 16v29q0 16 10 26t27 10h10q16 0 33.5 -1t31 -8t22.5 -23.5t9 -46.5q0 -14 -1 -21.5 t-3 -15.5q8 -16 0 -31q6 -16 12.5 -36.5t6.5 -49.5q0 -18 -13 -33q6 -8 10.5 -19.5t4.5 -39.5q0 -33 -3 -51.5t1 -47.5q0 -12 -4 -32l-13 -60q0 -4 -1 -4t-1 -2q10 -10 15.5 -23.5t5.5 -43.5q0 -23 -1 -36.5t-5 -23.5q8 -20 16 -43.5t8 -40.5q0 -16 -11 -27.5t-28 -11.5 q-20 0 -42.5 1t-42 8.5t-33 26t-13.5 52.5v41l-2 4zM51 989q0 61 26.5 73.5t74.5 12.5q16 0 26 -11t10 -28q0 -23 -3 -29t-7 -16q-8 -12 -8 -24h-2q-2 0 -4 2q14 -18 5 -39t-34 -21q-2 0 -3 -1t-3 -1q-43 0 -60.5 17.5t-17.5 64.5z" />
<glyph unicode="j" horiz-adv-x="352" d="M-229 -354q39 4 94 24.5t92 57.5q20 14 36.5 29.5t31 39t26.5 54t25 75.5q10 29 12 54.5t2 72.5q0 4 -1 10.5t-1 16.5q-2 8 -2 15v14q-4 8 -8 14t-4 10q0 10 4 21.5t8 21.5v555q0 39 17.5 62.5t64.5 23.5q29 0 45 -9t24.5 -23.5t10.5 -32t2 -35.5q0 -4 -1 -20.5t-5 -32.5 t-6 -32t-2 -18q0 -10 2 -21t6 -26q4 -16 6 -32.5t2 -45.5q0 -41 -2 -58t-14 -34v-264q0 -16 -10.5 -26.5t-24.5 -10.5q4 -4 4 -12q0 -10 1 -21.5t1 -19.5v-14l-6 -64q-4 -49 -11.5 -88t-29.5 -65q-4 -20 -13.5 -43t-19.5 -33q-23 -43 -49.5 -68.5t-54.5 -42.5 q-12 -20 -25.5 -28.5t-28.5 -16.5q-16 -6 -22 -12q-4 -4 -13.5 -8t-13.5 -4h-143q-16 0 -27.5 11t-11.5 27v15zM129 1087q0 4 1 9.5t1 11.5v16q0 23 16.5 33t36.5 2q31 -14 64 -37.5t33 -40.5q0 -39 -22.5 -76.5t-70.5 -37.5q-16 0 -27 11t-11 28v10q-8 10 -14.5 22t-6.5 49 z" />
<glyph unicode="k" horiz-adv-x="892" d="M33 115q0 23 3 36t7 21q-2 10 -6 22.5t-4 14.5v31q0 23 -1 50t-1 42q0 10 1 27.5t1 33.5v21q0 6 4 14q-4 12 -4 16v101q0 4 4 13t6 13q-4 43 -7 117t-5 162t-3 181t-1 175q0 16 10 27.5t26 11.5q20 0 42 -2t39.5 -9t28.5 -21.5t11 -38.5q0 -12 -3 -19.5t-7 -15.5 q-6 -16 -6 -27l2 -2q4 -4 7 -14.5t3 -16.5q-4 -20 -7 -29.5t-7 -17.5v-18q4 -4 9 -5t5 -26q0 -4 -4 -16.5t-8 -22.5q4 -10 10 -23.5t6 -41.5q0 -35 -6 -50.5t-12 -23.5q0 -8 1 -14.5t3 -14.5q4 -10 7 -23.5t3 -21.5v-31h6l7 15v14q0 23 13 35t30 22v7q0 8 6 16t14 18 q6 6 13 15.5t12 15.5q4 16 14 30.5t20 29.5q10 12 22.5 29.5t14.5 27.5q4 12 14.5 18t22.5 8q-4 0 0 13q16 27 36.5 56.5t49.5 45.5q27 10 45 -8q18 -23 24.5 -45.5t6.5 -48.5q0 -16 -10.5 -26.5t-26.5 -10.5q-10 0 -65 -123q-4 -4 -5 4q-25 -41 -42 -69.5t-34.5 -56 t-38 -59.5t-50.5 -77q-4 -4 -14.5 -10t-18.5 -6q-2 0 -5 -20.5t-3 -24.5t1 -9.5t1 -11.5q0 -10 -9 -27l-6 -6h6q14 0 25.5 -4t22.5 -8l12 -4q2 0 6 2t10 8q12 10 25.5 16.5t36.5 6.5q29 0 43 -11l32 9l15 -9q6 4 14 6.5t25 2.5q29 -8 66.5 -10.5t76.5 -2.5q37 0 73 -2 t63.5 -9t44 -23.5t16.5 -42.5q0 -2 -5.5 -12.5t-13.5 -23t-19.5 -22.5t-21.5 -14q-23 -4 -36 0t-29 8q-12 4 -21 4h-92q-23 0 -43 10q-20 4 -18 4q-16 0 -23.5 -2t-21.5 -10q-39 -10 -85.5 -12t-91.5 -6q-47 -4 -82.5 -5t-39.5 11l-2 -260q0 -4 -3.5 -13.5t-7.5 -11.5 l-12 -12q-4 -16 -12 -28.5t-31 -12.5q-49 0 -71.5 25.5t-22.5 91.5z" />
<glyph unicode="l" horiz-adv-x="245" d="M47 401q0 20 14 29v240q-2 0 -3 2t-3 2q-10 4 -16 13t-8 18q-2 6 -2 12v20v13q0 18 1 32.5t9 24.5q-4 12 -9 31.5t-12 52.5q-33 4 -24.5 21.5t31.5 48.5q2 4 4 5t2 3l-2 2q-2 0 -2 2q-4 4 -7.5 13t-3.5 13v195q0 16 10.5 26.5t26.5 10.5h13q16 2 32.5 0t30.5 -11.5 t26.5 -30t22.5 -56.5q-2 -18 -2 -62.5v-93.5v-76q-2 -53 0 -81.5t14 -51.5q2 -18 0 -33q4 -16 5 -30q0 -45 -17 -80v-344q6 -18 10.5 -47t6.5 -63t3 -69.5t1 -66.5q0 -16 -10.5 -26.5t-26.5 -10.5q-53 0 -76 7t-29 23.5t-2 45t4 71.5q0 10 1 21.5t1 19.5v9q0 12 -3 40.5 t-5 60.5t-4 58.5t-2 32.5v14v0z" />
<glyph unicode="m" horiz-adv-x="1337" d="M410 719q-4 0 -10.5 3t-2.5 7q-6 -6 -24.5 -25.5t-39 -42t-39 -46t-26.5 -40.5q-6 -12 -15 -37.5t-17.5 -52t-14.5 -51t-6 -33.5q0 -20 -13.5 -30.5t-17.5 -32.5v-68q0 -23 -2 -35t-6 -22v2q-4 -6 -6 -18.5t-2 -42.5v-32t4 -26q-12 -41 -32.5 -47t-43.5 -6q-6 0 -21.5 2 t-29.5 8t-25.5 17.5t-11.5 27.5v639q0 31 16.5 56.5t49.5 25.5q2 0 15 -5t28.5 -14t27 -25.5t11.5 -37.5v-116q14 31 37.5 67.5t52 68t59.5 54.5t60 23h43t34.5 -2.5t34 -6.5t39.5 -12q53 -41 98 -92t64 -121l37 -164l8 4q-10 2 -10 11.5t2 21.5l6 37q6 18 14 37.5t19 38.5 q10 18 21 42.5t20 49.5q2 4 10 12t12 10q14 4 21.5 10.5t17.5 16.5q16 16 35.5 29.5t52.5 17.5q6 2 16.5 -2t14.5 -8q10 -10 21.5 -12t21.5 -4q23 -4 44 -12.5t44 -49.5q16 -14 27.5 -38.5t21.5 -53.5q8 -23 16.5 -43.5t14.5 -28.5q10 -31 21.5 -84t20.5 -112.5t15 -114.5 t6 -88q0 -16 -13 -27.5t-30 -9.5q-59 6 -78.5 37t-27.5 100q-8 86 -21.5 169t-38.5 132q0 41 -20.5 70t-44.5 45l-2 -2q-20 -25 -43 -25h-15q-4 0 -8 1t-6 1q4 -4 0 -18t-10 -33q-6 -14 -11.5 -28.5t-15.5 -32.5q-16 -29 -21 -46.5t-5 -27.5q0 -6 1 -15.5t1 -15.5v-10 q0 -14 -9 -35q-2 -4 -2 -10q0 -4 -2 -6q-10 -16 -12 -34.5t-6 -35.5q-4 -16 -6 -30.5t-8 -30.5v-27.5t-4 -25.5q-4 -14 -6.5 -31t-2.5 -25q-2 -6 -3 -20.5t-2 -29.5t-1 -29.5v-18.5q0 -16 -10 -26.5t-27 -10.5q-37 0 -56 13.5t-30.5 35t-15.5 51t-6 62.5q-2 23 -4 45t-6 41 q0 18 -7.5 56t-16.5 80t-18.5 80t-13.5 56q-2 2 -2 4v2q-12 16 -12 22.5t-2 20.5v-2q-4 14 -15.5 41t-39.5 74l-25 35q-16 23 -26 32t-33 9z" />
<glyph unicode="n" d="M0 150q0 25 25 43v518q0 16 11 27.5t27 11.5h27q4 0 13.5 -4.5t13.5 -8.5l45 -45q12 -12 12 -28l-8 -132l27 48q4 6 13 11t15 7l4 2q2 0 3 1t3 1l7 25q53 66 101 112.5t101 81.5h27q4 0 8 -1t8 -1l9 4l19 9.5t26 5.5q4 0 14 -2t20 -7l-6 2l4 -2l37 -10q16 -8 39 -25.5 t43.5 -39t34.5 -45t12 -41.5v-21.5t2 -25.5q0 -14 2 -31q29 0 33 -25.5t-12 -44.5h-2q10 -23 16 -45t6 -35q0 -25 -8 -39q18 -29 19 -53q0 -4 -1.5 -14t-3.5 -22.5t-4 -24t-4 -17.5q0 -2 2 -6t2 -8q8 -14 9 -41q0 -12 -5.5 -33.5t-15.5 -38.5q4 -4 4 -8t2 -10q0 -4 2 -9 t6 -14q12 -20 2 -37.5t-32 -17.5q-2 0 -6.5 -1t-8.5 -1h-14q-29 0 -61.5 14.5t-32.5 53.5v419l-17 43q0 70 -19.5 98.5t-41.5 45.5q-23 -4 -53.5 -28.5t-81.5 -80.5v2q-12 -14 -30.5 -37.5t-35.5 -44.5l-39 -51l6 6q-31 -41 -58.5 -87t-49 -89t-33.5 -78.5t-12 -56.5v-76 q0 -29 -13.5 -45t-27.5 -24.5t-23.5 -9.5t-1.5 -1q-12 -4 -14 -4q-6 0 -23 4q-4 0 -6 1t-4 1t-2 3q-6 4 -13 14t-7 18q0 16 -5.5 30.5t-11.5 25.5q-6 10 -10 16.5t-4 22.5z" />
<glyph unicode="o" horiz-adv-x="739" d="M369 649q-2 4 -3 7t-6 6q-2 -2 -2 -5q0 -2 -2 -2l-163 -157q-4 0 -10.5 4t-6.5 10v-12q0 -6 1 -12.5t1 -12.5q0 -29 -5 -31t-9 -10l-2 -2q0 -4 1 -6t1 -6t-4 -13.5t-8 -13.5q-6 -8 -11.5 -26.5t-7.5 -30.5h2q6 -2 15.5 -7t15.5 -14q10 -10 13 -23t7 -26v-2 q8 -10 25.5 -20.5t30.5 -10.5q27 0 32 -24h91q6 6 13 10t17 8q4 0 8.5 2t4.5 -2q0 20 19 27.5t36 1.5l78 156q2 29 -3.5 52t-9.5 23q-8 4 -13 14.5t-5 18.5v8q0 6 2 11q0 -6 6 -11q-4 4 -6 12.5t-2 12.5t-20.5 18.5t-71.5 14.5q-4 0 -13.5 4t-13.5 6q-16 16 -18 28.5 t-4 24.5zM70 555h-4q0 8 7 22.5t17 27.5t18.5 24.5t8.5 15.5l10 6l8 17q6 18 18.5 35.5t36.5 17.5q4 0 4.5 -1t10.5 -1l14 8q29 27 52.5 34t58.5 7q14 29 35 39q14 0 23 -3t20 -7q2 -2 8 -2q2 0 2 -2q14 0 21 -10.5t8.5 -24t-5 -25.5t-20.5 -14h34.5t55.5 -2t53.5 -6 t30.5 -13q4 -16 2 -24q18 -20 39.5 -42t21.5 -32v-18l11 -23l-2 2q8 -14 14 -26.5t6 -34.5q0 -10 1 -21.5t-3 -21.5v-8q0 -66 -16.5 -123.5t-46.5 -118.5l-15 -14q-16 -16 -36.5 -38t-41.5 -22h-6l-18 -14q-16 -10 -36.5 -20.5t-61.5 -22.5q-45 0 -54 4q-16 -8 -30.5 -14.5 t-24.5 -6.5q-16 0 -25.5 5.5t-19.5 11.5h-2q-23 -4 -36 1t-23 15q-43 8 -86.5 45t-75.5 78v21q0 4 1 7t1 7q-20 2 -28.5 18.5t-0.5 32.5q-6 10 -2 23q-8 10 -13 16t-5 14l4 13q4 12 8 18q2 0 4 2v19q16 57 26.5 73.5t22.5 30.5l8 4q-2 -2 -2 -4h2z" />
<glyph unicode="p" horiz-adv-x="735" d="M25 -207q0 18 1 34.5t7 27.5q-4 16 -6 31.5t-2 19.5v256q2 29 1 41t-10 22q-10 14 -6 30.5t21 25.5q-6 25 -10.5 53t-6.5 54t-3 45.5t-1 25.5q0 2 3 14t5 26.5t4.5 26t2.5 13.5q0 6 -1 19t-3.5 29.5t-5.5 32t-5 23.5q-14 16 -14 27q0 4 3 14t7 18q-2 2 -1 4.5t-1 6.5v-2 q-8 14 -8 28q0 8 -1 20.5l-2 25t-1 20.5v10q0 16 11 27.5t28 11.5q2 0 13 -2t24.5 -5t24.5 -7t18 -6q18 -14 18 -41q0 2 4 -4.5t8 -14.5q4 -14 9.5 -28.5t7.5 -26.5l14 10q47 57 88 83t94 26q2 0 17.5 -3.5t35 -9.5t39 -13t29.5 -13l-4 6q18 -10 38.5 -27.5t39 -40t35 -46 t26.5 -44.5q29 -8 29 -35q0 -10 7 -22t11 -19q12 -29 13 -39q0 -4 -4 -11t-9 -13q2 -16 1 -36.5t-1 -43.5q0 -68 -14 -111t-53 -104q-6 -6 -16.5 -17.5t-18.5 -17.5l-8 -10l-12 -16v2q-12 -23 -26.5 -44.5t-43.5 -27.5q-29 -33 -66 -40t-80 -7q-2 0 -17 1t-35.5 5t-43 13 t-39.5 26q0 -23 2 -52.5t4.5 -59t3.5 -51t1 -23.5q0 -10 -3.5 -19.5t-7.5 -19.5q0 -2 -2 -5v-2q0 -8 4 -24v2q4 -10 7.5 -21.5t3.5 -21.5q0 -6 -4.5 -22.5t-12.5 -34t-17 -31.5t-20 -14h-67q-35 0 -43 33.5t-8 68.5v10zM186 201q4 4 13 8q8 4 19 0t18 -8q25 -25 38 -37 t29 -12t30.5 8t28.5 18q16 10 34 19.5t34 13.5q18 12 23.5 18.5t13.5 20.5q18 27 31.5 47t21.5 41.5t12.5 46.5t4.5 55q0 20 -1 27.5t-6 15.5l-6 11q-10 39 -28.5 79.5t-41 74.5t-49 54.5t-53.5 18.5q-6 0 -20.5 -4t-18.5 -8q-4 -2 -17 -14.5t-27.5 -31t-26 -40t-11.5 -41.5 q0 -33 -32 -37q8 -4 8 -14.5t-2 -22.5q-4 -25 -5 -43.5t-18 -34.5q-10 -18 -11 -33.5t-1 -56.5t3 -59.5t13 -44.5v-35z" />
<glyph unicode="q" horiz-adv-x="796" d="M680 -76q6 -10 5 -22.5t-3 -20.5t-3 -9t5 13l2 6l-5 -20t-9 -25q0 -6 4 -10q4 -2 8 -11t4 -13q0 -61 -17.5 -88t-58.5 -27q-29 0 -43 16.5t-20 41t-7 55t-1 59.5v86q0 10 4 18.5t8 16.5l-8 16q-2 4 -2 14q0 4 -2 11v10q0 23 1 42t13 32v47t-2 35q-14 -14 -33 -15h-6 q-16 -23 -61 -53q-16 -10 -31.5 -4t-22.5 20q-4 -14 -7 -27.5t-7 -25.5q-4 -14 -6 -29h-23.5t-15.5 5q-25 -14 -51.5 -23.5t-40.5 -9.5q-4 0 -17.5 9t-29.5 22l-6 -7q-16 -16 -37 -11t-27 28q-10 0 -18.5 10t-10.5 23q-43 25 -66.5 53t-34.5 64t-14 77t-3 90q0 12 2 42 t14 46q0 33 15.5 44.5t31.5 19.5q8 29 30.5 68.5t51.5 68.5q8 8 26.5 18.5t38 18.5t35 13t21.5 5h10q10 12 21.5 19.5t27.5 13.5h7t8 4l24 19q16 8 32.5 13t39.5 5q18 0 35 -10q12 10 22 17t21 7q14 0 21 -4t18 -8q0 4 -1 8t-1 8l6 -10q-2 4 -5.5 12.5t-3.5 12.5q0 29 28 47 t61 18h20q8 -6 16 -6q23 -2 41.5 -8t18.5 -43q0 -4 -2 -13.5t-13 -19.5v-231l-14 -31v-178q10 -14 13.5 -35.5t3.5 -56.5q0 -20 -2.5 -40t-6.5 -40q-2 -25 -5 -48.5t-3 -39.5v-86q0 -29 -6 -42.5t-10 -23.5q-2 -14 -10.5 -26.5t-8.5 -10.5zM485 379l19 61q8 23 14 43.5 t6 32.5q12 35 15.5 73t5.5 75l-19 8q-4 2 -10 4t-10 2h-14q-14 0 -28.5 -1t-19.5 -5q-4 -4 -13 -7t-13 -3q-10 -12 -22.5 -21.5t-28.5 -9.5q-4 0 -8.5 1t-8.5 1h-4q-10 -4 -18.5 -8t-16.5 -7q-8 0 -24 -16q-4 -4 -9.5 -10t-15.5 -12q-31 -31 -61 -52q-31 -27 -37 -26v-31 q0 -20 -29 -41l-12 -59q4 -10 7 -21.5t7 -23.5q4 -27 19.5 -64t68.5 -78l19 6q16 4 16 5q29 4 39 -2q20 20 41 30l18.5 18.5t22.5 12.5q10 16 23.5 31.5t27.5 25.5v2q0 45 43 45z" />
<glyph unicode="r" horiz-adv-x="557" d="M29 838q41 0 71.5 -26t44.5 -85v-29q0 -14 1 -25t-3 -22l13 -26l8 -27l26 -135q14 37 32 79t28 58q20 31 33.5 53.5t24.5 43t22.5 40t23.5 47.5q8 4 26.5 21.5t25.5 25.5l77 27q14 4 28.5 -2t18.5 -20q2 -6 5.5 -21.5t3.5 -21.5q0 -49 -23.5 -60.5t-50.5 -15.5 q-8 -4 -8 0q-4 -6 -12.5 -22.5t-10.5 -22.5l-8 -19l-23 -35l-30 -20q4 0 -7.5 -37t-27.5 -82q-10 -27 -17.5 -49t-17.5 -47q-4 -33 -18.5 -71t-30.5 -62h4q-10 -41 -12 -87t-2 -97q0 -16 -10.5 -26.5t-26.5 -10.5q-10 0 -25.5 6t-27.5 12l-15 10q-37 37 -47 115t-18 172 l-4 47q-23 39 -32 82t-13 80q-4 20 -5.5 40.5t-5.5 31.5q-6 25 -12 53q-4 25 -7 56.5t-3 66.5zM459 719l-2 -2z" />
<glyph unicode="s" horiz-adv-x="673" d="M451 723l-11 -2q-10 -2 -21 -5t-21.5 -6t-12.5 -3q-4 0 -18.5 -1t-24.5 -6q-8 -6 -23 -6q-20 -23 -65 -39q-8 -10 -15.5 -15t-27.5 -5h-6l-39 -39l-12 -4l-15 -10l-4 -2q4 2 0 -4.5t-8 -12.5q-4 -4 -4 -6l-6 -20q8 -12 8 -25q0 -2 4 -2q33 0 37 -33q0 10 16 10 q10 -4 32 -9t17 -1h9q23 0 25.5 -6t13.5 -12q12 -12 14 -13h219q4 0 13.5 -3t11.5 -7q2 -2 12 -9t20 -7q39 -33 46.5 -50.5t7.5 -50.5v-10q0 -4 -6.5 -21.5t-14.5 -40t-16 -44t-15 -29.5q-18 -27 -45 -37q-6 0 -6 4q-6 -31 -37 -30q-8 0 -14 -4.5t-16 -8.5q-8 -10 -39 -24 l-19 -6q2 0 -9 -9.5t-19 -15.5q-16 -16 -34 -25.5t-34 -9.5l16 8q-14 -2 -32 4q-14 -8 -32 -16t-26 -10q-68 0 -105.5 6t-56 21.5t-22.5 39t-4 58.5q0 20 7 44.5t19.5 43t26.5 26t29 -7.5q8 -4 14 -11t8 -15q4 -29 7.5 -45.5t9.5 -24.5t14 -10t25 -4q18 -4 53 14t67 35 l13 10h-2q14 8 41.5 23.5t54.5 32t46 31.5t19 24q0 2 -1 6t-1 8h-20q-14 0 -23 8q-10 -4 -18 -6t-20 -2q-2 0 -14.5 3t-27 6t-27.5 5t-15 2h-9q-8 0 -16 4l-25.5 8.5t-23.5 4.5h-15q-10 0 -22 -1t-25 -1q-35 0 -48 9t-21 19l-2 2h-2v2q-8 0 -13 5v-2q-23 6 -43 11t-20 40v16 q-10 4 -20.5 10.5t-18.5 20.5q-20 6 -21 35q0 4 -1 10t-1 14v19q0 8 1 19t1 18v10q4 16 11.5 28.5t17.5 22.5q4 4 6 8t6 8l9 9l36 38h-4v3q8 16 16.5 25t28.5 9h2q-2 0 5 6q10 10 14 17.5t29 7.5h14q23 20 55.5 30.5t65.5 14.5q6 18 30 23q4 0 11 2q12 4 16 6h-4 q14 4 30.5 8t35.5 4q49 0 88 -9t75 -26q8 -4 14.5 -14t6.5 -18t-7 -34t-16.5 -52.5t-18.5 -47t-11 -20.5h-13q-16 0 -26.5 10t-10.5 27q0 23 -5 36t-23 13h-10z" />
<glyph unicode="t" horiz-adv-x="446" d="M188 178q0 16 3.5 27.5t-1.5 21.5v23q-2 -4 -3 7t-3 15v-2q-10 20 -10 45q0 10 1 21.5t1 21.5l-2 13l6 -9q-10 31 -12 103q-10 10 -13 22.5t-3 26.5q0 2 2 9t4 12q2 4 4 9t4 9t2 6q0 4 -7 14.5t-16 20.5q0 -2 -2 -2t-2 -2q-10 -4 -19 -7t-20 -3q-37 0 -60.5 11 t-35.5 29.5t-16 41t-4 43.5q0 16 10 26t27 10h116q0 10 -1 22.5t-1 16.5q4 18 8.5 48t7.5 64t4 69.5t1 68.5q0 16 10 27.5t27 11.5h8t6 -2q25 18 37 12t20 -23.5t13.5 -39t11.5 -35.5l4 -8q6 -10 4 -23.5t-10 -23.5l-2 -2v-146q10 -10 14 -30q18 -6 34.5 -4.5t30 7t20.5 9.5 l7 4l43 -14q0 -39 -4 -60.5t-13 -33t-24.5 -15.5t-36.5 -6l-20 -4t-25 -6q4 -2 3 -12.5t-3 -20.5l-12 -35q14 -10 14 -25q0 -8 -1 -12t-1 -8l-6 -4h4q-2 0 4 -6q2 -10 6.5 -20.5t4.5 -14.5q0 -27 -25 -37q16 4 16 -6q0 -16 -1 -30.5t-7 -24.5l6 -58v2q4 -14 5.5 -30.5 t1.5 -26.5q4 -23 2 -29t-9 -6q0 -2 11.5 -8t11.5 -10v-20.5t2 -38t5 -45t7 -42.5q0 -4 -6 -13t-14 -18.5t-16.5 -15.5t-14.5 -6q-16 0 -32.5 12.5t-32 27.5t-24.5 29.5t-9 18.5t1 5t1 5q-10 20 -13.5 40t-3.5 36z" />
<glyph unicode="u" horiz-adv-x="778" d="M567 205q-12 25 -17 42t-7 32q-6 -6 -6 -5q0 -6 1 -13t1 -11q-2 -4 -11.5 -14.5t-19.5 -21.5t-21.5 -21.5t-19.5 -14.5h2q-4 -8 -1 -12t-9 -16q-76 -102 -183 -127q-16 -12 -22 -15q-6 -4 -12 -4t-35 4t-45 10q-27 2 -38 19.5t-22 36.5q-20 4 -28 22q4 -14 2 -9 t-7.5 18.5t-11.5 30t-8 24.5l2 -2q-10 23 -17 39t-7 30v17q-16 10 -17 28v119q-12 16 -12 29v100q0 10 10 25q-2 0 -2 4q-4 6 -6 14t-2 12q0 8 -1 27l-2 38t-2 35.5t-1 22.5q0 16 11 26.5t28 10.5q14 0 32.5 -10t37 -25.5t30.5 -32t14 -28.5l5 -16l12 -50q0 -8 -3 -18 t-9 -16l-5 -4q8 -10 12.5 -22.5t4.5 -41.5q0 -39 -12 -65l2 2q-2 -2 -2 -7q6 -4 9 -14t1 -20v-43q0 -25 4 -39.5t10 -26.5l12 -31l7 -22q4 -23 26 -47q6 4 19 4q8 2 13 4t19 18l25 11q2 0 2 2q0 4 2 8l18 24l31 15q10 4 21.5 10t21.5 10v2q0 6 2 10v3q2 8 4 19t9 28 q6 33 30 75q4 12 11.5 31t15.5 35q8 20 16 43v59q0 14 2 21.5t6 17.5q4 8 7.5 20.5t3.5 28.5t10 26.5t27 10.5q23 0 52 -6t48 -31q6 -18 4 -34q4 -10 2 -21.5t-8 -19.5l8 -43q0 -4 -1 -16.5t-1 -18.5q0 -12 -4 -17q23 -27 35 -75v-25q0 -8 1 -19.5t1 -21.5t-1 -19.5 t-1 -15.5q0 -2 4 -2q16 -8 22 -22.5t-2 -28.5q4 -8 4 -20v-11q10 -10 11 -26q0 -6 -15 -6q45 -10 49.5 -25.5t-10.5 -32.5q6 -10 6 -24q0 -12 -6 -25q8 -23 11.5 -47.5t3.5 -46.5q0 -16 -10.5 -26.5t-26.5 -10.5q-18 0 -29.5 3t-22.5 7l-30 10q-12 12 -22.5 40t-18.5 62 t-13.5 67.5t-7.5 58.5z" />
<glyph unicode="v" horiz-adv-x="684" d="M109 205l-43 178v12q-4 10 -8.5 26.5t-9.5 34t-8 32t-3 20.5q0 2 -1 3t-1 5q0 6 1 8t1 11q-6 6 -10 18l-4 12q-6 8 -11.5 20.5t-7.5 16.5l-6 25l2 -2q-10 29 -16.5 60.5t-6.5 70.5q0 16 11.5 26.5t27.5 10.5h64q16 0 26.5 -10.5t10.5 -26.5v-72q23 -10 22 -35l4 -14 q4 -10 6.5 -19.5t6.5 -13.5q12 -10 12 -24q14 -10 14 -31q0 -20 3 -45t8 -45q2 -10 2 -16.5v-18.5v-21q6 -4 14 -9t12 -15q4 -6 4 -19q0 -20 -8 -26q16 14 10 24q4 -2 8.5 -4t4.5 -30v-17l12 -80q4 -18 10 -21t6 3v8q0 4 6 14v-2q4 12 11.5 32t17.5 34q8 8 14 10l9 45 q6 29 16 35t23 20q6 10 13 16.5t7 2.5v20q0 27 12.5 50.5t22.5 44.5q14 20 14 24q0 33 31 37q10 18 20.5 34.5t10.5 20.5v21q0 16 9 24.5t19 18.5q0 16 2 32.5t25 38.5q10 10 26.5 10.5t28.5 -10.5q29 -29 34 -48t5 -46q0 -4 -6 -21.5t-16.5 -42t-21.5 -50t-23 -43.5l-7 -7 v-2q0 -2 -2 -2v-2q-16 -4 -15 -11t11 3q-12 -29 -37.5 -82t-50.5 -102l-49 -107q-6 -10 -18.5 -39.5t-26.5 -62.5t-26.5 -62.5t-16.5 -42.5q-27 -25 -51.5 -34t-48.5 -13q-27 -4 -40.5 18.5t3.5 43.5q-6 -4 -6 -2q0 -2 -2 -2q-29 14 -40.5 41.5t-17.5 60.5q-4 18 -5 33.5 t-5 17.5z" />
<glyph unicode="w" horiz-adv-x="997" d="M35 250q2 4 4 7t2 7q-10 33 -12 68t-2 74v8q0 4 1 6t1 4v6t-2 14l-7 37v6q-2 0 -2 5v4v-4q-8 14 -8 28q0 2 1 7t1 10q2 10 3 19t1 13v11q0 12 -2 20t-4 18q-8 27 -8 52q0 4 1 22.5t3 39t4 37.5t2 24q4 35 37 34q10 0 25.5 -11t31 -26.5t28.5 -32t18 -26.5q0 -2 -1 -13 t-1 -16v-8v-19t4 -28q4 -18 6 -37.5t2 -42.5q0 -10 -4 -30v2q-4 -20 -4 -27q0 -4 4 -16.5t6 -16.5q0 -6 -2 -15t-4 -15q4 -16 7 -46t5 -53q2 -6 2 -16v-17l6 -86q0 -16 2 -24q2 8 2 22q12 27 28.5 55.5t29.5 51.5q27 45 36 70q2 8 10.5 14t18.5 10q-14 0 -14 -4q4 18 6 35.5 t25 25.5q8 18 23 42t28.5 45.5t24.5 35.5l12 15q37 0 57 -2t31.5 -7.5t16.5 -14.5t11 -21v2q4 -4 6.5 -10.5t12.5 -18.5q12 -43 23.5 -78t23.5 -72q10 -33 26.5 -74.5t38.5 -113.5q2 2 5 2q4 2 10 25.5t6 46.5q0 4 4 13t8 13q2 0 2 11.5t4 23.5q4 20 9.5 40t17.5 34 q4 51 16.5 86t24.5 59l10 21q0 8 -2 10l27 86q0 6 2 23.5t6 33.5q4 43 15.5 84t43.5 58q10 6 23.5 3t21.5 -14l25 -30q8 -12 8 -27l-22 -192q-4 -29 -35 -33q10 -4 8 -24.5t-6 -41.5q-4 -41 -13.5 -76.5t-27.5 -48.5l-8 -22q-8 -20 -9 -19q0 -2 -1 -9t-1 -15 q-2 -10 -3 -20.5t-3 -14.5q0 -12 -7 -33.5t-15 -44.5l-23 -59l-12 -39q-14 -35 -39 -71t-84 -46q-16 -4 -28.5 5.5t-14.5 25.5h-2q-16 0 -26.5 10t-10.5 27v16l-4 6q-6 10 -14 21.5t-19 46.5v12q-4 6 -4 14.5t-2 16.5q-16 16 -21 37.5t-5 44.5v9t-3 11l-14 15q-10 10 -16 22 t-6 23v8t2 14l-2 -4l2 10q-4 4 -7.5 5.5t-3.5 19.5q-10 2 -14 16q-10 -23 -17 -44t-12 -44q-2 -6 -8 -14t-10 -12q-20 -10 -37 -58l-24 -47q-16 -29 -27.5 -54.5t-15.5 -64.5q-2 -10 -8.5 -18t-16.5 -10q-6 -23 -22.5 -39.5t-36 -26.5t-38 -15t-28.5 -5q-4 0 -13.5 3 t-11.5 7q-8 8 -18 26.5t-19.5 38t-15.5 35t-6 17.5v18q-8 16 -8 27v18q-4 14 -5 31.5t-1 21.5v2z" />
<glyph unicode="x" horiz-adv-x="618" d="M158 340q0 33 -10.5 54.5t-26.5 43.5q-37 37 -51.5 57.5t-24.5 36.5q-8 10 -11 13.5t-14 3.5q-16 0 -27 10t-11 27v57q0 16 11 27.5t27 11.5q14 0 40 -10t51.5 -26.5t45 -35t19.5 -37.5v-2l21 -22q14 -18 23 -31.5t32 -34.5l27 49v-2q6 14 15 28.5t15 25.5 q16 10 27.5 29.5t21.5 45.5l37 68q6 6 20.5 21.5t32 33t34 31.5t22.5 21q25 0 39 -13.5t20 -32t8 -40t2 -37.5t-10 -26.5t-26 -10.5q-2 0 -7.5 -2t-5.5 -8q0 -16 -9 -25.5t-21 -11.5q8 -4 4 -12.5t-11 -18.5q-20 -33 -42.5 -68.5t-38.5 -54.5q-10 -23 -31 -47 q-10 -10 -17.5 -23.5t-7.5 -29.5q0 -6 3 -21.5t7 -19.5q0 -6 17 -19q12 -12 21.5 -23t9.5 -24l41 -41l6 -6l8 -20v-2v2q0 -2 1 -2t1 -2l-2 2q18 -18 18 -35q0 -12 -9 -24.5t-23.5 -20.5t-28.5 -13.5t-23 -5.5q-29 0 -55.5 29t-54.5 66l-2 2q-16 18 -19.5 23t-17.5 22 q0 -4 -2 -7q-4 -18 -21 -26q-8 -4 -18 -21.5t-21 -44.5l-16 -32l4 16q0 -4 -2 -8q-4 -8 -4 -17l-11 -27.5t-5 -15.5q-10 -10 -28 -20t-37 -18.5t-35.5 -14.5t-24.5 -6q-16 0 -27.5 10t-11.5 27q0 41 11 58.5t28 25.5l14 31q0 2 1 5t1 7l29 65l2 2q4 12 20.5 31t28.5 35 l12 16t10 15q7 8 13 14zM449 225q-4 4 0 3t0 -3zM248 240l2 8q0 -2 -1 -3t-1 -3v-2z" />
<glyph unicode="y" horiz-adv-x="659" d="M434 31q0 27 2 45t6 37q4 16 5.5 34.5t3.5 34.5l-23 -45q-10 -14 -28.5 -32.5t-38 -36t-38 -29.5t-30.5 -16t-19 -3q-8 -4 -12 -4q-25 0 -41 17q-6 -2 -12 -3t-16 -1q-16 0 -26.5 10t-10.5 27q0 16 6 18t-6 10q-4 2 -6.5 5t-6.5 5q-16 14 -39.5 37t-23.5 64v2 q-12 8 -24.5 20.5t-20.5 40.5v35v2l-2 4q-4 8 -8.5 17.5t-4.5 21.5v29q-6 4 -11 12t-5 31q0 33 10 59q4 8 6.5 16.5t2.5 18.5t-3 12q-10 6 -19 18.5t-9 35.5q0 8 1 26.5t2 42t3 48t4 44.5q2 29 12 68q10 10 22.5 19.5t37.5 9.5q29 0 48 -17.5t19 -56.5q-2 -4 -9 -25.5 t-7 -27.5l2 -2q0 -2 4 -7q4 -10 7 -18t3 -16q0 -61 -4 -86t-8 -37q-4 -16 -4 -31q0 6 14 -22q6 -35 13.5 -59.5t15.5 -47.5q10 -31 18.5 -59.5t10.5 -59.5q2 4 5 -4t7 -12q12 -14 22.5 -30.5t10.5 -33.5v-4l18 -10q8 10 18.5 18.5t20.5 16.5l16 8q2 4 10.5 16.5t18.5 28.5 l23 37q33 33 44 64.5t11 41.5v125q0 43 6 78q4 16 6 30.5t2 25.5q0 8 -1 15t-1 11v10q0 4 4 13.5t8 13.5q14 14 35 20.5t33 6.5t42 -11.5t42 -33.5q0 -41 -2 -56.5t-10 -25.5q0 -4 2 -7q2 -6 3 -13t3 -11q2 -8 4 -12q0 -4 -5 -11.5t-11 -15.5v-172l-15 -29v-155l17 -35 q-4 -25 -4 -56.5v-64.5v-31v-55.5t2 -39.5t5 -32.5t9 -34.5q4 -12 -2 -25t-16 -20q-8 -4 -11.5 -11t-7.5 -17q-6 -23 -20.5 -42.5t-49.5 -19.5q-16 0 -27 12.5t-9 28.5q2 12 1 47t-3 68q0 18 -1 33.5t-1 21.5q0 27 -6.5 43.5t-6.5 14.5z" />
<glyph unicode="z" horiz-adv-x="761" d="M129 317q20 23 49 54.5t58 56.5q16 8 18 10t4 6q10 16 39 37q16 39 44 54.5t56 31.5l4 2q23 39 69 81t85 69q-6 14 -12 20q-10 0 -23 2q-10 2 -24.5 2t-32.5 5l-60 2q-2 -2 -4 -2h-10q-23 -10 -65.5 -22.5t-94.5 -18.5h-22q-16 -12 -27 -13h-151q-16 0 -26.5 10.5 t-10.5 26.5q0 53 25.5 82t60.5 29h61q4 6 14.5 11t28.5 5q4 0 12.5 -1t14.5 -1h22q2 0 5.5 1t5.5 1q8 10 18 12t21 -2q12 4 31.5 4h47.5q49 0 106.5 -4t107 -18t81 -40t31.5 -71q0 4 -5 -11t-11 -36.5t-11.5 -43t-7.5 -30.5q-18 -10 -36.5 -27.5t-36.5 -35.5 q-20 -20 -41 -39.5t-37 -30.5q-27 -47 -51.5 -63t-47.5 -25q-4 0 -6 -2l-8 -8q-10 -10 -28.5 -29.5t-24.5 -40.5q-14 -12 -33.5 -31.5t-40 -39t-40 -35.5t-32.5 -25q-6 -14 -15 -35.5t-13 -39.5q-2 -4 -7.5 -11.5t-9.5 -11.5q6 4 33 8t43 2q23 -6 33 -1t-6 -5q31 6 88 5 t119.5 -4t117 -6t78.5 -5q14 -2 25.5 -12.5t11.5 -24.5v-35q0 -16 -11 -26.5t-28 -10.5q-72 0 -163 2t-174 5.5t-145.5 7.5t-78.5 8l-6 2q-23 10 -26 15t-11 12q-6 6 -16.5 11t-8.5 7q-18 8 -20 27.5t12 31.5q-14 29 -14 39q29 35 46 56.5t34 54.5l-2 -2q0 2 2 4v10 q0 23 12 38t35 15h6z" />
<glyph unicode="{" horiz-adv-x="653" d="M281 84q-4 10 -7.5 17.5t-3.5 21.5q0 4 -8 17.5t-20 25.5q-4 45 4 55l-10 17l-23 47q-14 41 -31.5 85t-34.5 54q-4 -4 -9 -5t-9 -3q-6 -2 -8 -2h-45q-29 0 -46.5 2t-27.5 10t-14 26.5t-4 53.5v16q0 6 1 12.5t1 10.5q0 10 8 21.5t18 13.5q31 12 78 44.5t91 73.5t76 86 t32 80q0 16 -8.5 32.5t-18.5 37.5v-2l-24 47q-18 6 -24.5 22.5t-10.5 36.5l2 -2l-4 11q-29 33 -33 57t-4 74v10q0 10 1 27.5t1 27.5v6q0 33 14.5 47.5t32.5 22.5l4 2q2 2 2 4q0 29 29 37q8 10 23.5 25.5t29.5 30t26.5 24.5t14.5 10l8 2v-2q6 10 27 18h-2q16 8 51 23.5 t106 34.5q49 4 60.5 -18.5t11.5 -59.5q0 -33 -15.5 -46t-31.5 -24q2 2 2 9l-4 -9q-10 -20 -35 -20h-26l-121 -57q-20 -31 -38 -64t-18 -51q0 -8 10.5 -41t20.5 -57q0 -4 -1 -13.5t-1 -13.5q0 -8 16 -37q23 -14 34.5 -52t11.5 -91q0 -43 -3.5 -76t-15.5 -62.5t-37.5 -60.5 t-68.5 -70q-2 -2 -4 -2t-3.5 -1t-3.5 -1l-16 -10q-16 -14 -33.5 -30.5t-27.5 -26.5q29 -16 60.5 -42t78.5 -79q0 -4 3 -12.5t7 -10.5l8 -26q14 -53 36 -126t32 -145q10 -10 13 -18t5 -23l64 -63h12q25 -14 35 -14q12 -4 24.5 -10.5t26.5 -39.5l4 -8q0 -43 -33.5 -56 t-74.5 -13q-39 0 -64.5 8t-43 20.5t-29 26.5t-19.5 29l-25 34v7q-16 8 -30.5 26.5t-14.5 54.5zM551 1378q2 0 2 1t2 1q0 -2 -4 -2zM371 1468q2 2 4 2z" />
<glyph unicode="|" horiz-adv-x="290" d="M152 -332q-8 0 -21.5 3t-26 9.5t-20.5 17.5t-8 30v985q-4 33 -7 70.5t-5.5 73.5t-3.5 66.5t-1 49.5q0 6 -2 35.5t-6 64.5q-4 33 -6 65.5t-2 43.5v39q0 29 1 64.5t1 70.5q0 51 -3 71.5t-11 49.5v36q-2 -2 -2 3q-4 10 -10.5 20t-6.5 31q0 18 6 35q-10 20 0.5 38.5 t34.5 18.5q18 0 42 -4t46 -23q25 -25 4 -53q8 10 9.5 8t3.5 -6q4 -12 10 -27.5t6 -40.5q0 -23 -20 -32l22 -37q20 -31 -8 -51q0 -6 2 -29t4 -50.5t5 -51t3 -29.5v-14q0 -6 -1 -15.5t-1 -19.5q0 -4 2 -11.5t6 -17.5l11 -27v-11t-4 -17l2 4q-4 -16 -9.5 -48t-5.5 -67 q0 -4 7.5 -27.5t9.5 -27.5q4 -33 7 -55.5t4 -43t2 -44t1 -58.5q0 -47 -3 -73.5t-5 -47.5q-4 -16 -5 -30.5t-1 -30.5q0 -4 4 -23.5t8 -27.5v-543q-4 -10 -8 -38t-7 -62.5t-4.5 -74.5t-1.5 -75q1 -39 -38 -39z" />
<glyph unicode="}" horiz-adv-x="493" d="M172 94q0 2 -2 15.5t-4 29.5l-8 51l2 -6q-6 23 -22.5 52.5t-31.5 50.5q-10 20 -10 32v23q0 2 -2 10t-4 13q-4 10 -7 17t-3 24q0 10 1 16t3 12q-4 8 -4 27q0 63 21.5 81.5t45.5 24.5v-2q10 10 23 15q-8 0 -14 -7q6 10 16 24.5t51 25.5q-2 0 6.5 4t18.5 8l14 6 q-18 8 -33.5 17.5t-23.5 13.5q-16 8 -21.5 14t-13.5 14q-6 12 -31 13q-2 0 -6 2t-12 10q-16 10 -43 33.5t-27 46.5v8q0 2 -1 3t-1 3l2 -2q-4 6 -8 13.5t-2 7.5q-18 8 -20.5 25.5t8.5 31.5l-9 12q0 35 5.5 47.5t9.5 20.5v16q0 16 7 23.5t17 13.5q4 16 4 14q16 53 26.5 87 t10.5 63t-5 62.5t-21 58.5l-13 6l2 -2q-27 16 -53 35.5t-26 70.5q0 16 11 27.5t28 11.5q4 0 18 -2t31.5 -4t32 -5t20.5 -5q41 -43 63.5 -73t32.5 -59.5t11 -63t1 -83.5q-2 -18 -9 -45.5t-15 -52.5q-10 -31 -23 -61q4 4 1 -15.5t-7 -42.5q0 -16 -3 -28.5t-5 -20.5v-2 q16 -8 23.5 -15t7.5 -28v-2q12 -6 21 -16.5t18 -18.5q6 -2 13 -6t11 -8q0 2 -12 -4q25 10 43 -8q23 -23 68 -43q20 -10 40.5 -21.5t36 -26t24.5 -34t9 -45.5q0 -20 -4 -31.5t-10 -22.5l2 2l-4 -8t-2 -6q0 -16 -11.5 -27.5t-27.5 -11.5q-20 0 -47 4t-33 13q4 -16 -3 -28.5 t-24 -17.5q-41 -10 -59.5 -29.5t-18.5 -33.5q0 -45 17 -92q0 -2 -1 -3t-1 -3q2 0 2 -1t2 -1q10 -10 18.5 -20.5t8.5 -24.5v-13q14 -18 14 -53q-4 -4 -6 -8q-4 -4 -5 -8t-3 -6l4 -3q4 -4 8 -14t4 -16l-19 -162l-129 -129q-14 -14 -47.5 -21.5t-48.5 -7.5q-16 0 -27.5 11.5 t-11.5 27.5q0 4 5.5 24.5t9.5 28.5q25 25 48 45.5t40 36.5q29 25 43 41t14 39zM266 283q2 -4 4 -6.5t6 -6.5q-2 9 -10 13zM152 569q0 4 4 4z" />
<glyph unicode="~" horiz-adv-x="917" d="M418 414q-10 6 -20.5 17t-19.5 23.5t-15.5 25t-6.5 18.5q-31 20 -30 34v5q-4 4 -4 6l2 -2q-8 12 -16.5 25.5t-8.5 27.5v8q-8 10 -18.5 21.5t-10.5 40.5q0 12 -13 17t-19 5q6 0 0 -6q-4 -10 -9.5 -20.5t-11.5 -16.5q-27 -59 -42 -99t-15 -44q0 -14 -10.5 -25.5 t-22.5 -13.5v-23q0 -16 -11.5 -27.5t-27.5 -11.5h-22q-39 0 -39 39q0 23 -6.5 41.5t-12.5 32.5q-2 4 -4 6t-2 7t2 18.5t10 38.5l23 14q8 16 16 33.5t13 23.5q6 14 18 27h4v33q0 29 11.5 38t27.5 19q6 0 6 -2q0 16 10.5 27.5t26.5 11.5h104q4 0 14.5 -4t14.5 -8 q10 -10 22.5 -19.5t32.5 -19.5q10 -12 19 -23q8 -10 15 -19t11 -16q18 -6 23.5 -19t9.5 -36q2 -16 11.5 -38.5t39.5 -53.5q10 -10 15.5 -13t21.5 -3q10 0 21 2h4q2 0 2 2q4 0 13 6t16 10q2 2 6 4l8 4l8 4h21q-6 0 -4 1t4 5q4 8 12 18.5t18 16.5l4 6v-4q4 25 33 33 q-10 2 0 27q12 39 32.5 74.5t65.5 35.5q25 0 38.5 -9t19.5 -23.5t8 -32t2 -31.5q0 -23 -12.5 -50.5t-24.5 -53.5q-6 -10 -10 -23.5t-6 -11.5q-4 -12 -13.5 -21.5t-21.5 -9.5q0 -23 -14.5 -34t-30.5 -7q-23 -31 -39 -48t-32.5 -27.5t-36 -13.5t-46.5 -3q-8 0 -23.5 1t-29.5 1 h-14q-18 0 -31.5 8t-24.5 19q-4 0 -4 4h-24v0z" />
<glyph unicode="&#xa1;" horiz-adv-x="233" d="M223 866q0 -29 -16 -45q0 -2 -2 -4q6 -4 12 -14t6 -19v-716q0 -16 -11 -27.5t-28 -11.5q-41 0 -76.5 26.5t-35.5 69.5v287q0 4 3 12t7 12q-6 25 -8 46.5t-4 46t-2 54v72.5v39v88t2 60q-8 10 -11.5 19t-3.5 16q0 2 2 4t4 6q-2 4 -4 11t-2 11v17q-2 -6 -4 -2 q-6 10 -12 23.5t-2 29.5q4 12 14 21.5t25 9.5q23 0 48.5 -8.5t48 -26t36.5 -44t14 -63.5zM123 1092q-41 0 -56.5 31.5t-15.5 64.5q0 16 11.5 27.5t27.5 11.5q4 0 16 6q25 14 52 14q16 0 27.5 -10t11.5 -27q0 -10 -6.5 -27.5t-16.5 -35.5l2 2l-16 -31z" />
<glyph unicode="&#xa2;" horiz-adv-x="714" d="M309 -141q0 18 3 22t7 13q2 6 5 6q2 31 -4.5 55.5t-12.5 40.5l2 -2q-6 14 -10 26.5t-4 24.5v47l-4 14l2 -2q-2 2 -1 3.5t-1 5.5q-8 -2 -18.5 -2h-14.5q-27 0 -41 1t-26.5 4t-25.5 11t-36 25q-20 8 -37.5 12t-36.5 43q-25 10 -24 37v10q-8 4 -17 16l-16 15q-4 8 -11 31.5 t-7 31.5l4 4q-4 6 -5.5 15.5t-1.5 19.5q0 57 20.5 87t47.5 56q8 8 15.5 16.5t17.5 20.5q16 16 26 39q12 27 30 46.5t59 29.5q16 18 35.5 24.5t37.5 6.5q0 25 -3 52.5t-7 53.5l-4 40t-2 36t10 27.5t27 11.5q25 0 49 -3t42.5 -15.5t30 -38t11.5 -70.5q0 -10 -4 -18.5t-8 -16.5 l-5 -8q6 -2 39 -2h19l49 16q18 2 31.5 -3t25.5 -13q8 -4 13 -4q16 0 27 -11.5t11 -27.5q0 -25 -7 -53.5t-42 -38.5q-14 -4 -24 2q-2 -2 -4 -2t-2 -2q-43 0 -58.5 5t-21.5 9q-4 0 -13.5 -3t-19.5 -6t-17.5 -5t-7.5 -4q0 -29 2.5 -69t6.5 -87t6 -97.5t4 -101.5q31 2 59.5 16.5 t59.5 32.5q14 10 33.5 21.5t35.5 19.5q57 4 68.5 -18.5t11.5 -56.5q0 -23 -11 -45.5t-28.5 -39t-39 -26.5t-42.5 -10h-20q-10 -8 -24.5 -18.5t-37.5 -10.5q-8 0 -24 8q-4 -4 -12 -8q0 -10 2 -27.5t2 -27.5q4 -72 8 -142.5t4 -128.5q0 -18 -13.5 -30.5t-31.5 -7.5 q-33 8 -55 20q-23 10 -39.5 27.5t-16.5 44.5zM250 537q0 -2 -2 -2q-4 -8 -7 -15.5t-20 -23.5q-16 -10 -45 -33t-29 -45v-21q0 -20 -14 -35v-22q0 -2 -4 -10l18 -8l-2 2l17 -11q27 -2 36 -12t15 -27l102 -26l9 -2q-4 4 -14.5 18.5t-14.5 24.5q-2 8 -6 23.5t-8 21.5v209 q-16 -8 -23 -8h-8v2z" />
<glyph unicode="&#xa3;" horiz-adv-x="958" d="M4 59q0 25 19.5 46.5t50 38t69.5 27.5t76 17q33 6 41 21v-4q2 8 6 26.5t9.5 40t8.5 43t5 33.5q0 12 -3 28.5t-9.5 32t-17.5 25.5t-30 10q-4 0 -12 -1t-16 -1h-6l-7 -6h2q-16 -10 -39.5 -20t-58.5 -10q-16 0 -27.5 11t-11.5 27q0 43 13.5 71t39.5 54q4 4 13.5 7.5 t13.5 3.5q41 0 61.5 -4.5t28.5 -12.5q4 0 16.5 4t16.5 13q-2 2 -7 23.5t-9 37.5q-4 6 -9 23q-2 6 -2 12q0 10 11 35q-12 10 -11.5 27.5t17.5 29.5q2 0 4 7t6 11q-4 4 -4 13q0 2 -1 3t-1 5q-2 2 -2 6q-2 6 -1 17.5t5 15.5q6 10 12 16l12 12q12 8 13 27q0 18 16.5 37.5t39 37 t47 28t40.5 10.5h29l71 16h15q10 0 28.5 -7t40.5 -13l29 -15q16 -10 21 -24q14 -6 24 -16.5t10 -30.5q0 -47 -25.5 -55.5t-56.5 -8.5q-41 0 -52 11.5t-15 29.5q0 -8 -4 -8q-29 0 -37 -5t-23 -18l-18 -20q-18 -4 -24.5 -11.5t-14.5 -19.5l-6 -6q-6 -35 -41 -57v-33q4 -4 9 -7 t5 -26q0 -4 -3 -15t-7 -22q10 -10 10 -30q0 -2 -2 -5q-4 -4 -4 -10q18 0 34.5 3t29.5 7q8 2 13 3.5t17 1.5h43l9 4q4 2 7 4t7 4q25 10 44 -5.5t11 -41.5q-12 -41 -26.5 -63.5t-35 -35t-49 -18.5t-69.5 -10q2 -8 2 -23q0 -23 -3 -36t-7 -23q-2 -4 -5 -12.5t-3 -12.5 q0 -10 1 -21t1 -20v-14l-4 -16q4 8 2 -8.5t-7 -32.5q-2 -10 -4 -20.5t-2 -12.5l19 -6q20 -2 58 -6t50 -13q35 -16 62.5 -20t52.5 -4q29 -12 54.5 -14.5t58.5 -2.5h47l4 7q10 23 30.5 25.5t36.5 -17.5q14 -20 27.5 -55t13.5 -44q0 -16 -9 -27.5t-22.5 -19.5t-31 -13 t-33.5 -11l-27 -8q-6 -2 -22 2q-14 -6 -25 -5l-135 29q-16 4 -22 15.5t-6 23.5t8 23.5t20 13.5q-23 -2 -25.5 -11.5t-2.5 -19.5q0 -6 -14.5 -10t-18.5 -4q-47 23 -86 27t-80 4h-21q-4 0 -18 -8.5t-37 -18.5q-41 -23 -95 -45.5t-116 -22.5h-13t-20 4h-2q-10 0 -21 8.5 t-16 20.5l-14 43z" />
<glyph unicode="&#xa4;" horiz-adv-x="1009" d="M174 18q-14 -35 -43 -34q-10 0 -25.5 10t-19.5 26q-23 10 -23 37q0 51 21.5 82t46.5 54v30q-14 14 -16 33q-20 29 -25.5 70t-5.5 73v26.5t4 23.5q-4 10 -4 24v31q0 33 9 48t22 26v8q-12 14 -27.5 32.5t-19.5 28.5q-4 2 -9 12q-4 12 -14 26.5t-18 27.5h2q-16 25 -29.5 46 t-13.5 54q0 39 39 39q14 0 37.5 -2t46 -9t39 -23.5t16.5 -45.5l-8 21q0 -12 -9 -31q12 -18 29 -26.5t29 -8.5q4 0 7 1t11 1q-10 0 -2 12q14 27 33.5 52.5t52.5 25.5h23q-10 0 -8 2t21 14.5t42 25.5t43.5 23.5t26.5 10.5q49 0 83.5 -1t64.5 -6t58.5 -15.5t65.5 -26.5 q16 -12 18 -25q16 -6 34 -17t26 -40l2 -12q0 8 14 8v2q0 8 12.5 23.5t29 29.5t30.5 24.5t18 10.5q25 0 38.5 -20.5t23.5 -43.5q0 -10 -1 -34.5t-18 -40.5q-4 -16 -8 -34t-14 -28q-6 -6 -14.5 -13t-18.5 -11q-4 0 -4 2q0 -6 4 -17.5t8 -19.5l-4 2q-4 -6 -8 -29.5t-11 -53.5 t-18.5 -61.5t-25.5 -56.5q-12 -20 -20.5 -39.5t-18.5 -38.5l4 4q-8 -23 -22.5 -39t-26.5 -28l-2 -2q-2 -2 -4 -2h-2v-2q2 -12 6 -20.5t8 -12.5q12 -14 22.5 -30.5t10.5 -53.5q0 -16 -10.5 -27.5t-26.5 -11.5q-39 0 -58.5 8t-48.5 21h4l-24 12l-17 6q-10 -18 -32 -18l2 4 q-29 -29 -47.5 -34t-36.5 -5q-10 -8 -24.5 -12t-29.5 -9q-4 -2 -7 -3t-1 5q-6 -10 -16 -13t-21 -1q-14 4 -26 19q-14 -4 -26.5 0t-18.5 14l-17 10q-20 -14 -43 -8q-10 -4 -21 -2t-20 10l-12 -14q-20 -27 -41 -43v-4zM406 217q43 4 82.5 9t60.5 22q0 20 7 32.5t17.5 18.5 t20.5 8t16 2h23l10 8q14 23 29.5 48.5t25.5 42.5v12l15 29v-3q4 8 10 21.5t12 28.5q8 16 15 32v19q-10 4 -16.5 14t-6.5 21q0 25 -5 46t-24 31l-22 29l-17 27q-14 2 -25 6t-24 10l-28 10q-8 -29 -37 -28q-16 0 -29 6q-16 6 -36.5 13t-39.5 11q-16 -25 -32.5 -37t-28.5 -20 l-27 -14l-4 -4l-2 -2q-10 -16 -33 -27l-2 -4q-6 -18 -14 -23v-14q-2 -8 -8 -16q-10 -16 -25 -29q0 -4 1 -12.5t1 -18.5q-8 -31 -22 -55v2q-10 -16 -16.5 -32.5t-6.5 -47.5q0 -10 16.5 -56t47.5 -81l4 -2l2 -2l6 -3t6 -1q16 0 27 -11h4q20 0 31 -16h41z" />
<glyph unicode="&#xa5;" horiz-adv-x="991" d="M616 526q10 2 18.5 3t20.5 1q47 0 70 -20.5t23 -44.5q0 -10 -8.5 -26.5t-24 -32t-34.5 -27.5t-42 -19q20 -10 20 -34q0 -41 -30.5 -67t-63.5 -42q-8 -2 -20.5 -8t-12.5 -4v-88q0 -49 -11 -67.5t-38 -45.5l-20 -6q-20 0 -32.5 9t-22.5 20q-4 4 -8.5 13t-4.5 13v13 q0 8 1 18t1 22v52q-18 -4 -36.5 -6t-34.5 -2q-10 -12 -22.5 -21.5t-35.5 -9.5h-53q-4 0 -6 -1t-6 -1q-10 -4 -18.5 -7.5t-22.5 -3.5q-33 0 -51.5 19.5t-18.5 48.5q0 33 19.5 49.5t54.5 34.5q20 4 33.5 -1t21.5 -11l6 3t6 5l35 12h-4q16 6 39 14.5t43.5 17.5t34.5 15t14 11 q-8 -4 -14 -6.5t-27 -2.5q-4 0 -10 2q-12 4 -14 7q-4 2 -1 5t2 1t-9.5 -9.5t-32.5 -23.5q2 0 -17 -6q-16 -4 -54 -12.5t-114 -24.5q-20 0 -29 4t-18 10q-4 8 -18 8q-16 0 -27.5 11.5t-11.5 27.5q0 92 115 93h63q20 0 29 -27q16 27 33.5 49.5t27.5 22.5h19q-16 6 -27 20 q-16 6 -25.5 14.5t-17.5 16.5q-14 10 -18 10q-16 0 -27.5 11.5t-11.5 27.5q0 10 -3 18.5t-16 20.5q-6 18 -2 37q-23 16 -40 42.5t-17 59.5q0 8 4 14q-10 14 -16.5 27.5t-6.5 24.5q0 4 1.5 7t1.5 9q-4 12 -9.5 36.5t-5.5 29.5q0 47 -13 78.5t-34 58.5q0 29 12.5 43t28.5 24 h29h33.5t32 -4t23.5 -15t9 -34q0 -12 -8 -24q23 -35 31 -60.5t8 -42.5q0 -14 -1 -25.5t-5 -21.5l6 -14q8 -23 14 -42.5t8 -19.5q16 -10 21.5 -25.5t-4.5 -31.5l24 -27q12 -12 13 -28q12 -14 14 -35l22 -6q16 -8 40 -17.5t14 -3.5l4 2q27 10 53 10q4 0 8 -2l92 97l17 6l26 55 l27 12l6 2q4 6 5 12.5t3 10.5q4 12 7.5 23.5t9.5 19.5q4 6 12 11t14 9q-12 0 -9 4.5t7 12.5v-2l15 31v34q47 72 67.5 128.5t20.5 97.5q0 23 6 26.5t10 5.5v43q0 8 2 19.5t6 25.5l8 31v12q0 6 -1 14.5t-1 16.5q0 35 13.5 48.5t42.5 23.5q6 0 19 -12.5t26.5 -30t24 -36.5 t12.5 -32q0 -10 -4.5 -44t-8.5 -44v-45q0 -18 -6 -32.5t-14 -28.5l-15 -37q-6 -12 -10 -26.5t-8 -30.5l-8 -37q0 -55 -23.5 -114.5t-59.5 -118t-80 -111t-83 -93.5q-12 -23 -25.5 -37t-23.5 -24q12 0 18 2q0 -2 2 -4q0 -2 1 -4t1 -4q10 18 33 24h8z" />
<glyph unicode="&#xa6;" horiz-adv-x="296" d="M74 831q0 47 -1 89.5t-1 58.5q0 88 1 151.5t3 111.5t4 82t4 62q4 39 6 76t2 90q0 39 39 39q6 0 23.5 -8t36 -21.5t34 -31t15.5 -33.5v-344q0 -4 -4.5 -13.5t-6.5 -13.5q-4 -4 -4 -2q0 -6 3 -21.5t12 -27.5q2 -39 -13 -57v-135q0 -18 -14 -29q2 -2 1 -3t1 -3h-2 q6 -14 11 -31.5t5 -46.5q0 -27 -5 -44t-11 -32q-6 -12 -6 -26q0 -16 -11.5 -27.5t-27.5 -11.5q-23 0 -49.5 8t-44.5 43v151zM82 2q0 10 4 39t8 53q-8 8 -11 20.5t1 22.5q10 31 13 79t3 103q0 25 -1 49.5t-1 49.5v82q0 4 4 13t9 13l28 29q18 18 39 12t25 -28q4 -18 13 -39 t17 -37v-389q-6 -20 -9 -37t-5 -35t-2 -43v-57v-29q0 -43 1 -82t3 -55q0 -35 -17.5 -61.5t-51.5 -26.5q-27 0 -41.5 12t-28.5 29v313z" />
<glyph unicode="&#xa7;" horiz-adv-x="694" d="M481 977q-2 0 -11 -2t-21.5 -5t-22.5 -6t-12 -3h-23q-2 0 -12 -4.5t-14 -6.5q-6 -4 -19 -4q-12 -14 -28.5 -22.5t-38.5 -16.5q-10 -10 -16.5 -16t-26.5 -6h-9l-41 -39l-26 -12l-15 -27v4l-8 -27q8 -12 8 -24q0 -4 9 -6l28 -17h17q4 0 22.5 -5t28.5 -9h14q23 0 27 -6 t14 -12q12 -12 12 -13h226q4 0 14 -4t14 -8l7 -6q51 -25 65 -42.5t14 -58.5v-24q0 -4 -7 -23.5t-16 -44t-18.5 -47t-13.5 -28.5l6 8q-16 -31 -57 -52l16 -14q6 0 17.5 -5t15.5 -11l6 -6q16 -16 23.5 -28.5t7.5 -41.5v-23q0 -2 -6 -20t-14.5 -42t-17.5 -46.5t-15 -30.5 q-10 -20 -35 -34.5t-51 -26.5q-14 -6 -25.5 -12.5t-21.5 -16.5l-41 -20h-13l-20 -7q-10 -14 -26.5 -26t-31.5 -21q-6 0 -15 1t-17 6q-14 -8 -31.5 -16.5t-28.5 -10.5h-75l-66 16q-18 14 -28.5 23.5t-16.5 21t-7 25.5t-1 41q0 25 7 50.5t19.5 44t27.5 24.5t30 -9 q23 -10 24 -28l15 -70q0 -2 4 -8l37 -8q6 0 16 2t18 10l48 12l43 29l59 31q16 16 33.5 28.5t36.5 24.5l-2 -2l40 29q2 4 5.5 9t5.5 9v4q0 2 -1 3t-1 3h-21q-10 0 -26 8q-16 -8 -37 -8q-2 0 -14.5 3t-28 5.5t-28.5 4.5t-15 2h-21q-2 0 -11 3t-18.5 6t-17.5 5t-10 2h-12 q-10 0 -23.5 -1t-28.5 -1q-37 0 -50 10t-23 21v2q-2 0 -2 2q-12 2 -25.5 4t-26 7t-19.5 15.5t-7 28.5q0 10 2 16q-10 4 -22.5 12.5t-18.5 20.5q-20 10 -21 37v19q0 8 -1 15t-1 11t1 16.5t1 22.5v6q0 4 3.5 14.5t7.5 12.5l8 10l-4 -4l49 59l-12 -12q2 4 8 12q4 6 10 13.5 t12 15.5q-2 4 -2 18v21q-8 2 -19 7t-18 22q-23 10 -22 36q0 2 -1 9.5t-1 15.5v18q0 8 1 19.5t1 19.5v15q4 14 11 24.5t18 20.5l-3 -2q4 4 8.5 10t8.5 10q4 6 8 10l37 39q-4 0 -4 4q8 16 15 24.5t28 10.5l26 27q4 0 11 2q12 4 18 4q8 0 14 -4q25 18 59 32.5t64 18.5 q10 23 33 23q10 0 31 8h-2q23 10 63 10q51 0 90 -7t78 -28q8 -4 14.5 -14t6.5 -21v-6q0 -35 -4.5 -50t-8.5 -38q-2 -8 -3 -11t-1 -7v-6q0 -23 -17.5 -34t-37.5 -1l-14 6q-8 4 -15.5 14.5t-7.5 20.5q0 45 -26 45h-11zM283 389q2 -2 5 -3t5 -3l4 -4h10l37 22l59 31 q29 29 70 49h-2q10 8 21.5 15.5t17.5 13.5l8 16v15h-20q-4 0 -11.5 2t-11.5 4q-10 -2 -19.5 -4t-19.5 -2q-4 0 -16 3t-27.5 5t-29 4t-17.5 2h-18q-2 0 -10.5 3t-17.5 6t-17.5 5t-10.5 2h-14q-10 0 -23.5 -1t-25.5 -1h-4q-10 -8 -19.5 -20t-13.5 -17l-35 -18q6 2 1 -5t-9 -11 q-2 -2 -5 -5.5t-3 -5.5l-6 -18q6 -4 10 -20q18 -10 37 -27h16q4 0 22.5 -5t28.5 -9h15q21 -1 39 -19z" />
<glyph unicode="&#xa8;" horiz-adv-x="536" d="M150 1628q51 0 62 -27.5t11 -66.5q0 -45 -16.5 -72.5t-63.5 -27.5q-18 0 -28 4q-4 0 -5 1t-6 1q-23 0 -34 18q-10 8 -18.5 17.5t-8.5 29.5q0 47 25 85t82 38zM311 1595q10 10 32 20.5t32 10.5q16 0 34.5 -13.5t34 -29.5t25.5 -29.5t10 -15.5q0 -41 -13 -56.5t-30 -25.5 l-12 -10q-4 -2 -11 -5t-14 -5h7q-6 -4 -12.5 -6.5t-16.5 -2.5q-25 0 -41.5 13.5t-25.5 29t-12 29.5t-3 19q0 18 2 37.5t10 33.5q0 2 1 2t1 2t2 2z" />
<glyph unicode="&#xad;" horiz-adv-x="604" d="M-2 643q0 47 29.5 74.5t70.5 27.5q45 0 86 -12l-2 2q4 0 6 -2q4 6 13.5 10.5t17.5 4.5h100q8 8 19 8h10q8 0 20.5 -1t22.5 -1h6l2 2q10 8 24.5 13t49.5 5q4 0 11.5 -1t13.5 -1h22q16 0 26.5 -11t10.5 -28q0 -16 -8 -36.5t-22.5 -38t-32 -30t-35.5 -12.5q-4 0 -20.5 -2 t-36 -4t-37 -4t-23.5 -2h-8q-12 0 -19 2q-10 -10 -23 -15t-32 -5q-29 0 -57.5 4t-50.5 8q-20 4 -40 6t-30 2t-17.5 -1t-15.5 -1h-12z" />
<glyph unicode="&#xaf;" horiz-adv-x="729" d="M184 1571q2 0 9.5 -2t11.5 -4t10 -3t10 -3l13 -5q10 0 18 5q10 4 24.5 8t36.5 4h86l50 6q23 4 42 6t27 2h45q2 0 -3 -1t1 3t13.5 7t15.5 5h-2q29 4 45 -5t24.5 -28.5t10.5 -46t2 -53.5q0 -16 -11.5 -27.5t-27.5 -11.5q-23 0 -45 17q-8 -4 -16.5 -8t-12.5 -4q-20 0 -39 12 h-2l-6 4q-74 -10 -139.5 -12t-136.5 -2q-10 0 -11.5 -3.5t-11.5 -9.5q-29 -18 -51 -18h-137q-20 0 -30.5 14.5t-6.5 32.5q20 70 49 87t61 17h31l2 2q-2 0 10 5h-2q4 4 9.5 4t3.5 -4q4 4 12 7t12 3h6v0z" />
<glyph unicode="&#xb0;" horiz-adv-x="391" d="M295 584l-12 -19q0 2 1 5t1 8q-2 -6 -6.5 -14.5t-4.5 -10.5q-20 -16 -38 -10q-16 -23 -39 -29t-43 -6l12 2q-16 0 -41 12q-18 -8 -45 -8q-16 0 -26.5 10.5t-10.5 26.5v20q-10 10 -20.5 22.5t-14.5 22.5q-18 14 -18 35q0 18 1 28.5t5 20.5q-4 10 -4 18.5v18.5q0 20 8 45 t12 41q0 10 4 6v23l17 43q16 45 31.5 65.5t31.5 30.5l17 17q8 6 21 18t38 23q10 4 23.5 2t19.5 -11q4 -10 14 -16q6 -6 11 -8h26q20 -14 39 -31q14 -14 26.5 -29.5t12.5 -31.5q0 -10 -2 -13l16 -39q4 -6 7.5 -16t1.5 -8q2 -25 0 -37q12 -25 -11 -43q-4 -16 -14 -27v-28 q0 -35 -3 -56.5t-20 -21.5h-4q-4 2 -8 12q-2 0 -2 -2v-12zM131 713l1 -11l2 -24t5 -22.5t11 -10.5l12 2q4 25 14 34t25 19h2v2l6 13v2q-10 14 -10 31q0 31 18 43q0 14 2 20v2q-10 20 -10 47h-2q-20 -10 -39 0q-4 0 -6 -2q-2 -6 -6 -14q-2 -4 -2 -6q0 -27 -4.5 -43.5 t-8.5 -30.5q-4 -12 -7 -23.5t-3 -27.5zM221 805l-2 4q0 -2 2 -4zM338 690q-4 -8 -4 -12q0 4 4 12z" />
<glyph unicode="&#xb4;" horiz-adv-x="526" d="M70 1497q25 8 46 28.5t44 43.5v-2q12 14 28.5 29.5t32.5 27.5q8 4 21.5 9t25.5 9l15 33q4 18 15 26.5t28 6.5l14 12q23 16 46.5 29.5t57.5 13.5q16 0 27.5 -11t11.5 -28q0 -23 -15 -52.5t-37.5 -57t-47.5 -50t-41 -32.5q-39 -39 -70 -62l-63 -59q-20 -10 -28.5 -16 t-18.5 -27q-4 -8 -15.5 -15t-19.5 -7h-10q-6 0 -12.5 1t-14.5 1q-35 0 -41 -5q-10 -12 -26.5 -12t-26.5 12q-10 10 -12 23.5t-2 17.5q0 33 16 44.5t39 21.5h6t2 -6l10 -10zM334 1708l10 -6zM322 1706l-9 -4q5 4 9 4z" />
<glyph unicode="&#xb7;" horiz-adv-x="247" d="M47 672q12 10 29.5 20t27.5 10q8 0 24.5 -11t33 -24.5t28 -26.5t11.5 -17q0 -41 -30 -71t-65 -30q-16 0 -29.5 11.5t-22.5 26.5t-15 28.5t-6 19.5q0 16 4 38t14 32z" />
<glyph unicode="&#xb8;" horiz-adv-x="512" d="M92 152q4 4 13.5 8t13.5 4q33 0 55.5 -13.5t22.5 -41.5v-148q10 2 14 3t6 1q6 -2 14 -4q6 -2 12.5 -5t10.5 -5h4q18 4 36.5 10t37.5 6q20 0 44.5 -4t49.5 -15t44 -28.5t28 -42.5v-98q0 -25 -21 -45v-4v4q-12 -14 -24.5 -17.5t-16.5 13.5q0 -23 -3 -34t-5 -17.5t-3 -10.5 t-1 -12q-35 -41 -89 -75t-108 -50h2l-94 -31h-29q-41 8 -59 19.5t-18 48.5q0 4 3 18.5t19 32.5l99 16q16 8 30.5 12.5t34.5 10.5q10 14 41 31v-2q16 12 32.5 23t24.5 20l27 26q8 16 21.5 42t15.5 32h-49l-2 -2l-52 -31q-4 0 -18 -1t-31.5 -2t-32 -1h-20.5q-8 0 -16 4 q-55 2 -69.5 27.5t-23.5 64.5l-4 25q0 2 -2 8t-4 15q-6 18 -12 47.5t-10 76.5v19q0 4 4 14t8 15z" />
<glyph unicode="&#xbf;" horiz-adv-x="550" d="M311 942q-2 0 -7 1t-9 1h-8q-25 0 -35 18.5t2 38.5q23 37 60.5 59.5t66.5 22.5q16 0 26.5 -11t10.5 -28q0 -53 -31 -77.5t-76 -24.5zM426 653q10 -23 -6.5 -42t-40.5 -9l-31 12l-12 11q4 -4 -10.5 -27t-28.5 -35l-25 -22q-27 -23 -46 -41.5t-37.5 -45t-40 -66.5 t-48.5 -103q2 -53 24.5 -80t53.5 -39l2 2q12 10 34 23.5t69 19.5q25 0 41 11t32 28l19 18q29 4 50 -1t44 -11q18 -6 29 -6q16 0 27.5 -10.5t11.5 -26.5v-53q0 -16 -11.5 -27.5t-27.5 -11.5q-14 0 -30.5 -3t-27.5 -14q-51 -10 -92 -23t-72 -28q-29 -10 -52 -18t-42 -8 q-4 0 -14 4t-14 8q-12 12 -39 12q-27 2 -52.5 12.5t-48.5 57.5l-16 16q-4 8 -7 26.5t-6 39t-5.5 37t-2.5 22.5q0 4 5.5 16.5t11.5 22.5q0 20 5 54t18.5 71t36 74t59.5 61q25 31 51 52.5t55 41.5l-2 -2q29 20 53.5 41t40.5 47q2 20 -2 26.5t-8 10.5q-10 8 -16 18.5t-6 28.5 q0 4 3 14.5t10 20.5t17 18.5t23 8.5q37 0 57.5 -3t31.5 -10.5t14 -18.5t5 -28q0 -6 2 -8l-8 4q16 -16 28.5 -40.5t12.5 -39.5q0 -10 -8 -22q-4 -6 -6 -8v-6q0 -35 -9.5 -42.5t-25.5 -11.5q0 2 1 2t1 2q-2 0 -8 7z" />
<glyph unicode="&#xc0;" d="M612 1343q-8 0 -28.5 3.5t-44 12.5t-45 24.5t-29.5 37.5q-16 14 -34.5 33t-41.5 41v-2q-25 23 -43 41t-43 41q-10 2 -25.5 13t-32 24.5t-27.5 30t-11 28.5q0 6 9 20.5t21.5 28t25.5 24.5t22 11q14 0 25.5 -9t21.5 -20l14 -16q2 2 21 -6l-2 2q16 -8 30.5 -17.5t20.5 -13.5 q10 -8 18 -20.5t17 -22.5l6 -14l8 -12q0 8 -2 10l20 -8q27 -27 51.5 -54.5t45.5 -58.5q35 -39 53 -74t18 -39q0 -16 -11.5 -27.5t-27.5 -11.5zM457 1618q4 0 4 2q0 -2 1 -2t1 -2q-2 0 -3 1t-3 1zM57 201q-10 0 -16 -5.5t-8 -9.5v21q0 12 4 16q2 4 5 8.5t5 4.5v122 q0 16 10.5 26.5t26.5 12.5q-2 2 -3 8.5t-1 10.5h-2h-4q-2 2 -3 5t-3 7l-5 8q0 16 1.5 24.5t5.5 16.5q2 4 7 23.5t15 74.5v3q0 6 1 17t8.5 47t22.5 103.5t44 184.5q2 6 7 22.5t9 26.5q2 35 8.5 60.5t16.5 43.5q8 16 14 38t6 61v45t-4 41q16 25 43 43t37 18q18 0 37 -18 q8 2 24.5 4l33 4t30.5 4t19 2q31 0 50 -3t33.5 -9t25.5 -17.5t26 -25.5h-2l12 -15q18 -16 22.5 -33.5t12.5 -37.5l-2 2q4 -10 8 -17.5t-21 -23.5q18 8 35 -2t17 -33q0 -4 -3.5 -16.5t-7.5 -20.5l6.5 -13t4.5 -13q0 -6 4 -19.5t8 -30.5q6 -25 12 -47t6 -39v-8q0 -8 -1 -13 t-1 -11q2 -8 7.5 -24.5t9.5 -35l8 -37t6 -30.5l-2 4q2 -14 4 -31q2 -14 3 -29.5t3 -29.5q2 -29 4 -52.5t4 -29.5v-9q4 -20 9.5 -37.5t5.5 -37.5v-94q0 2 1 -4.5t5 -12.5v2q2 -4 3 -10t3 -10l4 -13q0 -47 3 -84.5t7 -74.5q4 -35 5 -66t1 -67q0 -16 -10 -27.5t-26 -11.5 q-4 0 -23.5 2t-32.5 4q-10 6 -23.5 25.5t-24.5 43t-19 46t-8 34.5q0 4 2 22.5t6 39.5q2 10 3 18t1 6q0 10 8 21.5t18 15.5q-25 -10 -26 -10l-4 -2q-8 23 -8 45v49q-4 0 -5 6q-4 10 -8 18.5t-4 20.5q0 16 3 22.5t9 16.5q2 4 4.5 11t2.5 32t-9 49q-23 -16 -58.5 -29.5 t-74.5 -25.5q-59 -20 -112.5 -42t-71.5 -44q-8 -12 -21.5 -15.5t-23.5 3.5q-6 -10 -11 -23.5t-14 -38.5l2 2q-18 -102 -30.5 -183t-12.5 -116q-27 -78 -30.5 -137t-3.5 -117q0 -16 -11.5 -27.5t-27.5 -11.5q-6 0 -21.5 12.5t-32 28t-29 29.5t-12.5 20v314zM469 643 q25 8 53.5 16.5t67.5 12.5q-6 33 -14.5 80t-18.5 108q0 16 -2 33q-4 33 -12 53l-27 109q-8 23 -13 36t-5 29q-6 18 -17.5 47t-21.5 39q-16 -10 -37 -26.5t-31 -32.5q-10 -14 -31 -19q16 -2 20.5 -6t2.5 -12t-8 -17.5t-10 -21.5v2q-6 -29 -12.5 -45t-14.5 -45q8 -10 3 -22.5 t-15 -28.5l2 6q-4 -8 -5 -16.5t-1 -10.5v-41q0 -20 -6.5 -31.5t-12.5 -17.5q0 -6 1 -19.5t1 -21.5q-10 -16 -12 -28.5t-2 -22.5q-2 -14 -3 -27.5t-12 -33.5q0 -25 -3 -46.5t-7 -41.5q14 6 25.5 10t23.5 8q8 4 16.5 6t12.5 6t13.5 7.5t13.5 3.5q31 0 53 6t47 16h-2z" />
<glyph unicode="&#xc1;" d="M264 1497q23 8 45.5 28.5t44.5 43.5v-2q14 16 30.5 32.5t39.5 32.5l37 10h2l16 33q2 14 11.5 21.5t21.5 9.5q16 2 30.5 -8t14.5 -27q0 29 -12.5 33t-22.5 4q-4 0 -8 -2l16 12q23 16 50.5 31.5t64.5 7.5q8 -2 17.5 -10t13.5 -18q2 -8 3 -19.5t-8 -32t-34 -52.5t-70 -79 l-30 -14q-8 -4 -16.5 -13.5t-18.5 -17.5q-6 -6 -17.5 -15t-20.5 -16.5t-15.5 -12.5t-4.5 -5q-16 -16 -29.5 -26.5t-23.5 -16.5q-10 -10 -18 -17.5t-17 -23.5q-4 -8 -15 -15t-19 -7h-11q-6 0 -13 1t-13 1q-35 0 -41 -5q-12 -12 -27.5 -12t-26.5 12q-10 10 -12 23.5t-2 17.5 q0 37 17.5 45.5t35.5 18.5q4 4 8.5 5t4.5 -9q0 -2 2 -4l6 -6zM57 201q-10 0 -16 -5.5t-8 -9.5v21q0 12 4 16q2 4 5 8.5t5 4.5v122q0 16 10.5 26.5t26.5 12.5q-2 2 -3 8.5t-1 10.5h-2h-4q-2 2 -3 5t-3 7l-5 8q0 16 1.5 24.5t5.5 16.5q2 4 7 23.5t15 74.5v3q0 6 1 17t8.5 47 t22.5 103.5t44 184.5q2 6 7 22.5t9 26.5q2 35 8.5 60.5t16.5 43.5q8 16 14 38t6 61v45t-4 41q16 25 43 43t37 18q18 0 37 -18q8 2 24.5 4l33 4t30.5 4t19 2q31 0 50 -3t33.5 -9t25.5 -17.5t26 -25.5h-2l12 -15q18 -16 22.5 -33.5t12.5 -37.5l-2 2q4 -10 8 -17.5t-21 -23.5 q18 8 35 -2t17 -33q0 -4 -3.5 -16.5t-7.5 -20.5l6.5 -13t4.5 -13q0 -6 4 -19.5t8 -30.5q6 -25 12 -47t6 -39v-8q0 -8 -1 -13t-1 -11q2 -8 7.5 -24.5t9.5 -35l8 -37t6 -30.5l-2 4q2 -14 4 -31q2 -14 3 -29.5t3 -29.5q2 -29 4 -52.5t4 -29.5v-9q4 -20 9.5 -37.5t5.5 -37.5v-94 q0 2 1 -4.5t5 -12.5v2q2 -4 3 -10t3 -10l4 -13q0 -47 3 -84.5t7 -74.5q4 -35 5 -66t1 -67q0 -16 -10 -27.5t-26 -11.5q-4 0 -23.5 2t-32.5 4q-10 6 -23.5 25.5t-24.5 43t-19 46t-8 34.5q0 4 2 22.5t6 39.5q2 10 3 18t1 6q0 10 8 21.5t18 15.5q-25 -10 -26 -10l-4 -2 q-8 23 -8 45v49q-4 0 -5 6q-4 10 -8 18.5t-4 20.5q0 16 3 22.5t9 16.5q2 4 4.5 11t2.5 32t-9 49q-23 -16 -58.5 -29.5t-74.5 -25.5q-59 -20 -112.5 -42t-71.5 -44q-8 -12 -21.5 -15.5t-23.5 3.5q-6 -10 -11 -23.5t-14 -38.5l2 2q-18 -102 -30.5 -183t-12.5 -116 q-27 -78 -30.5 -137t-3.5 -117q0 -16 -11.5 -27.5t-27.5 -11.5q-6 0 -21.5 12.5t-32 28t-29 29.5t-12.5 20v314zM469 643q25 8 53.5 16.5t67.5 12.5q-6 33 -14.5 80t-18.5 108q0 16 -2 33q-4 33 -12 53l-27 109q-8 23 -13 36t-5 29q-6 18 -17.5 47t-21.5 39 q-16 -10 -37 -26.5t-31 -32.5q-10 -14 -31 -19q16 -2 20.5 -6t2.5 -12t-8 -17.5t-10 -21.5v2q-6 -29 -12.5 -45t-14.5 -45q8 -10 3 -22.5t-15 -28.5l2 6q-4 -8 -5 -16.5t-1 -10.5v-41q0 -20 -6.5 -31.5t-12.5 -17.5q0 -6 1 -19.5t1 -21.5q-10 -16 -12 -28.5t-2 -22.5 q-2 -14 -3 -27.5t-12 -33.5q0 -25 -3 -46.5t-7 -41.5q14 6 25.5 10t23.5 8q8 4 16.5 6t12.5 6t13.5 7.5t13.5 3.5q31 0 53 6t47 16h-2z" />
<glyph unicode="&#xc2;" d="M244 1542h-6l2 2h6q10 25 24.5 45.5t36.5 26.5h2q14 25 27 37q12 14 29 47l26 14q14 10 29.5 18.5t34.5 8.5q2 0 2 -1t4 -1h14q43 -14 67.5 -28.5t38 -29t17.5 -31t8 -34.5l6 -27q8 -10 17.5 -26.5t17.5 -26.5q10 -18 20.5 -34.5t14.5 -20.5t7 -10.5t1 -6.5 q16 -23 24.5 -40t8.5 -48q0 -16 -10.5 -26.5t-26.5 -10.5q-6 0 -18.5 1t-26.5 2t-27.5 3.5t-17.5 2.5q-23 25 -33 47t-16 41v-2q-8 20 -23 34q-16 29 -31.5 55.5t-31.5 49.5q-8 -14 -19.5 -25.5t-21.5 -23.5l-29 -33q-4 -4 -14 -8t-15 -4h-8q4 -4 -8 -22.5t-27 -37.5v2 q-16 -23 -28 -39t-21 -24q-23 -23 -52.5 -27t-57.5 -4q-16 0 -26.5 11.5t-10.5 27.5q0 29 10 47.5t29 40.5q10 14 22.5 29.5t24.5 38.5zM57 201q-10 0 -16 -5.5t-8 -9.5v21q0 12 4 16q2 4 5 8.5t5 4.5v122q0 16 10.5 26.5t26.5 12.5q-2 2 -3 8.5t-1 10.5h-2h-4q-2 2 -3 5 t-3 7l-5 8q0 16 1.5 24.5t5.5 16.5q2 4 7 23.5t15 74.5v3q0 6 1 17t8.5 47t22.5 103.5t44 184.5q2 6 7 22.5t9 26.5q2 35 8.5 60.5t16.5 43.5q8 16 14 38t6 61v45t-4 41q16 25 43 43t37 18q18 0 37 -18q8 2 24.5 4l33 4t30.5 4t19 2q31 0 50 -3t33.5 -9t25.5 -17.5t26 -25.5 h-2l12 -15q18 -16 22.5 -33.5t12.5 -37.5l-2 2q4 -10 8 -17.5t-21 -23.5q18 8 35 -2t17 -33q0 -4 -3.5 -16.5t-7.5 -20.5l6.5 -13t4.5 -13q0 -6 4 -19.5t8 -30.5q6 -25 12 -47t6 -39v-8q0 -8 -1 -13t-1 -11q2 -8 7.5 -24.5t9.5 -35l8 -37t6 -30.5l-2 4q2 -14 4 -31 q2 -14 3 -29.5t3 -29.5q2 -29 4 -52.5t4 -29.5v-9q4 -20 9.5 -37.5t5.5 -37.5v-94q0 2 1 -4.5t5 -12.5v2q2 -4 3 -10t3 -10l4 -13q0 -47 3 -84.5t7 -74.5q4 -35 5 -66t1 -67q0 -16 -10 -27.5t-26 -11.5q-4 0 -23.5 2t-32.5 4q-10 6 -23.5 25.5t-24.5 43t-19 46t-8 34.5 q0 4 2 22.5t6 39.5q2 10 3 18t1 6q0 10 8 21.5t18 15.5q-25 -10 -26 -10l-4 -2q-8 23 -8 45v49q-4 0 -5 6q-4 10 -8 18.5t-4 20.5q0 16 3 22.5t9 16.5q2 4 4.5 11t2.5 32t-9 49q-23 -16 -58.5 -29.5t-74.5 -25.5q-59 -20 -112.5 -42t-71.5 -44q-8 -12 -21.5 -15.5t-23.5 3.5 q-6 -10 -11 -23.5t-14 -38.5l2 2q-18 -102 -30.5 -183t-12.5 -116q-27 -78 -30.5 -137t-3.5 -117q0 -16 -11.5 -27.5t-27.5 -11.5q-6 0 -21.5 12.5t-32 28t-29 29.5t-12.5 20v314zM469 643q25 8 53.5 16.5t67.5 12.5q-6 33 -14.5 80t-18.5 108q0 16 -2 33q-4 33 -12 53 l-27 109q-8 23 -13 36t-5 29q-6 18 -17.5 47t-21.5 39q-16 -10 -37 -26.5t-31 -32.5q-10 -14 -31 -19q16 -2 20.5 -6t2.5 -12t-8 -17.5t-10 -21.5v2q-6 -29 -12.5 -45t-14.5 -45q8 -10 3 -22.5t-15 -28.5l2 6q-4 -8 -5 -16.5t-1 -10.5v-41q0 -20 -6.5 -31.5t-12.5 -17.5 q0 -6 1 -19.5t1 -21.5q-10 -16 -12 -28.5t-2 -22.5q-2 -14 -3 -27.5t-12 -33.5q0 -25 -3 -46.5t-7 -41.5q14 6 25.5 10t23.5 8q8 4 16.5 6t12.5 6t13.5 7.5t13.5 3.5q31 0 53 6t47 16h-2z" />
<glyph unicode="&#xc3;" d="M407 1448q-2 0 -2 1t-2 1q-20 10 -8 39q-25 8 -23 20.5t-2 16.5q-8 8 -8 16q-2 4 -4 6t-2 6q-6 2 -8 9h-13l-4 -2l4 4q-8 -6 -15 -13.5t-7 -9.5q-16 -33 -25.5 -57.5t-9.5 -30.5q0 -25 -22 -35v-6q0 -23 -16.5 -33t-37.5 -2l-45 21l-22 35q0 -12 -2 -6l-4 12 q-4 8 -7.5 20.5t-3.5 16.5q0 6 10.5 27.5t18.5 33.5q0 12 7 22.5t22 14.5q8 18 22 37l2 2l2 2q0 6 8.5 23.5t8.5 25.5q4 0 12 8q4 4 8 10l43 19q4 2 7 0t5 -14q2 12 14.5 22t28.5 6l48 -6l-7 -14h5q25 -4 38 -18.5t23 -30.5q6 2 14 0q18 -10 27 -31q0 -2 4 -6 q4 -8 14.5 -20.5t24.5 -26.5q4 -4 7 -11.5t7 -11.5l2 -2q2 -4 9 -4l16 2v-7t2 -7t6 3t8 27q-6 -4 -4 -1t4 8q8 12 23 20h-2q4 6 12 14.5t18 12.5q-20 0 -19 1l3 3v-2q10 27 23.5 56.5t54.5 29.5q29 0 40 -16.5t13 -39.5q29 -8 29 -36q0 -20 -11.5 -38t-21.5 -36l-17.5 -24.5 t-7.5 -14.5q0 -16 -10 -27.5t-26 -11.5q-12 -12 -29 -8q-16 -23 -34.5 -41.5t-26.5 -18.5q-4 0 -12.5 3.5t-12.5 7.5q6 -8 1 -11.5t-11 -5.5q-20 -10 -39 -10q-12 0 -18.5 5t-10.5 9t-6 6.5t-6 -6.5l10 -4q-6 0 -10 4q-55 29 -37 43q-10 8 -18.5 13.5t-18.5 11.5zM57 201 q-10 0 -16 -5.5t-8 -9.5v21q0 12 4 16q2 4 5 8.5t5 4.5v122q0 16 10.5 26.5t26.5 12.5q-2 2 -3 8.5t-1 10.5h-2h-4q-2 2 -3 5t-3 7l-5 8q0 16 1.5 24.5t5.5 16.5q2 4 7 23.5t15 74.5v3q0 6 1 17t8.5 47t22.5 103.5t44 184.5q2 6 7 22.5t9 26.5q2 35 8.5 60.5t16.5 43.5 q8 16 14 38t6 61v45t-4 41q16 25 43 43t37 18q18 0 37 -18q8 2 24.5 4l33 4t30.5 4t19 2q31 0 50 -3t33.5 -9t25.5 -17.5t26 -25.5h-2l12 -15q18 -16 22.5 -33.5t12.5 -37.5l-2 2q4 -10 8 -17.5t-21 -23.5q18 8 35 -2t17 -33q0 -4 -3.5 -16.5t-7.5 -20.5l6.5 -13t4.5 -13 q0 -6 4 -19.5t8 -30.5q6 -25 12 -47t6 -39v-8q0 -8 -1 -13t-1 -11q2 -8 7.5 -24.5t9.5 -35l8 -37t6 -30.5l-2 4q2 -14 4 -31q2 -14 3 -29.5t3 -29.5q2 -29 4 -52.5t4 -29.5v-9q4 -20 9.5 -37.5t5.5 -37.5v-94q0 2 1 -4.5t5 -12.5v2q2 -4 3 -10t3 -10l4 -13q0 -47 3 -84.5 t7 -74.5q4 -35 5 -66t1 -67q0 -16 -10 -27.5t-26 -11.5q-4 0 -23.5 2t-32.5 4q-10 6 -23.5 25.5t-24.5 43t-19 46t-8 34.5q0 4 2 22.5t6 39.5q2 10 3 18t1 6q0 10 8 21.5t18 15.5q-25 -10 -26 -10l-4 -2q-8 23 -8 45v49q-4 0 -5 6q-4 10 -8 18.5t-4 20.5q0 16 3 22.5t9 16.5 q2 4 4.5 11t2.5 32t-9 49q-23 -16 -58.5 -29.5t-74.5 -25.5q-59 -20 -112.5 -42t-71.5 -44q-8 -12 -21.5 -15.5t-23.5 3.5q-6 -10 -11 -23.5t-14 -38.5l2 2q-18 -102 -30.5 -183t-12.5 -116q-27 -78 -30.5 -137t-3.5 -117q0 -16 -11.5 -27.5t-27.5 -11.5q-6 0 -21.5 12.5 t-32 28t-29 29.5t-12.5 20v314zM469 643q25 8 53.5 16.5t67.5 12.5q-6 33 -14.5 80t-18.5 108q0 16 -2 33q-4 33 -12 53l-27 109q-8 23 -13 36t-5 29q-6 18 -17.5 47t-21.5 39q-16 -10 -37 -26.5t-31 -32.5q-10 -14 -31 -19q16 -2 20.5 -6t2.5 -12t-8 -17.5t-10 -21.5v2 q-6 -29 -12.5 -45t-14.5 -45q8 -10 3 -22.5t-15 -28.5l2 6q-4 -8 -5 -16.5t-1 -10.5v-41q0 -20 -6.5 -31.5t-12.5 -17.5q0 -6 1 -19.5t1 -21.5q-10 -16 -12 -28.5t-2 -22.5q-2 -14 -3 -27.5t-12 -33.5q0 -25 -3 -46.5t-7 -41.5q14 6 25.5 10t23.5 8q8 4 16.5 6t12.5 6 t13.5 7.5t13.5 3.5q31 0 53 6t47 16h-2z" />
<glyph unicode="&#xc4;" d="M299 1628q31 0 46 -7t21.5 -20.5t7.5 -31t1 -35.5q0 -43 -13.5 -71.5t-68.5 -28.5h-12.5t-16.5 4q-4 0 -5 1t-3 1q-27 0 -35 18q-10 8 -19 17.5t-9 29.5q0 47 25.5 85t80.5 38zM446 1518q0 16 2.5 36.5t10.5 34.5q0 2 4 6q12 10 32.5 20.5t28.5 10.5q16 0 35 -13.5 t34 -28.5t25 -30l11 -14q0 -41 -11.5 -57.5t-27.5 -26.5q-2 -2 -3 -2t-3 -2t-4 -2q-10 -10 -27 -14h4q-6 -4 -13 -6.5t-18 -2.5q-23 0 -38 12.5t-24 28t-13.5 31t-4.5 19.5zM340 1507l-12 -2l8 -4zM340 1507l-12 -2l8 -4zM57 201q-10 0 -16 -5.5t-8 -9.5v21q0 12 4 16 q2 4 5 8.5t5 4.5v122q0 16 10.5 26.5t26.5 12.5q-2 2 -3 8.5t-1 10.5h-2h-4q-2 2 -3 5t-3 7l-5 8q0 16 1.5 24.5t5.5 16.5q2 4 7 23.5t15 74.5v3q0 6 1 17t8.5 47t22.5 103.5t44 184.5q2 6 7 22.5t9 26.5q2 35 8.5 60.5t16.5 43.5q8 16 14 38t6 61v45t-4 41q16 25 43 43 t37 18q18 0 37 -18q8 2 24.5 4l33 4t30.5 4t19 2q31 0 50 -3t33.5 -9t25.5 -17.5t26 -25.5h-2l12 -15q18 -16 22.5 -33.5t12.5 -37.5l-2 2q4 -10 8 -17.5t-21 -23.5q18 8 35 -2t17 -33q0 -4 -3.5 -16.5t-7.5 -20.5l6.5 -13t4.5 -13q0 -6 4 -19.5t8 -30.5q6 -25 12 -47t6 -39 v-8q0 -8 -1 -13t-1 -11q2 -8 7.5 -24.5t9.5 -35l8 -37t6 -30.5l-2 4q2 -14 4 -31q2 -14 3 -29.5t3 -29.5q2 -29 4 -52.5t4 -29.5v-9q4 -20 9.5 -37.5t5.5 -37.5v-94q0 2 1 -4.5t5 -12.5v2q2 -4 3 -10t3 -10l4 -13q0 -47 3 -84.5t7 -74.5q4 -35 5 -66t1 -67q0 -16 -10 -27.5 t-26 -11.5q-4 0 -23.5 2t-32.5 4q-10 6 -23.5 25.5t-24.5 43t-19 46t-8 34.5q0 4 2 22.5t6 39.5q2 10 3 18t1 6q0 10 8 21.5t18 15.5q-25 -10 -26 -10l-4 -2q-8 23 -8 45v49q-4 0 -5 6q-4 10 -8 18.5t-4 20.5q0 16 3 22.5t9 16.5q2 4 4.5 11t2.5 32t-9 49 q-23 -16 -58.5 -29.5t-74.5 -25.5q-59 -20 -112.5 -42t-71.5 -44q-8 -12 -21.5 -15.5t-23.5 3.5q-6 -10 -11 -23.5t-14 -38.5l2 2q-18 -102 -30.5 -183t-12.5 -116q-27 -78 -30.5 -137t-3.5 -117q0 -16 -11.5 -27.5t-27.5 -11.5q-6 0 -21.5 12.5t-32 28t-29 29.5t-12.5 20 v314zM469 643q25 8 53.5 16.5t67.5 12.5q-6 33 -14.5 80t-18.5 108q0 16 -2 33q-4 33 -12 53l-27 109q-8 23 -13 36t-5 29q-6 18 -17.5 47t-21.5 39q-16 -10 -37 -26.5t-31 -32.5q-10 -14 -31 -19q16 -2 20.5 -6t2.5 -12t-8 -17.5t-10 -21.5v2q-6 -29 -12.5 -45t-14.5 -45 q8 -10 3 -22.5t-15 -28.5l2 6q-4 -8 -5 -16.5t-1 -10.5v-41q0 -20 -6.5 -31.5t-12.5 -17.5q0 -6 1 -19.5t1 -21.5q-10 -16 -12 -28.5t-2 -22.5q-2 -14 -3 -27.5t-12 -33.5q0 -25 -3 -46.5t-7 -41.5q14 6 25.5 10t23.5 8q8 4 16.5 6t12.5 6t13.5 7.5t13.5 3.5q31 0 53 6 t47 16h-2z" />
<glyph unicode="&#xc5;" d="M224 1460q0 6 2 10q-14 10 -21.5 23.5t-7.5 26.5l-4 -7q0 16 6 27q-6 14 -6 39v20q0 6 2 11q6 16 11 34.5t9.5 35t6.5 28.5t2 14q0 4 1 14.5t13 21.5t42 20.5t89 9.5h6q43 0 78 -7t35 -52q0 -16 -23 -39q18 10 60 10q29 0 41 -11.5t22 -27.5l8 -12q16 -10 27 -31 q31 -23 36 -38t-28 -24q2 -6 2 -14q0 -23 -7 -41t-19 -39q-4 -10 -9.5 -18t-11.5 -19q-4 -4 -11 -9t-13 -7h6q0 -20 -12.5 -30.5t-26.5 -10.5q-20 -16 -54 -20.5t-79 -4.5h-27q-10 0 -17 1.5t-12 1.5q-35 0 -38 32v-10q-23 14 -50.5 37.5t-27.5 54.5zM435 1634q0 33 18 45 l-18 -4q-12 -10 -22.5 -7t-26.5 7q-12 4 -17 4l-2 -4l-24 -22q4 -8 8 -21.5t4 -34.5q0 -43 -10 -57q2 -4 1 -5t1 -5v2q10 -29 16 -44t27 -28q10 4 32.5 16.5t44.5 28.5l2 4q8 8 13 19l8 14l-2 4q-16 16 -34.5 40.5t-18.5 47.5zM57 201q-10 0 -16 -5.5t-8 -9.5v21q0 12 4 16 q2 4 5 8.5t5 4.5v122q0 16 10.5 26.5t26.5 12.5q-2 2 -3 8.5t-1 10.5h-2h-4q-2 2 -3 5t-3 7l-5 8q0 16 1.5 24.5t5.5 16.5q2 4 7 23.5t15 74.5v3q0 6 1 17t8.5 47t22.5 103.5t44 184.5q2 6 7 22.5t9 26.5q2 35 8.5 60.5t16.5 43.5q8 16 14 38t6 61v45t-4 41q16 25 43 43 t37 18q18 0 37 -18q8 2 24.5 4l33 4t30.5 4t19 2q31 0 50 -3t33.5 -9t25.5 -17.5t26 -25.5h-2l12 -15q18 -16 22.5 -33.5t12.5 -37.5l-2 2q4 -10 8 -17.5t-21 -23.5q18 8 35 -2t17 -33q0 -4 -3.5 -16.5t-7.5 -20.5l6.5 -13t4.5 -13q0 -6 4 -19.5t8 -30.5q6 -25 12 -47t6 -39 v-8q0 -8 -1 -13t-1 -11q2 -8 7.5 -24.5t9.5 -35l8 -37t6 -30.5l-2 4q2 -14 4 -31q2 -14 3 -29.5t3 -29.5q2 -29 4 -52.5t4 -29.5v-9q4 -20 9.5 -37.5t5.5 -37.5v-94q0 2 1 -4.5t5 -12.5v2q2 -4 3 -10t3 -10l4 -13q0 -47 3 -84.5t7 -74.5q4 -35 5 -66t1 -67q0 -16 -10 -27.5 t-26 -11.5q-4 0 -23.5 2t-32.5 4q-10 6 -23.5 25.5t-24.5 43t-19 46t-8 34.5q0 4 2 22.5t6 39.5q2 10 3 18t1 6q0 10 8 21.5t18 15.5q-25 -10 -26 -10l-4 -2q-8 23 -8 45v49q-4 0 -5 6q-4 10 -8 18.5t-4 20.5q0 16 3 22.5t9 16.5q2 4 4.5 11t2.5 32t-9 49 q-23 -16 -58.5 -29.5t-74.5 -25.5q-59 -20 -112.5 -42t-71.5 -44q-8 -12 -21.5 -15.5t-23.5 3.5q-6 -10 -11 -23.5t-14 -38.5l2 2q-18 -102 -30.5 -183t-12.5 -116q-27 -78 -30.5 -137t-3.5 -117q0 -16 -11.5 -27.5t-27.5 -11.5q-6 0 -21.5 12.5t-32 28t-29 29.5t-12.5 20 v314zM469 643q25 8 53.5 16.5t67.5 12.5q-6 33 -14.5 80t-18.5 108q0 16 -2 33q-4 33 -12 53l-27 109q-8 23 -13 36t-5 29q-6 18 -17.5 47t-21.5 39q-16 -10 -37 -26.5t-31 -32.5q-10 -14 -31 -19q16 -2 20.5 -6t2.5 -12t-8 -17.5t-10 -21.5v2q-6 -29 -12.5 -45t-14.5 -45 q8 -10 3 -22.5t-15 -28.5l2 6q-4 -8 -5 -16.5t-1 -10.5v-41q0 -20 -6.5 -31.5t-12.5 -17.5q0 -6 1 -19.5t1 -21.5q-10 -16 -12 -28.5t-2 -22.5q-2 -14 -3 -27.5t-12 -33.5q0 -25 -3 -46.5t-7 -41.5q14 6 25.5 10t23.5 8q8 4 16.5 6t12.5 6t13.5 7.5t13.5 3.5q31 0 53 6 t47 16h-2z" />
<glyph unicode="&#xc6;" horiz-adv-x="1161" d="M872 692q0 -23 -11 -45t-26.5 -42.5t-32 -33t-26.5 -12.5h-43q2 0 -2 -2t-10 -4l2 2q-16 -6 -32.5 -10t-43.5 -4q-12 0 -18 2q-16 -8 -29.5 -11.5t-21.5 -3.5h-15q-10 -14 -24 -14l-15 -4v-176q0 -6 -4 -15q4 -8 4 -15v-13v-27q8 -37 15.5 -48t29.5 -11q2 0 9 6q4 4 13 7 t13 3t5 1t5 1q33 6 68 12.5t51 14.5h33q8 4 16.5 8t18.5 8q2 -2 6 -2h12l123 64h25q2 0 15 4t17 8l31 14q20 10 35.5 -2t15.5 -35v-49q-4 -8 -13 -27.5t-15 -25.5q-4 -2 -13.5 -6t-13.5 -4h-6l-76 -37q-8 -6 -30.5 -20.5t-26.5 -16.5h-21q-20 -8 -54 -15t-67 -16l-73 -16h2 l-62 -14h-20q-12 0 -17 2q-6 -2 -14 -2h-14q-20 0 -31 14h-47q-18 0 -33.5 11t-26 27.5t-16.5 33t-6 28.5q0 8 1 17.5t1 15.5v8q-2 0 -4 8q-4 10 -8 20.5t-4 20.5v15q0 6 4 12q-10 18 2 37q-8 18 -9 40.5t-1 45.5q-2 10 -3 18.5t-1 14.5l-31 -13h2q-4 -4 -18.5 -11 t-14.5 -11q-10 -10 -23.5 -14.5t-23.5 2.5q-6 -10 -11 -22.5t-9 -35.5l-33 -176v-31l-13 -45v-51l-18 -63q-10 -41 -12 -81t-4 -81v-27q0 -16 -11.5 -27.5t-27.5 -11.5q-6 0 -21.5 12.5t-32 28t-28.5 29.5t-12 20v314q0 16 14 31v14q0 12 4 16q2 4 5 8.5t5 4.5v122 q0 16 11.5 26.5t25.5 12.5q-2 2 -3 8.5t-1 10.5h-2h-4q-2 2 -3 5t-3 7t-2 8v27q0 16 10 27.5t26 11.5q-20 4 -16 20q2 12 3 26.5t5 29.5v22l17 51l-2 -2l14 62l23 110q2 14 7 36t8 41.5t5 31.5t2 10q2 8 7 19.5t9 19.5q4 16 10.5 48t12.5 42l-4 -4l26 55q2 10 2.5 25.5 t0.5 36.5v45t-5 41q16 25 42 43t36 18q6 0 11.5 -2t9.5 -4l8 -4l8 -8q2 0 5 1t7 1l15 2q10 29 39 28q20 0 44.5 -23.5t41.5 -51.5h159l33 14q2 0 8.5 -1t12.5 -1q8 6 18 11t29 5h43l69 15q29 14 35 14h13l40 12h5l2 2l6 4q4 2 12 3.5t16 5.5q8 2 21 6q29 -10 49.5 -44 t20.5 -65q0 -16 -11.5 -27.5t-27.5 -11.5q-8 0 -36 -1t-42 -3v-2q-10 -10 -28.5 -20t-39.5 -10q-8 0 -17 1t-18 1l-24 -11q-10 -4 -20.5 -8t-20.5 -8t-21 -8q-4 -4 -13 -8.5t-13 -4.5h-17q-8 0 -20 9q-2 -2 -4 -2t-2 -2l-62 -19h-12l4 -2q-10 -4 -23.5 -8t-17.5 -4 q-6 0 -32.5 4t-47.5 8v-6q0 -18 -5 -26.5t-11 -16.5q6 -6 11 -18.5t5 -36.5v-52q12 -10 12.5 -28.5t-12.5 -28.5q2 -10 2 -19.5v-19.5v-30.5t-4 -24.5q8 -16 10.5 -30.5t6.5 -35.5v-22q0 -18 -21 -41l6 -17q29 10 67 17.5t48 7.5t23 -8l53 37h41h2q4 0 8 2l-2 -2 q12 6 29.5 12t40.5 6zM326 604q14 10 26 10h4l17 25q-2 6 -2 20q0 8 -1 14.5t3 14.5q-4 10 -3 20.5t1 24.5v8q0 25 1 42.5t7 29.5v109q-12 18 -2 39q-4 8 -4 12v112l-4 -18q-4 -8 -5.5 -14t-3.5 -11q-2 -6 -4 -8v-24l-18 -47v-7q0 -14 -6 -32v2q-4 -8 -4 -13l-2 -4v-39 q0 -20 -6.5 -31.5t-12.5 -17.5q0 -6 1 -15t1 -18l-14 -43v-32l-14 -41v-35l-13 -57q6 4 11.5 5t7.5 3l35 12l-5 -6q2 2 3.5 4t5.5 4l12 6z" />
<glyph unicode="&#xc7;" horiz-adv-x="823" d="M420 121q4 4 13.5 8t13.5 4q33 0 55.5 -13.5t22.5 -41.5v-148q10 2 14 3t6 1q6 -2 14 -4q6 -2 12.5 -5t10.5 -5h4q18 4 36.5 10t37.5 6q20 0 44.5 -4t49.5 -15t44 -28.5t28 -42.5v-98q0 -25 -21 -45v-4v4q-12 -14 -24.5 -17.5t-16.5 13.5q0 -23 -3 -34t-5 -17.5t-3 -10.5 t-1 -12q-35 -41 -89 -75t-108 -50h2l-94 -31h-29q-41 8 -59 19.5t-18 48.5q0 4 3 18.5t19 32.5l99 16q16 8 30.5 12.5t34.5 10.5q10 14 41 31v-2q16 12 32.5 23t24.5 20l27 26q8 16 21.5 42t15.5 32h-49l-2 -2l-52 -31q-4 0 -18 -1t-31.5 -2t-32 -1h-20.5q-8 0 -16 4 q-55 2 -69.5 27.5t-23.5 64.5l-4 25q0 2 -2 8t-4 15q-6 18 -12 47.5t-10 76.5v19q0 4 4 14t8 15zM-6 551q0 25 5 65.5t11 73.5q0 25 6 55v-2q4 20 6.5 40t2.5 32q0 8 2 24.5t7 36t11 39t14 33.5q4 16 14.5 22.5t22.5 10.5v8q0 35 33 39q-6 43 6 67.5t27.5 37t29 17.5t13.5 9 t6 14.5t15.5 21.5t18.5 21.5t15 14.5q10 0 14.5 -1t8.5 -1h4q2 10 5 19t10 15.5t20.5 10.5t35.5 4h9.5t11.5 -2q8 14 21.5 23.5t48.5 9.5t47 -10.5t16 -24.5q6 0 8 1l6 3l17 8q18 10 34.5 1t20.5 -30v-8q0 -4 1 -6t1 -6v-10q20 -8 28.5 -22.5t12.5 -33.5q16 -10 23.5 -20 t11.5 -21h2q16 -4 28.5 -16t12.5 -33v-14q4 -8 9 -19.5t5 -35.5q0 -53 -22.5 -68.5t-53.5 -15.5q-33 0 -42 15t-21 42q-8 14 -15.5 29.5t-23.5 38.5q-10 10 -22.5 25.5t-12.5 31.5v8q0 4 1 6t1 6q0 -2 -17.5 2.5t-29.5 8.5q-8 0 -16 -1t-19 -1h-11t-13 2q-47 -49 -99 -68 l-12 -22q-6 -16 -9 -21.5t-6 -4.5t-7 3t-11 0q-6 -4 -12 -11t-6 -36q0 -4 -4 -13.5t-8 -13.5l-11 -12q-14 -20 -33.5 -49t-19.5 -51q-16 -45 -25.5 -80t-13.5 -64.5t-6 -57.5t-2 -58q0 -35 4 -76t25 -78q6 -20 11 -36.5t7 -26.5q4 -14 3 -15.5t3 -11.5q16 -8 18.5 -22.5 t6.5 -32.5q0 -2 -2 -2l2 -2q25 -16 40 -41t23 -39q41 -25 85 -45.5t69 -20.5h29q35 0 57.5 1t44 6t46 17.5t63.5 35.5l22 16q16 14 31.5 24.5t40.5 10.5q16 0 26.5 -11.5t10.5 -27.5q0 -29 -6.5 -57.5t-19.5 -52t-33.5 -38t-47.5 -14.5h-22q-10 -4 -19 -10q-8 -4 -16 -9.5 t-12 -7.5q-4 0 -9.5 -1t-9.5 -1l-2 -4q-4 -4 -13 -8t-14 -4h-233q-4 2 -14.5 9t-14.5 11q-16 6 -42.5 16.5t-30.5 14.5l-27 27l-23 10l-49 27l-18 41q-8 16 -17.5 34.5t-27.5 36.5l-19 35l-18 35q0 16 -5 41.5t-14 58.5l3 -2q-12 43 -20.5 86t-8.5 72z" />
<glyph unicode="&#xc8;" horiz-adv-x="786" d="M473 1350q-23 12 -49.5 33.5t-40.5 39.5l4 -6q-20 20 -41.5 40t-44.5 40t-43 37.5t-43 40.5q-10 6 -26.5 17.5t-32 25.5t-25.5 28.5t-10 24.5q0 4 9 18.5t21.5 29t25.5 25.5t22 11q14 0 24 -8t21 -18l14 -13q-2 2 6 -3t19 -9l-2 2q16 -10 34.5 -21.5t20.5 -15.5 q6 -6 12 -15l12 -18l19 -28q0 6 -4 10h8q27 -20 57.5 -63.5t56 -87.5t42 -76.5t14.5 -34.5q-4 -4 -13.5 -8.5t-13.5 -4.5q-6 0 -24.5 1.5t-28.5 5.5zM532 608q0 -23 -12 -46t-27.5 -42.5t-33 -32t-25.5 -12.5h-41q-4 0 -8 -1t-10 -3h2q-14 -6 -30.5 -10t-41.5 -4 q-10 0 -14 2q-12 -10 -27.5 -12.5t-30.5 -2.5h-12q-10 -12 -22 -16l-17 -4v-176q0 -4 -4 -12q4 -16 4 -29v-25q4 -16 8.5 -40.5t4.5 -26.5q4 4 16 5t16 1h4l5 6q4 4 13 7t13 5t10 2q12 0 21 2h-2q10 2 21.5 2t21.5 2q10 0 22 3l11 2q-2 0 2 4q6 4 14 8t20 4h18.5t10.5 2 q4 4 14.5 8t16.5 4h18q12 0 19 -8q23 20 51.5 39.5t56.5 32.5q16 -4 23.5 -1t15.5 7q10 6 20.5 10t24.5 8q20 6 33.5 -5t13.5 -32q0 -29 -5 -56t-36 -58q-23 -2 -46 -13.5t-46 -23.5h2q-16 -10 -33.5 -20.5t-39.5 -14.5q-4 0 -41 -8t-83 -19.5t-88 -21.5t-55 -14 q-14 -4 -29.5 1t-33 10t-36.5 8t-44 -3q-20 0 -35.5 12.5t-26 28.5t-15.5 32.5t-5 26.5q0 8 1 15.5t1 15.5v14q0 2 -2 7.5t-4 13.5t-4 18l-2 13q0 14 2 20q-8 18 0 33q-8 35 -8 88q-2 16 -3 31.5t-6 29.5q2 -2 7 -2q-2 0 -3.5 1t-3.5 1q0 10 -4 15q0 -6 4 -15 q-12 10 -29.5 28.5t-17.5 64.5q0 16 11.5 27t27.5 11q4 0 8.5 6.5t8.5 10.5l6 10q0 4 -1 9t-1 9q0 20 4 31q-4 10 -5 21.5t-1 27.5q0 39 10 64l-2 26v93q-10 16 -2 39q0 2 -1 5t-1 5v117l-4 4q-23 16 -41.5 34.5t-18.5 40.5q0 29 17 45v5q0 4 -1 8t-1 8q0 33 14 43t35 18v11 q0 16 10 27.5t27 11.5q18 0 43.5 -24t42.5 -54h161q-6 0 2 4l33 12q2 0 7.5 -1t9.5 -1q6 6 17 11t30 5h43q12 0 37 7l26 6l-12 -8q8 4 33.5 14t53.5 19.5t50.5 16.5t26.5 7q33 -10 53.5 -42t20.5 -67q0 -16 -11.5 -27.5t-27.5 -11.5q-10 0 -37 -2t-41 -4q6 0 2 -2 q-12 -8 -30.5 -18t-39.5 -10q-8 0 -17 1t-16 1h-6q-23 -8 -51.5 -19.5t-32.5 -15.5q-16 -16 -29.5 -13t-33.5 13l2 -2q-2 0 -6 2l-35 -17h2q-18 -10 -38.5 -18t-37.5 -8q-6 0 -34.5 4t-47.5 8v-4q0 -18 -5 -28.5t-9 -14.5q4 -8 9 -20.5t5 -34.5v-52q12 -12 13.5 -29.5 t-13.5 -29.5q2 -8 2 -16.5v-18.5q0 -35 -6 -59q10 -16 16.5 -35.5t2.5 -42.5q-2 -6 -6.5 -21.5t-12.5 -31.5q2 -4 3 -7t1 -8q0 -18 -16 -30q8 6 17.5 15t6.5 9q2 0 7 2q8 4 14 9q16 6 24.5 10t22.5 8q8 2 21.5 3t17.5 1q8 0 16 -4q35 27 82 39t99 12z" />
<glyph unicode="&#xc9;" horiz-adv-x="786" d="M449 1706q14 0 27 -8t16 -25q-2 27 -13.5 31t-19.5 4q-4 0 -8 -2l16 12q23 16 47.5 30.5t58.5 14.5q16 0 27.5 -11t11.5 -28q0 -23 -6 -37t-14 -30q2 2 1 -1t-3 -7l-146 -146l-36 -26h2q-31 -23 -50.5 -37.5t-32 -25.5t-20.5 -21.5t-14 -24.5q-4 -8 -15.5 -15t-19.5 -7 h-12q-6 0 -12.5 1t-14.5 1q-35 0 -41 -5q-10 -12 -26.5 -12t-26.5 12q-10 10 -12 23.5t-2 17.5q0 37 17 45.5t38 18.5q10 10 10 -4l10 -10l15 63q6 4 27.5 15.5t31.5 19.5l35 37q16 16 34.5 33.5t22.5 21.5q2 2 18.5 7t28.5 9l15 35q6 27 35 31zM532 608q0 -23 -12 -46 t-27.5 -42.5t-33 -32t-25.5 -12.5h-41q-4 0 -8 -1t-10 -3h2q-14 -6 -30.5 -10t-41.5 -4q-10 0 -14 2q-12 -10 -27.5 -12.5t-30.5 -2.5h-12q-10 -12 -22 -16l-17 -4v-176q0 -4 -4 -12q4 -16 4 -29v-25q4 -16 8.5 -40.5t4.5 -26.5q4 4 16 5t16 1h4l5 6q4 4 13 7t13 5t10 2 q12 0 21 2h-2q10 2 21.5 2t21.5 2q10 0 22 3l11 2q-2 0 2 4q6 4 14 8t20 4h18.5t10.5 2q4 4 14.5 8t16.5 4h18q12 0 19 -8q23 20 51.5 39.5t56.5 32.5q16 -4 23.5 -1t15.5 7q10 6 20.5 10t24.5 8q20 6 33.5 -5t13.5 -32q0 -29 -5 -56t-36 -58q-23 -2 -46 -13.5t-46 -23.5h2 q-16 -10 -33.5 -20.5t-39.5 -14.5q-4 0 -41 -8t-83 -19.5t-88 -21.5t-55 -14q-14 -4 -29.5 1t-33 10t-36.5 8t-44 -3q-20 0 -35.5 12.5t-26 28.5t-15.5 32.5t-5 26.5q0 8 1 15.5t1 15.5v14q0 2 -2 7.5t-4 13.5t-4 18l-2 13q0 14 2 20q-8 18 0 33q-8 35 -8 88q-2 16 -3 31.5 t-6 29.5q2 -2 7 -2q-2 0 -3.5 1t-3.5 1q0 10 -4 15q0 -6 4 -15q-12 10 -29.5 28.5t-17.5 64.5q0 16 11.5 27t27.5 11q4 0 8.5 6.5t8.5 10.5l6 10q0 4 -1 9t-1 9q0 20 4 31q-4 10 -5 21.5t-1 27.5q0 39 10 64l-2 26v93q-10 16 -2 39q0 2 -1 5t-1 5v117l-4 4 q-23 16 -41.5 34.5t-18.5 40.5q0 29 17 45v5q0 4 -1 8t-1 8q0 33 14 43t35 18v11q0 16 10 27.5t27 11.5q18 0 43.5 -24t42.5 -54h161q-6 0 2 4l33 12q2 0 7.5 -1t9.5 -1q6 6 17 11t30 5h43q12 0 37 7l26 6l-12 -8q8 4 33.5 14t53.5 19.5t50.5 16.5t26.5 7q33 -10 53.5 -42 t20.5 -67q0 -16 -11.5 -27.5t-27.5 -11.5q-10 0 -37 -2t-41 -4q6 0 2 -2q-12 -8 -30.5 -18t-39.5 -10q-8 0 -17 1t-16 1h-6q-23 -8 -51.5 -19.5t-32.5 -15.5q-16 -16 -29.5 -13t-33.5 13l2 -2q-2 0 -6 2l-35 -17h2q-18 -10 -38.5 -18t-37.5 -8q-6 0 -34.5 4t-47.5 8v-4 q0 -18 -5 -28.5t-9 -14.5q4 -8 9 -20.5t5 -34.5v-52q12 -12 13.5 -29.5t-13.5 -29.5q2 -8 2 -16.5v-18.5q0 -35 -6 -59q10 -16 16.5 -35.5t2.5 -42.5q-2 -6 -6.5 -21.5t-12.5 -31.5q2 -4 3 -7t1 -8q0 -18 -16 -30q8 6 17.5 15t6.5 9q2 0 7 2q8 4 14 9q16 6 24.5 10t22.5 8 q8 2 21.5 3t17.5 1q8 0 16 -4q35 27 82 39t99 12z" />
<glyph unicode="&#xca;" horiz-adv-x="786" d="M178 1542h-6l2 2h6q10 25 24.5 45.5t37.5 26.5q2 0 3 1t5 1q4 6 8 11t8 11q6 4 13 21q0 2 2 2h2l10 18q2 4 8 13.5t10 11.5q14 4 19 8q10 10 24.5 18.5t34.5 8.5q2 0 7 -1t14 -1q45 -14 70.5 -27.5t37.5 -28t15.5 -31t7.5 -36.5l4 -12l22 -48q12 -23 24.5 -43t22.5 -24 l23 -45q10 -14 16 -27.5t6 -40.5q0 -16 -11 -26.5t-27 -10.5q-41 0 -65 5.5t-36 14.5t-17 23.5t-9 30.5q-2 10 -7.5 22.5t-19.5 26.5q-10 14 -20.5 32.5t-18.5 33.5l-31 47l-14 -16q-12 -14 -26.5 -33t-30.5 -35q-4 -4 -13.5 -8t-13.5 -4h-6q6 -2 4 -7.5t-6 -9.5 q-18 -27 -39 -45q-18 -33 -36.5 -50t-37 -26.5t-39 -11.5t-41.5 -2q-39 0 -39 39q0 31 12.5 52.5t30.5 43.5q23 23 41 60zM532 608q0 -23 -12 -46t-27.5 -42.5t-33 -32t-25.5 -12.5h-41q-4 0 -8 -1t-10 -3h2q-14 -6 -30.5 -10t-41.5 -4q-10 0 -14 2q-12 -10 -27.5 -12.5 t-30.5 -2.5h-12q-10 -12 -22 -16l-17 -4v-176q0 -4 -4 -12q4 -16 4 -29v-25q4 -16 8.5 -40.5t4.5 -26.5q4 4 16 5t16 1h4l5 6q4 4 13 7t13 5t10 2q12 0 21 2h-2q10 2 21.5 2t21.5 2q10 0 22 3l11 2q-2 0 2 4q6 4 14 8t20 4h18.5t10.5 2q4 4 14.5 8t16.5 4h18q12 0 19 -8 q23 20 51.5 39.5t56.5 32.5q16 -4 23.5 -1t15.5 7q10 6 20.5 10t24.5 8q20 6 33.5 -5t13.5 -32q0 -29 -5 -56t-36 -58q-23 -2 -46 -13.5t-46 -23.5h2q-16 -10 -33.5 -20.5t-39.5 -14.5q-4 0 -41 -8t-83 -19.5t-88 -21.5t-55 -14q-14 -4 -29.5 1t-33 10t-36.5 8t-44 -3 q-20 0 -35.5 12.5t-26 28.5t-15.5 32.5t-5 26.5q0 8 1 15.5t1 15.5v14q0 2 -2 7.5t-4 13.5t-4 18l-2 13q0 14 2 20q-8 18 0 33q-8 35 -8 88q-2 16 -3 31.5t-6 29.5q2 -2 7 -2q-2 0 -3.5 1t-3.5 1q0 10 -4 15q0 -6 4 -15q-12 10 -29.5 28.5t-17.5 64.5q0 16 11.5 27t27.5 11 q4 0 8.5 6.5t8.5 10.5l6 10q0 4 -1 9t-1 9q0 20 4 31q-4 10 -5 21.5t-1 27.5q0 39 10 64l-2 26v93q-10 16 -2 39q0 2 -1 5t-1 5v117l-4 4q-23 16 -41.5 34.5t-18.5 40.5q0 29 17 45v5q0 4 -1 8t-1 8q0 33 14 43t35 18v11q0 16 10 27.5t27 11.5q18 0 43.5 -24t42.5 -54h161 q-6 0 2 4l33 12q2 0 7.5 -1t9.5 -1q6 6 17 11t30 5h43q12 0 37 7l26 6l-12 -8q8 4 33.5 14t53.5 19.5t50.5 16.5t26.5 7q33 -10 53.5 -42t20.5 -67q0 -16 -11.5 -27.5t-27.5 -11.5q-10 0 -37 -2t-41 -4q6 0 2 -2q-12 -8 -30.5 -18t-39.5 -10q-8 0 -17 1t-16 1h-6 q-23 -8 -51.5 -19.5t-32.5 -15.5q-16 -16 -29.5 -13t-33.5 13l2 -2q-2 0 -6 2l-35 -17h2q-18 -10 -38.5 -18t-37.5 -8q-6 0 -34.5 4t-47.5 8v-4q0 -18 -5 -28.5t-9 -14.5q4 -8 9 -20.5t5 -34.5v-52q12 -12 13.5 -29.5t-13.5 -29.5q2 -8 2 -16.5v-18.5q0 -35 -6 -59 q10 -16 16.5 -35.5t2.5 -42.5q-2 -6 -6.5 -21.5t-12.5 -31.5q2 -4 3 -7t1 -8q0 -18 -16 -30q8 6 17.5 15t6.5 9q2 0 7 2q8 4 14 9q16 6 24.5 10t22.5 8q8 2 21.5 3t17.5 1q8 0 16 -4q35 27 82 39t99 12z" />
<glyph unicode="&#xcb;" horiz-adv-x="786" d="M236 1628q45 0 62 -30.5t14 -66.5t-24.5 -66.5t-56.5 -30.5q-16 0 -30 6h-8q-23 0 -35 18q-10 8 -18.5 17.5t-8.5 29.5q0 47 23 85t82 38zM381 1518q0 18 4 38.5t10 32.5q2 6 11.5 13.5t19.5 12.5t20.5 8t14.5 3q14 0 31.5 -12t34 -27.5t27.5 -30t11 -16.5 q0 -43 -11 -57.5t-28 -24.5l-16 -12q-4 -2 -11 -5t-14 -5h7q-16 -8 -27 -9q-25 0 -40 12.5t-25.5 28t-14.5 31t-4 19.5zM532 608q0 -23 -12 -46t-27.5 -42.5t-33 -32t-25.5 -12.5h-41q-4 0 -8 -1t-10 -3h2q-14 -6 -30.5 -10t-41.5 -4q-10 0 -14 2q-12 -10 -27.5 -12.5 t-30.5 -2.5h-12q-10 -12 -22 -16l-17 -4v-176q0 -4 -4 -12q4 -16 4 -29v-25q4 -16 8.5 -40.5t4.5 -26.5q4 4 16 5t16 1h4l5 6q4 4 13 7t13 5t10 2q12 0 21 2h-2q10 2 21.5 2t21.5 2q10 0 22 3l11 2q-2 0 2 4q6 4 14 8t20 4h18.5t10.5 2q4 4 14.5 8t16.5 4h18q12 0 19 -8 q23 20 51.5 39.5t56.5 32.5q16 -4 23.5 -1t15.5 7q10 6 20.5 10t24.5 8q20 6 33.5 -5t13.5 -32q0 -29 -5 -56t-36 -58q-23 -2 -46 -13.5t-46 -23.5h2q-16 -10 -33.5 -20.5t-39.5 -14.5q-4 0 -41 -8t-83 -19.5t-88 -21.5t-55 -14q-14 -4 -29.5 1t-33 10t-36.5 8t-44 -3 q-20 0 -35.5 12.5t-26 28.5t-15.5 32.5t-5 26.5q0 8 1 15.5t1 15.5v14q0 2 -2 7.5t-4 13.5t-4 18l-2 13q0 14 2 20q-8 18 0 33q-8 35 -8 88q-2 16 -3 31.5t-6 29.5q2 -2 7 -2q-2 0 -3.5 1t-3.5 1q0 10 -4 15q0 -6 4 -15q-12 10 -29.5 28.5t-17.5 64.5q0 16 11.5 27t27.5 11 q4 0 8.5 6.5t8.5 10.5l6 10q0 4 -1 9t-1 9q0 20 4 31q-4 10 -5 21.5t-1 27.5q0 39 10 64l-2 26v93q-10 16 -2 39q0 2 -1 5t-1 5v117l-4 4q-23 16 -41.5 34.5t-18.5 40.5q0 29 17 45v5q0 4 -1 8t-1 8q0 33 14 43t35 18v11q0 16 10 27.5t27 11.5q18 0 43.5 -24t42.5 -54h161 q-6 0 2 4l33 12q2 0 7.5 -1t9.5 -1q6 6 17 11t30 5h43q12 0 37 7l26 6l-12 -8q8 4 33.5 14t53.5 19.5t50.5 16.5t26.5 7q33 -10 53.5 -42t20.5 -67q0 -16 -11.5 -27.5t-27.5 -11.5q-10 0 -37 -2t-41 -4q6 0 2 -2q-12 -8 -30.5 -18t-39.5 -10q-8 0 -17 1t-16 1h-6 q-23 -8 -51.5 -19.5t-32.5 -15.5q-16 -16 -29.5 -13t-33.5 13l2 -2q-2 0 -6 2l-35 -17h2q-18 -10 -38.5 -18t-37.5 -8q-6 0 -34.5 4t-47.5 8v-4q0 -18 -5 -28.5t-9 -14.5q4 -8 9 -20.5t5 -34.5v-52q12 -12 13.5 -29.5t-13.5 -29.5q2 -8 2 -16.5v-18.5q0 -35 -6 -59 q10 -16 16.5 -35.5t2.5 -42.5q-2 -6 -6.5 -21.5t-12.5 -31.5q2 -4 3 -7t1 -8q0 -18 -16 -30q8 6 17.5 15t6.5 9q2 0 7 2q8 4 14 9q16 6 24.5 10t22.5 8q8 2 21.5 3t17.5 1q8 0 16 -4q35 27 82 39t99 12z" />
<glyph unicode="&#xcc;" horiz-adv-x="751" d="M459 1348q-20 8 -50 30.5t-44 44.5l2 -6q-20 20 -42 39t-44 37q-23 23 -46.5 43t-46.5 43q-10 6 -25.5 16.5t-29.5 22.5t-23.5 26.5t-9.5 26.5q0 4 9.5 18.5t21.5 29t25.5 25.5t19.5 11q16 0 34.5 -17.5t29.5 -27.5q2 2 22 -6l-2 2q16 -10 33.5 -21.5t21.5 -15.5 q6 -6 12.5 -15t12.5 -18l18 -28q0 6 -4 10h8q27 -20 58 -63.5t56.5 -87.5t42 -76.5t13.5 -34.5q-4 -4 -13 -8.5t-13 -4.5q-6 0 -24.5 1.5t-28.5 5.5zM-6 1139q0 16 4 34.5t14.5 34t30.5 25.5t55 10h103l10 12l37 17q31 10 45 -15q16 10 32.5 13.5t22.5 3.5h31q10 4 23.5 8 t23.5 6h14q4 0 9.5 -2t13.5 -4q4 -4 9 -4t9 -2l21 4h-2q8 4 17 6t15 2q10 0 20.5 1t20.5 1h33q72 0 101.5 -15t29.5 -34q0 -12 -31.5 -28.5t-72.5 -30t-81 -22.5t-58 -9h-9q2 0 -6 -4t-18 -8l2 2q-35 -20 -51 -21h-11l5 -53l16 -629q4 -4 7 -9t7 -7l15 -70v-28l-17 -41 q10 -16 20.5 -37t12.5 -31v-25l-14 -36h22l51 8q20 4 40 6t30 2h39l4 4q14 10 33 10h14q20 0 31.5 -14t17.5 -34.5t8 -43t2 -41.5q0 -16 -11 -26.5t-27 -10.5q-23 0 -43 17q-20 -14 -29 -15q-16 0 -24.5 5.5t-14.5 11.5h-10q-8 0 -28.5 -3t-44.5 -5t-42 -4.5t-25 -2.5h-47 q-35 -20 -63 -20q-25 0 -33 18l-18 -8l-19 -6q2 0 -2 -2q-18 -6 -56 -14.5t-85 -8.5h-68q-20 0 -30.5 14.5t-6.5 33.5l19 57l22 22q6 4 21.5 10.5t36 12.5t44 10t44.5 4l43 13h18l17 -4q2 -2 4 -3q2 0 4 -1t6 -1v320q-2 16 -5 35.5t-5 40.5v579h-13h-12q-14 -14 -31 -14 l-28 8q-20 -8 -29 -8q-6 0 -26.5 -1t-44 -2t-44 -2t-26.5 -1q-39 0 -39 39z" />
<glyph unicode="&#xcd;" horiz-adv-x="751" d="M451 1706q14 -2 26 -10t15 -23q-2 27 -12.5 31t-20.5 4q-2 0 -1 1t11 9q23 16 46.5 30.5t57.5 14.5q16 0 27.5 -11t11.5 -28q0 -23 -5 -37t-15 -30q2 2 1 -1t-3 -7l-146 -146l-36 -26h2q-31 -23 -50.5 -37.5t-32 -25.5t-20.5 -21.5t-14 -24.5q-4 -8 -14.5 -15t-20.5 -7 h-12q-4 0 -11.5 1t-15.5 1q-35 0 -41 -5q-10 -12 -25.5 -12t-27.5 12q-10 10 -12 23.5t-2 17.5q0 37 18 45.5t37 18.5q4 4 7 5t3 -9l10 -10l15 63q6 4 27.5 15.5t31.5 19.5l35 37q16 16 34.5 33.5t22.5 21.5q2 2 18.5 7t28.5 9l15 35q4 16 14 22.5t21 8.5h2zM-6 1139 q0 16 4 34.5t14.5 34t30.5 25.5t55 10h103l10 12l37 17q31 10 45 -15q16 10 32.5 13.5t22.5 3.5h31q10 4 23.5 8t23.5 6h14q4 0 9.5 -2t13.5 -4q4 -4 9 -4t9 -2l21 4h-2q8 4 17 6t15 2q10 0 20.5 1t20.5 1h33q72 0 101.5 -15t29.5 -34q0 -12 -31.5 -28.5t-72.5 -30 t-81 -22.5t-58 -9h-9q2 0 -6 -4t-18 -8l2 2q-35 -20 -51 -21h-11l5 -53l16 -629q4 -4 7 -9t7 -7l15 -70v-28l-17 -41q10 -16 20.5 -37t12.5 -31v-25l-14 -36h22l51 8q20 4 40 6t30 2h39l4 4q14 10 33 10h14q20 0 31.5 -14t17.5 -34.5t8 -43t2 -41.5q0 -16 -11 -26.5 t-27 -10.5q-23 0 -43 17q-20 -14 -29 -15q-16 0 -24.5 5.5t-14.5 11.5h-10q-8 0 -28.5 -3t-44.5 -5t-42 -4.5t-25 -2.5h-47q-35 -20 -63 -20q-25 0 -33 18l-18 -8l-19 -6q2 0 -2 -2q-18 -6 -56 -14.5t-85 -8.5h-68q-20 0 -30.5 14.5t-6.5 33.5l19 57l22 22q6 4 21.5 10.5 t36 12.5t44 10t44.5 4l43 13h18l17 -4q2 -2 4 -3q2 0 4 -1t6 -1v320q-2 16 -5 35.5t-5 40.5v579h-13h-12q-14 -14 -31 -14l-28 8q-20 -8 -29 -8q-6 0 -26.5 -1t-44 -2t-44 -2t-26.5 -1q-39 0 -39 39z" />
<glyph unicode="&#xce;" horiz-adv-x="751" d="M178 1542h-4v2h6q10 25 24.5 45.5t37.5 26.5q2 0 3 1t5 1q4 6 9 11t9 11q4 2 11 21q0 2 2 2h2l10 18q2 4 8 13.5t10 11.5q14 4 19 8q10 10 24.5 18.5t34.5 8.5q2 0 8 -1t13 -1q45 -14 70.5 -27.5t37.5 -28t16.5 -31t6.5 -36.5l4 -12l24 -48q10 -23 23.5 -43t21.5 -24 q6 -12 12.5 -24.5t12.5 -20.5q8 -14 14 -27.5t6 -40.5q0 -16 -11 -26.5t-27 -10.5q-41 0 -65 5.5t-36 14.5t-17 23.5t-9 30.5q-2 10 -7.5 22.5t-17.5 26.5q-10 14 -21.5 32.5t-19.5 33.5l-31 47l-14 -16q-10 -14 -25.5 -33t-31.5 -35q-4 -4 -13.5 -8t-13.5 -4h-6 q6 -2 4 -7.5t-6 -9.5q-18 -27 -39 -45q-18 -33 -35.5 -50t-37 -26.5t-40 -11.5t-41.5 -2q-39 0 -39 39q0 31 12.5 52.5t32.5 43.5q10 10 19.5 25.5t19.5 34.5zM-6 1139q0 16 4 34.5t14.5 34t30.5 25.5t55 10h103l10 12l37 17q31 10 45 -15q16 10 32.5 13.5t22.5 3.5h31 q10 4 23.5 8t23.5 6h14q4 0 9.5 -2t13.5 -4q4 -4 9 -4t9 -2l21 4h-2q8 4 17 6t15 2q10 0 20.5 1t20.5 1h33q72 0 101.5 -15t29.5 -34q0 -12 -31.5 -28.5t-72.5 -30t-81 -22.5t-58 -9h-9q2 0 -6 -4t-18 -8l2 2q-35 -20 -51 -21h-11l5 -53l16 -629q4 -4 7 -9t7 -7l15 -70v-28 l-17 -41q10 -16 20.5 -37t12.5 -31v-25l-14 -36h22l51 8q20 4 40 6t30 2h39l4 4q14 10 33 10h14q20 0 31.5 -14t17.5 -34.5t8 -43t2 -41.5q0 -16 -11 -26.5t-27 -10.5q-23 0 -43 17q-20 -14 -29 -15q-16 0 -24.5 5.5t-14.5 11.5h-10q-8 0 -28.5 -3t-44.5 -5t-42 -4.5 t-25 -2.5h-47q-35 -20 -63 -20q-25 0 -33 18l-18 -8l-19 -6q2 0 -2 -2q-18 -6 -56 -14.5t-85 -8.5h-68q-20 0 -30.5 14.5t-6.5 33.5l19 57l22 22q6 4 21.5 10.5t36 12.5t44 10t44.5 4l43 13h18l17 -4q2 -2 4 -3q2 0 4 -1t6 -1v320q-2 16 -5 35.5t-5 40.5v579h-13h-12 q-14 -14 -31 -14l-28 8q-20 -8 -29 -8q-6 0 -26.5 -1t-44 -2t-44 -2t-26.5 -1q-39 0 -39 39z" />
<glyph unicode="&#xcf;" horiz-adv-x="751" d="M217 1628q29 0 44 -7t21.5 -20.5t7.5 -31t1 -35.5q0 -47 -16.5 -73.5t-63.5 -26.5q-12 0 -31 6h-6q-27 0 -35 18q-10 8 -19 17.5t-9 29.5q0 47 23.5 85t82.5 38zM365 1518q0 18 2 37.5t8 33.5t31.5 25.5t35.5 11.5q14 0 32 -12t33 -27.5t26.5 -30t11.5 -16.5 q0 -43 -13.5 -57.5t-25.5 -24.5l-8 -8q-10 -10 -27 -14h2q-6 -4 -12 -6.5t-17 -2.5q-23 0 -38 12.5t-24 28t-13 31t-4 19.5zM-6 1139q0 16 4 34.5t14.5 34t30.5 25.5t55 10h103l10 12l37 17q31 10 45 -15q16 10 32.5 13.5t22.5 3.5h31q10 4 23.5 8t23.5 6h14q4 0 9.5 -2 t13.5 -4q4 -4 9 -4t9 -2l21 4h-2q8 4 17 6t15 2q10 0 20.5 1t20.5 1h33q72 0 101.5 -15t29.5 -34q0 -12 -31.5 -28.5t-72.5 -30t-81 -22.5t-58 -9h-9q2 0 -6 -4t-18 -8l2 2q-35 -20 -51 -21h-11l5 -53l16 -629q4 -4 7 -9t7 -7l15 -70v-28l-17 -41q10 -16 20.5 -37t12.5 -31 v-25l-14 -36h22l51 8q20 4 40 6t30 2h39l4 4q14 10 33 10h14q20 0 31.5 -14t17.5 -34.5t8 -43t2 -41.5q0 -16 -11 -26.5t-27 -10.5q-23 0 -43 17q-20 -14 -29 -15q-16 0 -24.5 5.5t-14.5 11.5h-10q-8 0 -28.5 -3t-44.5 -5t-42 -4.5t-25 -2.5h-47q-35 -20 -63 -20 q-25 0 -33 18l-18 -8l-19 -6q2 0 -2 -2q-18 -6 -56 -14.5t-85 -8.5h-68q-20 0 -30.5 14.5t-6.5 33.5l19 57l22 22q6 4 21.5 10.5t36 12.5t44 10t44.5 4l43 13h18l17 -4q2 -2 4 -3q2 0 4 -1t6 -1v320q-2 16 -5 35.5t-5 40.5v579h-13h-12q-14 -14 -31 -14l-28 8q-20 -8 -29 -8 q-6 0 -26.5 -1t-44 -2t-44 -2t-26.5 -1q-39 0 -39 39z" />
<glyph unicode="&#xd0;" horiz-adv-x="1136" d="M532 735q14 0 43 6l33 9q6 0 30 -6.5t49.5 -16.5t45 -23.5t19.5 -25.5q-29 -47 -54.5 -64.5t-48.5 -17.5q-10 0 -19 1t-20 1h-32q-2 0 -7 -2q-8 -4 -12 -4q-14 -4 -26.5 -7t-16.5 -3h-154v-2q0 -47 4.5 -71t8.5 -38q2 -10 4 -16t2 -29q-2 -4 -9 -21.5t-7 -21.5t1 -17.5 t15 -39.5q0 -47 -3 -62.5t-13 -25.5q4 -16 6 -32l4 -32q4 -18 5 -38.5t1 -29.5q0 -53 -4 -81.5t-12 -63.5q-4 -12 -14.5 -21.5t-24.5 -9.5q-43 0 -65.5 12.5t-34 33t-13.5 45t-2 47.5q0 18 1 39.5t1 37.5v19q0 27 -2 76t-5 101t-5 95t-4 56q0 6 -7 28q-6 27 -6 51v11 q-20 0 -56 1t-67.5 2t-52 2t-8.5 3q-4 2 -4 12t-2 19.5t-6 12.5t-15 -9l-2 53q0 16 11.5 26.5t27.5 10.5h77t75 2q-2 20 -10 47v197v50t-2.5 34.5t-4.5 28.5t-8 32q0 23 -2 52.5t-14 64.5q0 2 -1 9t-1 13q0 16 11 27.5t28 11.5h47q20 0 30.5 -10t14.5 -27.5t5 -39t3 -44.5 q4 -47 10 -86l4 13q4 37 18.5 56t27 30.5t19.5 17.5t-5 18q2 6 10 15q33 37 56.5 61.5t50 41t59.5 23.5t82 7q10 0 34.5 -7t50 -15.5t46 -15.5t24.5 -9q-2 0 15.5 -10.5t45.5 -34t61.5 -62.5t68.5 -94q0 -2 -1 -10t-1 -12q2 4 9 -2.5t13 -10.5q6 -12 16.5 -29.5l21 -35 t19.5 -31.5t13 -20q0 -8 -4 -14.5t-8 -16.5q10 -16 18 -33.5t8 -24.5v-59q12 -12 13.5 -30.5t-11.5 -32.5l13 -37q2 -8 4 -25.5t4 -38t4 -40t2 -29.5v-9q0 -10 -6 -33.5t-14 -45.5q-4 -10 -6.5 -19.5t-2.5 -13.5v-33q0 -6 -5 -24.5t-17 -34.5q-6 -12 -25 -17q12 0 8 -4 q-4 -16 -9 -33.5t-21 -38.5l-4 -6q-12 -16 -28.5 -39.5t-34 -47t-35 -41t-29.5 -23.5l-41 -19q-6 -4 -4 2q-18 -18 -41 -33.5t-46.5 -25.5t-43 -16.5t-31.5 -6.5q-23 0 -35 6.5t-16 12.5h-33l-31 8h2q-23 4 -45 9t-41 26q-12 10 -12 25.5t12 27.5l17 17q8 8 22 10t25 -6 q-4 2 7 2h23q41 0 58.5 5t42.5 17q20 8 49 21.5t82 29.5q14 14 37.5 43t47 68t43 88t30.5 104q0 23 -3.5 71t-11.5 97v58q0 4 -4 12q-6 8 -9 19.5t-3 21.5v41v12t-4 10q-2 4 -6.5 13.5t-4.5 13.5q0 10 -3 20.5l-7 24.5q-12 29 -18 66q0 2 1 2t1 -2q-10 10 -15.5 19t-5.5 24 q-23 25 -48 51.5t-52 48t-50.5 36.5t-37.5 19q-37 16 -54.5 21.5t-33.5 7.5q-23 -18 -53.5 -50t-44.5 -48l-7 -15v2q-8 -18 -19 -42.5t-21.5 -47t-17.5 -39t-7 -20.5v-12q0 -2 2 -2q8 -10 12 -18.5t4 -22.5q0 -4 -1 -6.5t-1 -6.5q-2 -4 -2 -6q-6 -23 -31 -26q10 -2 8.5 -5.5 t-3.5 -7.5q-4 -10 -3 -11t-6 -1l17 -23q8 -16 5 -31.5t-18 -21.5q2 -8 6.5 -19t8.5 -24q31 2 59.5 6t59.5 9q8 2 18 -2.5t14 -8.5l4 -4v0z" />
<glyph unicode="&#xd1;" horiz-adv-x="1073" d="M-6 94q0 4 -1 15.5t-1 21.5v25q0 29 2 47t6 39q4 16 6 31.5t2 31.5v94q0 6 3 28t5 46.5t4.5 46t2.5 27.5l2 -8q-2 6 -2 14v22l4 25l-4 37v342l-4.5 9t-2.5 9q-4 10 -6 22.5t-2 22.5q0 4 3 13.5t7 13.5q6 6 13.5 15.5t13.5 19.5q16 23 32.5 38t57.5 15q37 0 55.5 -7 t28.5 -38q14 -4 23.5 -6t9.5 -37v-4q10 -14 17 -22.5t14 -18.5l32 -45q2 0 14.5 -14.5t12.5 -32.5q0 -4 -1 -8t-1 -9q2 4 9 -3t16 -13l16 -16q12 -29 22.5 -42.5t20.5 -23.5q14 -16 24.5 -29.5t20.5 -35.5q16 -4 26.5 -15.5t10.5 -27.5l2 -17q-2 0 -3 -1t-3 -1q10 -2 20 -9 t15 -17q4 -12 12 -20.5t18 -16.5l22.5 -22.5t20.5 -29.5l15 -30l-2 2q4 -8 8 -15.5t6 -9.5q18 -43 56 -91t63 -75q29 -6 41 -24q2 18 12 35l-2 -2q4 14 9 32.5t5 59.5q0 12 -1 23.5t-1 21.5v18q4 10 7 19.5t8 13.5v-2q14 20 14 41q-2 2 -2 6q-2 4 -2 14q-10 31 0 64q0 2 2 3 t2 3v43q0 14 3 24.5t7 22.5q2 6 4 11t2 10v59q6 31 9.5 76t6.5 98t4 110.5t1 110.5q0 16 11 27.5t28 11.5q23 0 43 -9t35.5 -31.5t23.5 -61.5t8 -99q0 -6 -1 -17t-1 -19q0 -4 -4 -13q-2 -4 -2 -8l-10 -16v-11q0 -16 1 -34.5t1 -36.5q0 -20 -1 -39t-1 -35v-25q0 -18 -10 -59 q-6 -23 -12.5 -46.5t-6.5 -45.5v-72v-6q0 -2 -4 -14l2 4q-4 -14 -8 -41t-4 -37v-57q0 -25 -17 -39q0 -6 1 -15.5t1 -15.5l-24 -72l-23 -67v-12q0 -2 -11 -12.5t-25.5 -23t-31 -21.5t-24.5 -9q-53 0 -66.5 -3t-7.5 -9l-14 12q-10 6 -14 18q-4 2 -9.5 4.5t-11.5 10.5 q-23 25 -47 57.5t-37 58.5l4 -4q-10 18 -19 27.5t-19 19.5q-20 23 -41 48.5t-43 72.5q-27 49 -56.5 86t-58.5 66q-37 37 -66.5 69.5t-44.5 79.5q-8 10 -21.5 30t-27.5 34l-41 55q-2 0 -2 2v-180q0 -16 -10 -26.5t-23 -12.5h17q0 -12 1 -26.5t1 -24.5v-21q-4 -20 -7 -43.5 t-4 -44t-2.5 -36t-1.5 -17.5v-139q0 -12 1.5 -29.5t1.5 -31t-3.5 -21.5t-11.5 -2q6 -14 6 -24.5t-2 -20.5t-5 -22.5t-3 -30.5q0 -6 -1 -20.5t-2 -32t-1 -32v-20.5q0 -39 -39 -39q-6 0 -17.5 7.5t-23.5 16.5t-23.5 19t-17.5 17zM453 1448q-2 0 -2 1t-2 1q-20 10 -8 39 q-25 8 -23 20.5t-2 16.5q-8 8 -8 16q-2 4 -4 6t-2 6q-6 2 -8 9h-13l-4 -2l4 4q-8 -6 -15 -13.5t-7 -9.5q-16 -33 -25.5 -57.5t-9.5 -30.5q0 -25 -22 -35v-6q0 -23 -16.5 -33t-37.5 -2l-45 21l-22 35q0 -12 -2 -6l-4 12q-4 8 -7.5 20.5t-3.5 16.5q0 6 10.5 27.5t18.5 33.5 q0 12 7 22.5t22 14.5q8 18 22 37l2 2l2 2q0 6 8.5 23.5t8.5 25.5q4 0 12 8q4 4 8 10l43 19q4 2 7 0t5 -14q2 12 14.5 22t28.5 6l48 -6l-7 -14h5q25 -4 38 -18.5t23 -30.5q6 2 14 0q18 -10 27 -31q0 -2 4 -6q4 -8 14.5 -20.5t24.5 -26.5q4 -4 7 -11.5t7 -11.5l2 -2q2 -4 9 -4 l16 2v-7t2 -7t6 3t8 27q-6 -4 -4 -1t4 8q8 12 23 20h-2q4 6 12 14.5t18 12.5q-20 0 -19 1l3 3v-2q10 27 23.5 56.5t54.5 29.5q29 0 40 -16.5t13 -39.5q29 -8 29 -36q0 -20 -11.5 -38t-21.5 -36l-17.5 -24.5t-7.5 -14.5q0 -16 -10 -27.5t-26 -11.5q-12 -12 -29 -8 q-16 -23 -34.5 -41.5t-26.5 -18.5q-4 0 -12.5 3.5t-12.5 7.5q6 -8 1 -11.5t-11 -5.5q-20 -10 -39 -10q-12 0 -18.5 5t-10.5 9t-6 6.5t-6 -6.5l10 -4q-6 0 -10 4q-55 29 -37 43q-10 8 -18.5 13.5t-18.5 11.5z" />
<glyph unicode="&#xd2;" horiz-adv-x="1247" d="M745 1346q-23 6 -53 27.5t-47 43.5q-6 6 -17.5 16.5t-25.5 21.5t-25.5 20.5t-17.5 13.5q-4 4 -15.5 16.5t-24.5 25.5t-24.5 25.5t-17.5 18.5q-10 4 -25.5 14t-32 23.5t-27.5 29t-11 29.5q0 6 9 20.5t21.5 28t26 24.5t19.5 11q16 0 26.5 -9t22.5 -20l8 -10l76 -41 q16 -16 20 -23t8 -16l21 -28q0 6 -4 10h8q16 -12 47 -52t60.5 -83t50 -78t16.5 -41q-4 -8 -14 -14.5t-19 -6.5q-4 0 -16.5 0.5t-22.5 2.5zM31 786l8 11q-8 -4 -8 -9v21q0 2 9 15.5t22.5 34t27.5 47t25 57.5q4 10 13 16t9 10q0 33 35 39q-10 0 -2 14q10 14 14 27.5t35 15.5 q10 10 23.5 17.5t27.5 9.5q8 18 22.5 33.5t31.5 32.5l14 10l6 10l23 35q4 8 14 13t18 5q-2 0 14.5 8.5t41.5 18.5q27 12 55.5 26.5t57 25.5t53 19.5t43.5 8.5q4 0 19 -2t35.5 -7.5t41 -12.5t37.5 -17q20 -12 17 -34.5t-19 -33.5q16 -2 26 -16t6 -31q2 -4 10.5 -4h10.5 q16 0 27.5 -11t11.5 -28q10 -4 18 -12q8 -6 17.5 -13.5t19.5 -13.5l37 -26q18 -8 30.5 -14.5t22.5 -16.5q8 6 19.5 -4t23.5 -31.5t25.5 -50.5t29.5 -57l41 -80q2 -12 3.5 -40t2.5 -62.5t1 -73.5v-72l-25 -19q-6 -29 -18.5 -58.5t-24.5 -55.5l2 2l-12 -31q-4 -6 -24.5 -25.5 t-37.5 -35.5l-6 -6q-8 -12 -15 -25.5t-18 -24.5q-16 -18 -31.5 -39.5t-19.5 -3.5q-14 -41 -47 -72.5t-63 -60.5q-27 0 -35 4q4 -4 5 -8t-9 -12l-27 -21q-4 -4 -15.5 -11t-34 -18.5t-57 -27.5t-85.5 -37q-10 -4 -23.5 -2t-21.5 12q-4 0 -21 -4q-27 -10 -37 -10l-12 4 q-12 4 -19 10q-127 4 -191.5 33t-104.5 70l26 -10l-24 25q-23 24 -49.5 53.5t-50 55t-23.5 29.5l4 -4q-8 10 -12.5 27.5t-8.5 34.5q-8 20 -13 41.5t-5 25.5v13q0 16 1 42.5t1 41.5q-10 20 -12 46.5t-2 45.5q0 10 1 17t1 11l34 156zM123 506q0 -16 4 -38t9 -42t11.5 -36.5 t10.5 -20.5q12 -12 16 -24.5t8 -29.5q4 -10 8.5 -22t6.5 -17q0 6 4 3l20 -33l10 -8q18 -16 45 -34t37 -18q4 0 13.5 -3t13.5 -7q10 -10 41 -16q16 -4 26.5 -7t22.5 -8l84 9q53 12 93 23t72 26.5t57.5 39t51.5 60.5q4 6 14.5 11t16.5 5q10 0 25 9l26 24q10 12 20.5 22.5 t22.5 16.5q12 23 32 59.5t32 63.5v6q0 23 9 36t24 26q2 16 8 26t14 27q10 14 16.5 30.5t6.5 28.5q0 20 -5.5 63.5t-17.5 71.5q-20 20 -48 52t-52 63l-10 12q-27 10 -43.5 24.5t-36.5 37.5h2l-47 45q-12 12 -33 24.5t-41.5 21.5t-34.5 15t-16 6q-4 0 -10.5 -1t-8.5 -3 q-4 -4 -13 -8t-13 -4h-21q2 -2 -8 -8l-12 -8q-29 0 -42.5 8t-23.5 18q-2 0 -4 2q-2 -2 -6 -2l-57 -18l-9 -16l-9 -13.5t-16 -16.5t-30.5 -21.5t-52.5 -28.5h-4q-2 -8 -15 -25q-2 -25 -19 -45t-40 -37l-31 -26q-4 -35 -18 -70t-31 -64v2q-10 -16 -17 -32.5t-7 -14.5 q0 -16 -3.5 -32.5t-7.5 -38.5q-8 -35 -14 -69t-6 -52z" />
<glyph unicode="&#xd3;" horiz-adv-x="1247" d="M416 1497q8 4 29.5 15.5t31.5 19.5l35 37q16 16 34.5 33.5t22.5 21.5q2 2 18.5 7t26.5 9l17 35q6 27 35 31q14 0 27.5 -8t15.5 -25q-2 27 -13.5 31t-19.5 4q-4 0 -8 -2l16 12q23 16 47.5 30.5t59.5 14.5q16 0 27 -11t11 -28q0 -23 -6 -37t-14 -30q2 2 1 -1t-3 -7 l-145 -146l-37 -26h2q-31 -23 -50.5 -37.5t-32 -25.5t-20.5 -21.5t-14 -24.5q-4 -8 -15.5 -15t-19.5 -7h-12q-6 0 -12.5 1t-14.5 1q-35 0 -41 -5q-10 -12 -26.5 -12t-26.5 12q-10 10 -12 23.5t-2 17.5q0 37 17 45.5t36 18.5q4 4 8 5t4 -9l10 -10zM31 786l8 11q-8 -4 -8 -9 v21q0 2 9 15.5t22.5 34t27.5 47t25 57.5q4 10 13 16t9 10q0 33 35 39q-10 0 -2 14q10 14 14 27.5t35 15.5q10 10 23.5 17.5t27.5 9.5q8 18 22.5 33.5t31.5 32.5l14 10l6 10l23 35q4 8 14 13t18 5q-2 0 14.5 8.5t41.5 18.5q27 12 55.5 26.5t57 25.5t53 19.5t43.5 8.5 q4 0 19 -2t35.5 -7.5t41 -12.5t37.5 -17q20 -12 17 -34.5t-19 -33.5q16 -2 26 -16t6 -31q2 -4 10.5 -4h10.5q16 0 27.5 -11t11.5 -28q10 -4 18 -12q8 -6 17.5 -13.5t19.5 -13.5l37 -26q18 -8 30.5 -14.5t22.5 -16.5q8 6 19.5 -4t23.5 -31.5t25.5 -50.5t29.5 -57l41 -80 q2 -12 3.5 -40t2.5 -62.5t1 -73.5v-72l-25 -19q-6 -29 -18.5 -58.5t-24.5 -55.5l2 2l-12 -31q-4 -6 -24.5 -25.5t-37.5 -35.5l-6 -6q-8 -12 -15 -25.5t-18 -24.5q-16 -18 -31.5 -39.5t-19.5 -3.5q-14 -41 -47 -72.5t-63 -60.5q-27 0 -35 4q4 -4 5 -8t-9 -12l-27 -21 q-4 -4 -15.5 -11t-34 -18.5t-57 -27.5t-85.5 -37q-10 -4 -23.5 -2t-21.5 12q-4 0 -21 -4q-27 -10 -37 -10l-12 4q-12 4 -19 10q-127 4 -191.5 33t-104.5 70l26 -10l-24 25q-23 24 -49.5 53.5t-50 55t-23.5 29.5l4 -4q-8 10 -12.5 27.5t-8.5 34.5q-8 20 -13 41.5t-5 25.5v13 q0 16 1 42.5t1 41.5q-10 20 -12 46.5t-2 45.5q0 10 1 17t1 11l34 156zM123 506q0 -16 4 -38t9 -42t11.5 -36.5t10.5 -20.5q12 -12 16 -24.5t8 -29.5q4 -10 8.5 -22t6.5 -17q0 6 4 3l20 -33l10 -8q18 -16 45 -34t37 -18q4 0 13.5 -3t13.5 -7q10 -10 41 -16q16 -4 26.5 -7 t22.5 -8l84 9q53 12 93 23t72 26.5t57.5 39t51.5 60.5q4 6 14.5 11t16.5 5q10 0 25 9l26 24q10 12 20.5 22.5t22.5 16.5q12 23 32 59.5t32 63.5v6q0 23 9 36t24 26q2 16 8 26t14 27q10 14 16.5 30.5t6.5 28.5q0 20 -5.5 63.5t-17.5 71.5q-20 20 -48 52t-52 63l-10 12 q-27 10 -43.5 24.5t-36.5 37.5h2l-47 45q-12 12 -33 24.5t-41.5 21.5t-34.5 15t-16 6q-4 0 -10.5 -1t-8.5 -3q-4 -4 -13 -8t-13 -4h-21q2 -2 -8 -8l-12 -8q-29 0 -42.5 8t-23.5 18q-2 0 -4 2q-2 -2 -6 -2l-57 -18l-9 -16l-9 -13.5t-16 -16.5t-30.5 -21.5t-52.5 -28.5h-4 q-2 -8 -15 -25q-2 -25 -19 -45t-40 -37l-31 -26q-4 -35 -18 -70t-31 -64v2q-10 -16 -17 -32.5t-7 -14.5q0 -16 -3.5 -32.5t-7.5 -38.5q-8 -35 -14 -69t-6 -52z" />
<glyph unicode="&#xd4;" horiz-adv-x="1247" d="M414 1542h-4l2 2h4q10 25 25.5 45.5t37.5 26.5h2q8 18 27 37q4 8 10 15t10 18q4 6 10.5 13t10.5 9q6 0 12 3t10 7q10 8 22.5 15.5t31.5 7.5q8 0 28.5 -8.5t42 -18.5t41 -19t25.5 -14l8 -28q4 -12 5 -23.5t3 -21.5q0 -4 1 -9.5t1 -9.5q10 -10 19.5 -23.5t17.5 -29.5 l33 -55l12 -13q12 -20 22.5 -42.5t10.5 -49.5q0 -16 -11.5 -26.5t-27.5 -10.5q-41 0 -64.5 7.5t-38 19.5t-21.5 28.5t-13 32.5q-4 10 -8 20.5t-15 22.5l-34 54q-10 12 -16.5 23.5t-14.5 23.5q-10 -14 -20.5 -25.5t-20.5 -21.5l-29 -33q-4 -4 -13 -8t-13 -4h-9q4 -2 -4 -17 q-6 -12 -15 -23.5t-20 -21.5q-18 -35 -36.5 -52t-37 -26.5t-39 -10.5t-42.5 -1q-16 0 -27.5 11.5t-11.5 27.5q0 29 11 47.5t30 40.5q10 14 22.5 29.5t24.5 38.5zM31 786l8 11q-8 -4 -8 -9v21q0 2 9 15.5t22.5 34t27.5 47t25 57.5q4 10 13 16t9 10q0 33 35 39q-10 0 -2 14 q10 14 14 27.5t35 15.5q10 10 23.5 17.5t27.5 9.5q8 18 22.5 33.5t31.5 32.5l14 10l6 10l23 35q4 8 14 13t18 5q-2 0 14.5 8.5t41.5 18.5q27 12 55.5 26.5t57 25.5t53 19.5t43.5 8.5q4 0 19 -2t35.5 -7.5t41 -12.5t37.5 -17q20 -12 17 -34.5t-19 -33.5q16 -2 26 -16t6 -31 q2 -4 10.5 -4h10.5q16 0 27.5 -11t11.5 -28q10 -4 18 -12q8 -6 17.5 -13.5t19.5 -13.5l37 -26q18 -8 30.5 -14.5t22.5 -16.5q8 6 19.5 -4t23.5 -31.5t25.5 -50.5t29.5 -57l41 -80q2 -12 3.5 -40t2.5 -62.5t1 -73.5v-72l-25 -19q-6 -29 -18.5 -58.5t-24.5 -55.5l2 2l-12 -31 q-4 -6 -24.5 -25.5t-37.5 -35.5l-6 -6q-8 -12 -15 -25.5t-18 -24.5q-16 -18 -31.5 -39.5t-19.5 -3.5q-14 -41 -47 -72.5t-63 -60.5q-27 0 -35 4q4 -4 5 -8t-9 -12l-27 -21q-4 -4 -15.5 -11t-34 -18.5t-57 -27.5t-85.5 -37q-10 -4 -23.5 -2t-21.5 12q-4 0 -21 -4 q-27 -10 -37 -10l-12 4q-12 4 -19 10q-127 4 -191.5 33t-104.5 70l26 -10l-24 25q-23 24 -49.5 53.5t-50 55t-23.5 29.5l4 -4q-8 10 -12.5 27.5t-8.5 34.5q-8 20 -13 41.5t-5 25.5v13q0 16 1 42.5t1 41.5q-10 20 -12 46.5t-2 45.5q0 10 1 17t1 11l34 156zM123 506 q0 -16 4 -38t9 -42t11.5 -36.5t10.5 -20.5q12 -12 16 -24.5t8 -29.5q4 -10 8.5 -22t6.5 -17q0 6 4 3l20 -33l10 -8q18 -16 45 -34t37 -18q4 0 13.5 -3t13.5 -7q10 -10 41 -16q16 -4 26.5 -7t22.5 -8l84 9q53 12 93 23t72 26.5t57.5 39t51.5 60.5q4 6 14.5 11t16.5 5 q10 0 25 9l26 24q10 12 20.5 22.5t22.5 16.5q12 23 32 59.5t32 63.5v6q0 23 9 36t24 26q2 16 8 26t14 27q10 14 16.5 30.5t6.5 28.5q0 20 -5.5 63.5t-17.5 71.5q-20 20 -48 52t-52 63l-10 12q-27 10 -43.5 24.5t-36.5 37.5h2l-47 45q-12 12 -33 24.5t-41.5 21.5t-34.5 15 t-16 6q-4 0 -10.5 -1t-8.5 -3q-4 -4 -13 -8t-13 -4h-21q2 -2 -8 -8l-12 -8q-29 0 -42.5 8t-23.5 18q-2 0 -4 2q-2 -2 -6 -2l-57 -18l-9 -16l-9 -13.5t-16 -16.5t-30.5 -21.5t-52.5 -28.5h-4q-2 -8 -15 -25q-2 -25 -19 -45t-40 -37l-31 -26q-4 -35 -18 -70t-31 -64v2 q-10 -16 -17 -32.5t-7 -14.5q0 -16 -3.5 -32.5t-7.5 -38.5q-8 -35 -14 -69t-6 -52z" />
<glyph unicode="&#xd5;" horiz-adv-x="1247" d="M31 786l8 11q-8 -4 -8 -9v21q0 2 9 15.5t22.5 34t27.5 47t25 57.5q4 10 13 16t9 10q0 33 35 39q-10 0 -2 14q10 14 14 27.5t35 15.5q10 10 23.5 17.5t27.5 9.5q8 18 22.5 33.5t31.5 32.5l14 10l6 10l23 35q4 8 14 13t18 5q-2 0 14.5 8.5t41.5 18.5q27 12 55.5 26.5 t57 25.5t53 19.5t43.5 8.5q4 0 19 -2t35.5 -7.5t41 -12.5t37.5 -17q20 -12 17 -34.5t-19 -33.5q16 -2 26 -16t6 -31q2 -4 10.5 -4h10.5q16 0 27.5 -11t11.5 -28q10 -4 18 -12q8 -6 17.5 -13.5t19.5 -13.5l37 -26q18 -8 30.5 -14.5t22.5 -16.5q8 6 19.5 -4t23.5 -31.5 t25.5 -50.5t29.5 -57l41 -80q2 -12 3.5 -40t2.5 -62.5t1 -73.5v-72l-25 -19q-6 -29 -18.5 -58.5t-24.5 -55.5l2 2l-12 -31q-4 -6 -24.5 -25.5t-37.5 -35.5l-6 -6q-8 -12 -15 -25.5t-18 -24.5q-16 -18 -31.5 -39.5t-19.5 -3.5q-14 -41 -47 -72.5t-63 -60.5q-27 0 -35 4 q4 -4 5 -8t-9 -12l-27 -21q-4 -4 -15.5 -11t-34 -18.5t-57 -27.5t-85.5 -37q-10 -4 -23.5 -2t-21.5 12q-4 0 -21 -4q-27 -10 -37 -10l-12 4q-12 4 -19 10q-127 4 -191.5 33t-104.5 70l26 -10l-24 25q-23 24 -49.5 53.5t-50 55t-23.5 29.5l4 -4q-8 10 -12.5 27.5t-8.5 34.5 q-8 20 -13 41.5t-5 25.5v13q0 16 1 42.5t1 41.5q-10 20 -12 46.5t-2 45.5q0 10 1 17t1 11l34 156zM123 506q0 -16 4 -38t9 -42t11.5 -36.5t10.5 -20.5q12 -12 16 -24.5t8 -29.5q4 -10 8.5 -22t6.5 -17q0 6 4 3l20 -33l10 -8q18 -16 45 -34t37 -18q4 0 13.5 -3t13.5 -7 q10 -10 41 -16q16 -4 26.5 -7t22.5 -8l84 9q53 12 93 23t72 26.5t57.5 39t51.5 60.5q4 6 14.5 11t16.5 5q10 0 25 9l26 24q10 12 20.5 22.5t22.5 16.5q12 23 32 59.5t32 63.5v6q0 23 9 36t24 26q2 16 8 26t14 27q10 14 16.5 30.5t6.5 28.5q0 20 -5.5 63.5t-17.5 71.5 q-20 20 -48 52t-52 63l-10 12q-27 10 -43.5 24.5t-36.5 37.5h2l-47 45q-12 12 -33 24.5t-41.5 21.5t-34.5 15t-16 6q-4 0 -10.5 -1t-8.5 -3q-4 -4 -13 -8t-13 -4h-21q2 -2 -8 -8l-12 -8q-29 0 -42.5 8t-23.5 18q-2 0 -4 2q-2 -2 -6 -2l-57 -18l-9 -16l-9 -13.5t-16 -16.5 t-30.5 -21.5t-52.5 -28.5h-4q-2 -8 -15 -25q-2 -25 -19 -45t-40 -37l-31 -26q-4 -35 -18 -70t-31 -64v2q-10 -16 -17 -32.5t-7 -14.5q0 -16 -3.5 -32.5t-7.5 -38.5q-8 -35 -14 -69t-6 -52zM547 1448q-2 0 -2 1t-2 1q-20 10 -8 39q-25 8 -23 20.5t-2 16.5q-8 8 -8 16 q-2 4 -4 6t-2 6q-6 2 -8 9h-13l-4 -2l4 4q-8 -6 -15 -13.5t-7 -9.5q-16 -33 -25.5 -57.5t-9.5 -30.5q0 -25 -22 -35v-6q0 -23 -16.5 -33t-37.5 -2l-45 21l-22 35q0 -12 -2 -6l-4 12q-4 8 -7.5 20.5t-3.5 16.5q0 6 10.5 27.5t18.5 33.5q0 12 7 22.5t22 14.5q8 18 22 37l2 2 l2 2q0 6 8.5 23.5t8.5 25.5q4 0 12 8q4 4 8 10l43 19q4 2 7 0t5 -14q2 12 14.5 22t28.5 6l48 -6l-7 -14h5q25 -4 38 -18.5t23 -30.5q6 2 14 0q18 -10 27 -31q0 -2 4 -6q4 -8 14.5 -20.5t24.5 -26.5q4 -4 7 -11.5t7 -11.5l2 -2q2 -4 9 -4l16 2v-7t2 -7t6 3t8 27q-6 -4 -4 -1 t4 8q8 12 23 20h-2q4 6 12 14.5t18 12.5q-20 0 -19 1l3 3v-2q10 27 23.5 56.5t54.5 29.5q29 0 40 -16.5t13 -39.5q29 -8 29 -36q0 -20 -11.5 -38t-21.5 -36l-17.5 -24.5t-7.5 -14.5q0 -16 -10 -27.5t-26 -11.5q-12 -12 -29 -8q-16 -23 -34.5 -41.5t-26.5 -18.5 q-4 0 -12.5 3.5t-12.5 7.5q6 -8 1 -11.5t-11 -5.5q-20 -10 -39 -10q-12 0 -18.5 5t-10.5 9t-6 6.5t-6 -6.5l10 -4q-6 0 -10 4q-55 29 -37 43q-10 8 -18.5 13.5t-18.5 11.5z" />
<glyph unicode="&#xd6;" horiz-adv-x="1247" d="M475 1628q29 0 43 -7t20.5 -20.5t7.5 -31t1 -35.5q0 -47 -16.5 -73.5t-61.5 -26.5q-16 0 -31 6h-8q-23 0 -35 18q-10 8 -18 17.5t-8 29.5q0 47 23.5 85t82.5 38zM618 1522q0 16 4.5 36.5t10.5 30.5q6 14 30.5 25.5t34.5 11.5q14 0 32 -12t34 -27.5t27.5 -30t11.5 -16.5 q0 -43 -11.5 -57.5t-27.5 -24.5l-16 -12q-2 -2 -10.5 -5t-14.5 -5h6q-16 -8 -27 -9q-23 0 -39 12.5t-26 28t-14.5 32t-4.5 22.5zM514 1507l-12 -2l8 -4zM514 1507l-12 -2l8 -4zM31 786l8 11q-8 -4 -8 -9v21q0 2 9 15.5t22.5 34t27.5 47t25 57.5q4 10 13 16t9 10q0 33 35 39 q-10 0 -2 14q10 14 14 27.5t35 15.5q10 10 23.5 17.5t27.5 9.5q8 18 22.5 33.5t31.5 32.5l14 10l6 10l23 35q4 8 14 13t18 5q-2 0 14.5 8.5t41.5 18.5q27 12 55.5 26.5t57 25.5t53 19.5t43.5 8.5q4 0 19 -2t35.5 -7.5t41 -12.5t37.5 -17q20 -12 17 -34.5t-19 -33.5 q16 -2 26 -16t6 -31q2 -4 10.5 -4h10.5q16 0 27.5 -11t11.5 -28q10 -4 18 -12q8 -6 17.5 -13.5t19.5 -13.5l37 -26q18 -8 30.5 -14.5t22.5 -16.5q8 6 19.5 -4t23.5 -31.5t25.5 -50.5t29.5 -57l41 -80q2 -12 3.5 -40t2.5 -62.5t1 -73.5v-72l-25 -19q-6 -29 -18.5 -58.5 t-24.5 -55.5l2 2l-12 -31q-4 -6 -24.5 -25.5t-37.5 -35.5l-6 -6q-8 -12 -15 -25.5t-18 -24.5q-16 -18 -31.5 -39.5t-19.5 -3.5q-14 -41 -47 -72.5t-63 -60.5q-27 0 -35 4q4 -4 5 -8t-9 -12l-27 -21q-4 -4 -15.5 -11t-34 -18.5t-57 -27.5t-85.5 -37q-10 -4 -23.5 -2t-21.5 12 q-4 0 -21 -4q-27 -10 -37 -10l-12 4q-12 4 -19 10q-127 4 -191.5 33t-104.5 70l26 -10l-24 25q-23 24 -49.5 53.5t-50 55t-23.5 29.5l4 -4q-8 10 -12.5 27.5t-8.5 34.5q-8 20 -13 41.5t-5 25.5v13q0 16 1 42.5t1 41.5q-10 20 -12 46.5t-2 45.5q0 10 1 17t1 11l34 156z M123 506q0 -16 4 -38t9 -42t11.5 -36.5t10.5 -20.5q12 -12 16 -24.5t8 -29.5q4 -10 8.5 -22t6.5 -17q0 6 4 3l20 -33l10 -8q18 -16 45 -34t37 -18q4 0 13.5 -3t13.5 -7q10 -10 41 -16q16 -4 26.5 -7t22.5 -8l84 9q53 12 93 23t72 26.5t57.5 39t51.5 60.5q4 6 14.5 11t16.5 5 q10 0 25 9l26 24q10 12 20.5 22.5t22.5 16.5q12 23 32 59.5t32 63.5v6q0 23 9 36t24 26q2 16 8 26t14 27q10 14 16.5 30.5t6.5 28.5q0 20 -5.5 63.5t-17.5 71.5q-20 20 -48 52t-52 63l-10 12q-27 10 -43.5 24.5t-36.5 37.5h2l-47 45q-12 12 -33 24.5t-41.5 21.5t-34.5 15 t-16 6q-4 0 -10.5 -1t-8.5 -3q-4 -4 -13 -8t-13 -4h-21q2 -2 -8 -8l-12 -8q-29 0 -42.5 8t-23.5 18q-2 0 -4 2q-2 -2 -6 -2l-57 -18l-9 -16l-9 -13.5t-16 -16.5t-30.5 -21.5t-52.5 -28.5h-4q-2 -8 -15 -25q-2 -25 -19 -45t-40 -37l-31 -26q-4 -35 -18 -70t-31 -64v2 q-10 -16 -17 -32.5t-7 -14.5q0 -16 -3.5 -32.5t-7.5 -38.5q-8 -35 -14 -69t-6 -52z" />
<glyph unicode="&#xd7;" horiz-adv-x="684" d="M305 467l-8 -16l-57 -58l-17 -31q-10 -18 -16 -35.5t-25 -33.5l-24 -17l-2 -2l-15 -10q-4 -4 -4 -10q-10 -20 -26.5 -34.5t-44.5 -14.5q-39 0 -39 39q0 8 3 34.5t5 36.5q-2 29 11 41.5t28 22.5q2 0 4 2l14 43v-2q6 29 15.5 49.5t31.5 24.5q2 12 10.5 21t18.5 20v10 q0 4 3 14t7 14q6 4 10 11q8 12 11 20q-2 -6 -8.5 -4t-10.5 8l-14 17q-4 2 -7 10t-5 12v-2l-25 45q-10 18 -22.5 32.5t-26.5 27.5l-27 28q-35 2 -57.5 13.5t-22.5 46.5q0 23 16.5 50.5t37.5 27.5h90q35 0 39 -35h2v-4q2 0 6 -2q10 -8 22.5 -12.5t14.5 -30.5q10 -14 29.5 -39 t48.5 -72q29 4 41 22.5t22 40.5l-2 -6l10 21q27 25 34 42t12 29.5t18.5 23.5t54.5 24q29 0 36 -4.5t21 -16.5h-2q14 -8 19.5 -22.5t-2.5 -30.5l-62 -123q-16 -16 -41.5 -50t-44.5 -61v2l-14 -18l10 -14q41 -20 53.5 -36t18.5 -38q-2 2 0 -2l4 -8q16 -16 38.5 -41t35.5 -54 q18 -4 35.5 -16t32 -33.5t23.5 -55.5t9 -83q0 -16 -10.5 -26.5t-26.5 -10.5q-4 0 -16.5 1t-16.5 3q-25 8 -28 31v-4l-92 88q-4 4 -7.5 13t-3.5 14q0 4 -15 13t-32 13q-10 14 -18 23.5t-13 13.5q-6 6 -14 17.5t-12 17.5zM154 647q0 -6 4 -8z" />
<glyph unicode="&#xd8;" horiz-adv-x="1247" d="M285 -125q0 2 1 6t1 8v15l16 71v17l8 45q-4 0 -5 1t-5 1q-16 4 -31.5 7t-21.5 5l-43 31q-29 12 -55 39l26 -10l-24 25q-23 24 -49.5 53.5t-50 55t-23.5 29.5l4 -4q-8 10 -12.5 27.5t-8.5 34.5q-8 20 -13 41.5t-5 25.5v13q0 16 1 42.5t1 41.5q-10 20 -12 46.5t-2 45.5 q0 10 1 17t1 11l34 156q0 6 13 19v18q0 2 7 17.5t18.5 37t24.5 45t28 41.5l18 29q6 10 12 20.5t11 14.5v2l45 57q4 4 12 7t12 5q10 10 23.5 17.5t27.5 9.5q8 18 21.5 33.5t30.5 32.5v-2l16 12l10 20v-2q10 16 21.5 30.5t40.5 25.5l47 16q16 10 39.5 25.5t44.5 19.5l96 35h55 l45 -15q2 2 3 7.5t1 9.5l31 29q8 2 35 7t35 5q16 0 26.5 -11.5t10.5 -27.5q0 -8 -1 -31.5t-6 -36.5q0 -2 -2 -6q-4 -8 -6 -10t-2 -4t-2 -2q-2 -8 -4 -35t-2 -33q0 -8 -2 -10q10 -6 17.5 -12t13.5 -11q10 -10 23.5 -20t39.5 -25l31 -28q43 -14 64.5 -37t35.5 -45q4 -8 17 -19 l77 -155q2 -12 3.5 -41t2.5 -64t1 -72.5v-70.5l-25 -19q-6 -29 -18.5 -58.5t-24.5 -55.5l2 2l-12 -31q-4 -6 -24.5 -25.5t-37.5 -35.5l-6 -6l-12 -23l-14 -23l-45 -40q0 -4 -12.5 -19.5t-31 -37t-40 -44t-39.5 -39.5h-19l-59 -47l2 2q-6 -4 -16.5 -12t-34.5 -16l-41 -17 l-90 -41q-27 -14 -48 10q-2 0 -18 -4q-27 -10 -37 -10l-8 4q-4 2 -7 3t-7 3v-34q0 -10 -6.5 -21.5t-14.5 -21.5l-61 -117q-10 -16 -28.5 -19.5t-33.5 13.5q-10 10 -18 20t-8 41zM154 662q-10 -16 -18.5 -52.5t-12.5 -77.5v-47q8 -33 19.5 -72.5t21.5 -50.5l31 -79v2 q4 -10 14 -23.5t18 -21.5l60 -29q16 -16 32.5 -23.5t45.5 -17.5q8 16 14 30.5t12 24.5q0 -2 2 -4v31l15 31v6q0 4 3 14t7 12l4 2v31q2 8 8 17q6 12 19 24l6 6l14 23q0 6 1 10l3 12q4 23 5 43.5t7 42.5q2 4 4.5 11.5t4.5 11.5q2 6 4 10v35q12 20 22 41q8 16 15.5 31.5 t9.5 19.5l-2 -4l6 43v2q2 25 10 49q2 16 8 19.5t13 13.5q2 4 5 5t3 -5v41q2 6 4 14q4 12 8 21v-2l51 110q4 10 5 25.5t1 21.5q0 14 9 25q-2 8 -2 29q0 14 4 21t8 13h-4q-2 0 -2 2q-4 0 -9.5 -1t-7.5 -3q-4 -4 -13 -8t-13 -4h-15l-4 -2q-4 -4 -14 -8t-14 -4l-5 -2 q-23 0 -34 8t-21 18q-2 0 -4 2l-8 -10l-59 -14q-12 -25 -34 -43.5t-50 -34.5l-31 -14h-2q-4 -10 -11.5 -19.5t-17.5 -15.5q-10 -23 -22.5 -45.5t-26.5 -36.5l-23 -12l-4 -11v-14l-63 -131l-6 -12t-4 -11v-40zM807 1053q-4 -10 -6 -17.5t-2 -9.5l-17 -29v2 q-35 -115 -74.5 -230.5t-74.5 -227.5q-2 -2 -4 -15.5t-6 -27.5q-2 -6 -2 -13q0 -2 -3 -4q-4 -10 -12 -37.5t-16 -44.5l-17 -61l-30 -115l-37 -69h31q43 12 77.5 23t64.5 27.5t56.5 40t52.5 60.5q4 6 14.5 10t16.5 4h8l21 13q10 8 25.5 24.5t17.5 20.5q6 10 27 18l59 119v6 q0 25 9 37t22 23l4 6l2 4q6 16 14 37.5t16 36.5l9 8q0 6 1 12t1 10q0 20 -5.5 63.5t-17.5 71.5l-18 17q-8 16 -24.5 33.5t-35.5 38.5v2q-10 12 -19 21l-20 20q-12 8 -26.5 17t-18.5 13z" />
<glyph unicode="&#xd9;" horiz-adv-x="983" d="M530 1346q-20 6 -52 27.5t-48 43.5q-6 6 -17.5 16.5t-25.5 21.5t-25.5 20.5t-17.5 13.5q-4 4 -14.5 16.5t-23.5 25.5l-25.5 25.5l-18.5 18.5q-8 4 -24.5 14t-32 23.5t-27.5 29t-12 29.5q0 6 9 20.5t21.5 28t26 24.5t19.5 11q16 0 26.5 -9t22.5 -20l10 -10l74 -41 q16 -16 20 -23t11 -16l18 -28q0 6 -4 10h8q16 -12 47 -52t60.5 -83t50 -78t18.5 -41q-4 -8 -15 -14.5t-18 -6.5q-4 0 -17.5 0.5t-23.5 2.5zM727 137q0 8 4 13l-4 6v22q0 8 -1 20.5t-1 18.5q0 8 1 24.5t1 30.5v17q0 14 2 26.5t-10 8.5q0 -2 -2 -5q-4 -4 -13.5 -7t-13.5 -3h-8 q6 -2 7 -9t-7 -13q-10 -8 -14 -20.5t-21 -30.5q-16 -33 -33.5 -46.5t-58.5 -25.5q-18 -18 -49 -34.5t-57 -27.5l-15 -4q-10 0 -14 2q-18 -6 -39 -6q-12 0 -21 6q-10 0 -39.5 4.5t-46.5 8.5h2q-2 0 -2 2q-29 0 -36 26l-7 17q-4 0 -6 2l4 -4l-43 26l-16 29l-12 14q-6 2 -6 8 q-23 10 -42.5 25.5t-23.5 52.5q-12 16 -10 26.5t12 18.5v2q-6 10 -11 19.5t-5 19.5v21q0 27 28 31q-27 23 -51 48t-24 48q0 4 6 14q-6 23 -8.5 52.5t-4.5 68.5l-6 129l2 -2l-2 4q0 2 -1 3t-1 5q-6 -6 0 -6q-2 2 -3 4t-3 4l-4 4l-8 33q-6 20 -10.5 40t-4.5 46q0 27 5.5 40 t13.5 26v2q-4 12 -8 22t-6 17.5t-2 11.5v14q0 2 -1.5 6t3.5 13q2 18 8 43.5t18 48t32.5 36t51.5 5.5q18 -4 31.5 -15.5t21.5 -21.5l7 -6q4 -4 8 -13.5t4 -13.5t-2 -17.5t-8 -27.5v4q-6 -18 -12.5 -41.5t-6.5 -36.5q0 -4 2 -22.5t4 -38.5q4 -18 5 -36.5t1 -22.5q0 -8 -2 -31 t-4 -45q-4 -23 -5 -40.5t-1 -21.5v-14l2 -14q2 -13 4 -29t5.5 -31.5t3.5 -19.5q-2 -4 2 -18.5t10 -30.5q6 -18 14 -39v-21q10 -25 20.5 -62.5t10.5 -64.5q0 -14 -2 -16q18 0 27.5 -9.5t9.5 -50.5l92 -92q4 -4 7 -13t3 -13q0 -14 33 -19q39 35 62.5 47.5t45.5 22.5l-2 -2 q14 6 22.5 8t24.5 16v9q0 16 10.5 30.5t24.5 24.5l13 14l10 17q10 14 20 33.5t23 31.5q4 4 8 15.5t12 21.5q-8 14 4 33l6.5 13t6.5 15q4 12 7 24.5t13 27.5q6 8 13.5 24.5t13.5 36t9 37.5t3 29q2 6 4 14q2 6 4 13t4 12q0 2 2 2q0 37 3.5 76.5t3.5 74.5l8 17v2q4 20 4 28 q0 23 -3 36t-7 24q-8 23 -9 45q0 16 3.5 24t9.5 19v-2q2 4 4 10t2 27q0 16 -2 26t-6 19v-2q-4 10 -7.5 18t-3.5 20q0 8 -1 22.5t-1 29v26v15.5q0 16 10.5 27.5t26.5 11.5t37 -6.5t38 -18.5t29.5 -29.5t12.5 -40.5v-856q0 -4 -4 -14t-8 -12l-4 -4q0 -8 1 -17.5t1 -19.5 q0 -33 -4.5 -48.5t-8.5 -25.5q6 -14 16.5 -43t10.5 -53q0 -10 -7 -23.5t-18 -27.5q10 -12 9.5 -31t-15.5 -29q6 -23 7 -48.5t1 -45.5q0 -16 -11 -27.5t-28 -11.5q-33 0 -68.5 13.5t-35.5 45.5v121z" />
<glyph unicode="&#xda;" horiz-adv-x="983" d="M307 1497q27 10 50.5 31.5t48.5 46.5l55 51q10 8 17 12t22 7l-2 -3q6 2 12 7.5t10 25.5q2 16 12.5 22.5t22.5 8.5l-4 -4l6 4q14 0 27.5 -9t13.5 -26q0 29 -10 33t-21 4h-8l19 12q23 16 46 29.5t58 13.5q16 0 27.5 -11t11.5 -28q0 -2 -1 -6t-1 -8v-10q0 -4 -4 -14.5 t-8 -12.5q-2 0 -2 -2v-6q-8 -16 -27 -42t-68 -75l-18 -10l-12 -6q-39 -39 -70 -62l-66 -61q-20 -4 -28 -13.5t-17 -27.5q-4 -8 -15 -15t-19 -7h-11q-6 0 -12 1t-14 1q-35 0 -41 -5q-18 -18 -45 -8q-18 8 -21.5 26.5t-3.5 22.5q0 37 17.5 45.5t37.5 18.5q10 10 11 -4l10 -10z M559 1708l-2 -2h-2q2 0 2 1t2 1zM727 137q0 8 4 13l-4 6v22q0 8 -1 20.5t-1 18.5q0 8 1 24.5t1 30.5v17q0 14 2 26.5t-10 8.5q0 -2 -2 -5q-4 -4 -13.5 -7t-13.5 -3h-8q6 -2 7 -9t-7 -13q-10 -8 -14 -20.5t-21 -30.5q-16 -33 -33.5 -46.5t-58.5 -25.5q-18 -18 -49 -34.5 t-57 -27.5l-15 -4q-10 0 -14 2q-18 -6 -39 -6q-12 0 -21 6q-10 0 -39.5 4.5t-46.5 8.5h2q-2 0 -2 2q-29 0 -36 26l-7 17q-4 0 -6 2l4 -4l-43 26l-16 29l-12 14q-6 2 -6 8q-23 10 -42.5 25.5t-23.5 52.5q-12 16 -10 26.5t12 18.5v2q-6 10 -11 19.5t-5 19.5v21q0 27 28 31 q-27 23 -51 48t-24 48q0 4 6 14q-6 23 -8.5 52.5t-4.5 68.5l-6 129l2 -2l-2 4q0 2 -1 3t-1 5q-6 -6 0 -6q-2 2 -3 4t-3 4l-4 4l-8 33q-6 20 -10.5 40t-4.5 46q0 27 5.5 40t13.5 26v2q-4 12 -8 22t-6 17.5t-2 11.5v14q0 2 -1.5 6t3.5 13q2 18 8 43.5t18 48t32.5 36t51.5 5.5 q18 -4 31.5 -15.5t21.5 -21.5l7 -6q4 -4 8 -13.5t4 -13.5t-2 -17.5t-8 -27.5v4q-6 -18 -12.5 -41.5t-6.5 -36.5q0 -4 2 -22.5t4 -38.5q4 -18 5 -36.5t1 -22.5q0 -8 -2 -31t-4 -45q-4 -23 -5 -40.5t-1 -21.5v-14l2 -14q2 -13 4 -29t5.5 -31.5t3.5 -19.5q-2 -4 2 -18.5 t10 -30.5q6 -18 14 -39v-21q10 -25 20.5 -62.5t10.5 -64.5q0 -14 -2 -16q18 0 27.5 -9.5t9.5 -50.5l92 -92q4 -4 7 -13t3 -13q0 -14 33 -19q39 35 62.5 47.5t45.5 22.5l-2 -2q14 6 22.5 8t24.5 16v9q0 16 10.5 30.5t24.5 24.5l13 14l10 17q10 14 20 33.5t23 31.5q4 4 8 15.5 t12 21.5q-8 14 4 33l6.5 13t6.5 15q4 12 7 24.5t13 27.5q6 8 13.5 24.5t13.5 36t9 37.5t3 29q2 6 4 14q2 6 4 13t4 12q0 2 2 2q0 37 3.5 76.5t3.5 74.5l8 17v2q4 20 4 28q0 23 -3 36t-7 24q-8 23 -9 45q0 16 3.5 24t9.5 19v-2q2 4 4 10t2 27q0 16 -2 26t-6 19v-2 q-4 10 -7.5 18t-3.5 20q0 8 -1 22.5t-1 29v26v15.5q0 16 10.5 27.5t26.5 11.5t37 -6.5t38 -18.5t29.5 -29.5t12.5 -40.5v-856q0 -4 -4 -14t-8 -12l-4 -4q0 -8 1 -17.5t1 -19.5q0 -33 -4.5 -48.5t-8.5 -25.5q6 -14 16.5 -43t10.5 -53q0 -10 -7 -23.5t-18 -27.5 q10 -12 9.5 -31t-15.5 -29q6 -23 7 -48.5t1 -45.5q0 -16 -11 -27.5t-28 -11.5q-33 0 -68.5 13.5t-35.5 45.5v121z" />
<glyph unicode="&#xdb;" horiz-adv-x="983" d="M223 1542h-6l2 2h6q10 25 24.5 45.5t37.5 26.5h4q6 12 12 21.5t14 19.5q6 8 11.5 14t9.5 15q2 6 8 13t12 9q6 0 11.5 3t9.5 7q10 8 22.5 15.5t32.5 7.5q2 0 7 -1t14 -1q43 -14 68.5 -28.5t37.5 -29t16.5 -31t8.5 -34.5l6 -27q8 -10 17 -26.5t18 -26.5l32 -55l13 -13 q12 -20 22.5 -42.5t10.5 -49.5q0 -16 -11.5 -26.5t-27.5 -10.5q-27 0 -60 9.5t-59 27.5l-10 39q-4 12 -9.5 25.5t-19.5 19.5q-16 31 -32.5 60.5t-35.5 52.5q-8 -14 -19 -25.5t-22 -23.5l-28 -33q-4 -4 -14.5 -8t-14.5 -4h-6q6 -4 -2 -17q-6 -10 -16.5 -24.5t-20.5 -22.5 q-18 -35 -36.5 -53.5t-38 -25.5t-39 -8t-42.5 -1q-39 0 -39 39q0 29 10.5 47.5t28.5 40.5q10 14 23.5 29.5t23.5 38.5zM727 137q0 8 4 13l-4 6v22q0 8 -1 20.5t-1 18.5q0 8 1 24.5t1 30.5v17q0 14 2 26.5t-10 8.5q0 -2 -2 -5q-4 -4 -13.5 -7t-13.5 -3h-8q6 -2 7 -9t-7 -13 q-10 -8 -14 -20.5t-21 -30.5q-16 -33 -33.5 -46.5t-58.5 -25.5q-18 -18 -49 -34.5t-57 -27.5l-15 -4q-10 0 -14 2q-18 -6 -39 -6q-12 0 -21 6q-10 0 -39.5 4.5t-46.5 8.5h2q-2 0 -2 2q-29 0 -36 26l-7 17q-4 0 -6 2l4 -4l-43 26l-16 29l-12 14q-6 2 -6 8q-23 10 -42.5 25.5 t-23.5 52.5q-12 16 -10 26.5t12 18.5v2q-6 10 -11 19.5t-5 19.5v21q0 27 28 31q-27 23 -51 48t-24 48q0 4 6 14q-6 23 -8.5 52.5t-4.5 68.5l-6 129l2 -2l-2 4q0 2 -1 3t-1 5q-6 -6 0 -6q-2 2 -3 4t-3 4l-4 4l-8 33q-6 20 -10.5 40t-4.5 46q0 27 5.5 40t13.5 26v2 q-4 12 -8 22t-6 17.5t-2 11.5v14q0 2 -1.5 6t3.5 13q2 18 8 43.5t18 48t32.5 36t51.5 5.5q18 -4 31.5 -15.5t21.5 -21.5l7 -6q4 -4 8 -13.5t4 -13.5t-2 -17.5t-8 -27.5v4q-6 -18 -12.5 -41.5t-6.5 -36.5q0 -4 2 -22.5t4 -38.5q4 -18 5 -36.5t1 -22.5q0 -8 -2 -31t-4 -45 q-4 -23 -5 -40.5t-1 -21.5v-14l2 -14q2 -13 4 -29t5.5 -31.5t3.5 -19.5q-2 -4 2 -18.5t10 -30.5q6 -18 14 -39v-21q10 -25 20.5 -62.5t10.5 -64.5q0 -14 -2 -16q18 0 27.5 -9.5t9.5 -50.5l92 -92q4 -4 7 -13t3 -13q0 -14 33 -19q39 35 62.5 47.5t45.5 22.5l-2 -2 q14 6 22.5 8t24.5 16v9q0 16 10.5 30.5t24.5 24.5l13 14l10 17q10 14 20 33.5t23 31.5q4 4 8 15.5t12 21.5q-8 14 4 33l6.5 13t6.5 15q4 12 7 24.5t13 27.5q6 8 13.5 24.5t13.5 36t9 37.5t3 29q2 6 4 14q2 6 4 13t4 12q0 2 2 2q0 37 3.5 76.5t3.5 74.5l8 17v2q4 20 4 28 q0 23 -3 36t-7 24q-8 23 -9 45q0 16 3.5 24t9.5 19v-2q2 4 4 10t2 27q0 16 -2 26t-6 19v-2q-4 10 -7.5 18t-3.5 20q0 8 -1 22.5t-1 29v26v15.5q0 16 10.5 27.5t26.5 11.5t37 -6.5t38 -18.5t29.5 -29.5t12.5 -40.5v-856q0 -4 -4 -14t-8 -12l-4 -4q0 -8 1 -17.5t1 -19.5 q0 -33 -4.5 -48.5t-8.5 -25.5q6 -14 16.5 -43t10.5 -53q0 -10 -7 -23.5t-18 -27.5q10 -12 9.5 -31t-15.5 -29q6 -23 7 -48.5t1 -45.5q0 -16 -11 -27.5t-28 -11.5q-33 0 -68.5 13.5t-35.5 45.5v121z" />
<glyph unicode="&#xdc;" horiz-adv-x="983" d="M322 1628q31 0 46 -7t21 -20.5t7 -31t1 -35.5q0 -43 -13 -71.5t-69 -28.5h-12t-16 4q-4 0 -5 1t-6 1q-23 0 -34 18l-17.5 17.5t-9.5 29.5q0 47 26 85t81 38zM469 1518q0 16 2 36.5t10 34.5q0 2 4 6q12 10 33 20.5t29 10.5q16 0 34.5 -13.5t34 -28.5t25.5 -30l10 -14 q0 -43 -12 -59.5t-29 -26.5q-4 -4 -9 -7t-3 -1l-25 -10h5q-12 -8 -29 -9q-25 0 -40 13.5t-24.5 29t-12.5 30t-3 18.5zM727 137q0 8 4 13l-4 6v22q0 8 -1 20.5t-1 18.5q0 8 1 24.5t1 30.5v17q0 14 2 26.5t-10 8.5q0 -2 -2 -5q-4 -4 -13.5 -7t-13.5 -3h-8q6 -2 7 -9t-7 -13 q-10 -8 -14 -20.5t-21 -30.5q-16 -33 -33.5 -46.5t-58.5 -25.5q-18 -18 -49 -34.5t-57 -27.5l-15 -4q-10 0 -14 2q-18 -6 -39 -6q-12 0 -21 6q-10 0 -39.5 4.5t-46.5 8.5h2q-2 0 -2 2q-29 0 -36 26l-7 17q-4 0 -6 2l4 -4l-43 26l-16 29l-12 14q-6 2 -6 8q-23 10 -42.5 25.5 t-23.5 52.5q-12 16 -10 26.5t12 18.5v2q-6 10 -11 19.5t-5 19.5v21q0 27 28 31q-27 23 -51 48t-24 48q0 4 6 14q-6 23 -8.5 52.5t-4.5 68.5l-6 129l2 -2l-2 4q0 2 -1 3t-1 5q-6 -6 0 -6q-2 2 -3 4t-3 4l-4 4l-8 33q-6 20 -10.5 40t-4.5 46q0 27 5.5 40t13.5 26v2 q-4 12 -8 22t-6 17.5t-2 11.5v14q0 2 -1.5 6t3.5 13q2 18 8 43.5t18 48t32.5 36t51.5 5.5q18 -4 31.5 -15.5t21.5 -21.5l7 -6q4 -4 8 -13.5t4 -13.5t-2 -17.5t-8 -27.5v4q-6 -18 -12.5 -41.5t-6.5 -36.5q0 -4 2 -22.5t4 -38.5q4 -18 5 -36.5t1 -22.5q0 -8 -2 -31t-4 -45 q-4 -23 -5 -40.5t-1 -21.5v-14l2 -14q2 -13 4 -29t5.5 -31.5t3.5 -19.5q-2 -4 2 -18.5t10 -30.5q6 -18 14 -39v-21q10 -25 20.5 -62.5t10.5 -64.5q0 -14 -2 -16q18 0 27.5 -9.5t9.5 -50.5l92 -92q4 -4 7 -13t3 -13q0 -14 33 -19q39 35 62.5 47.5t45.5 22.5l-2 -2 q14 6 22.5 8t24.5 16v9q0 16 10.5 30.5t24.5 24.5l13 14l10 17q10 14 20 33.5t23 31.5q4 4 8 15.5t12 21.5q-8 14 4 33l6.5 13t6.5 15q4 12 7 24.5t13 27.5q6 8 13.5 24.5t13.5 36t9 37.5t3 29q2 6 4 14q2 6 4 13t4 12q0 2 2 2q0 37 3.5 76.5t3.5 74.5l8 17v2q4 20 4 28 q0 23 -3 36t-7 24q-8 23 -9 45q0 16 3.5 24t9.5 19v-2q2 4 4 10t2 27q0 16 -2 26t-6 19v-2q-4 10 -7.5 18t-3.5 20q0 8 -1 22.5t-1 29v26v15.5q0 16 10.5 27.5t26.5 11.5t37 -6.5t38 -18.5t29.5 -29.5t12.5 -40.5v-856q0 -4 -4 -14t-8 -12l-4 -4q0 -8 1 -17.5t1 -19.5 q0 -33 -4.5 -48.5t-8.5 -25.5q6 -14 16.5 -43t10.5 -53q0 -10 -7 -23.5t-18 -27.5q10 -12 9.5 -31t-15.5 -29q6 -23 7 -48.5t1 -45.5q0 -16 -11 -27.5t-28 -11.5q-33 0 -68.5 13.5t-35.5 45.5v121z" />
</font>
</defs>
</svg>
